<?xml version="1.0" standalone="no"?><!DOCTYPE svg PUBLIC "-//W3C//DTD SVG 1.1//EN" "http://www.w3.org/Graphics/SVG/1.1/DTD/svg11.dtd"><svg t="1622183842399" class="icon" viewBox="0 0 1024 1024" version="1.1" xmlns="http://www.w3.org/2000/svg" p-id="1225" xmlns:xlink="http://www.w3.org/1999/xlink" width="128" height="128"><defs><style type="text/css"></style></defs><path d="M548.169956 402.966756c0 56.558933-45.841067 102.4-102.4 102.4-56.558933 0-102.4-45.841067-102.4-102.4s45.841067-102.4 102.4-102.4C502.317511 300.566756 548.169956 346.4192 548.169956 402.966756zM881.288533 883.154489c-13.323378 13.334756-30.799644 20.002133-48.264533 20.002133s-34.941156-6.667378-48.264533-20.002133c0 0-173.8752-174.057244-175.251911-175.763911-48.651378 31.049956-106.3936 49.117867-168.391111 49.117867-173.1584 0-313.526044-140.367644-313.526044-313.526044S267.969422 129.456356 441.116444 129.456356s313.526044 140.367644 313.526044 313.526044c0 61.997511-18.067911 119.739733-49.117867 168.391111 1.706667 1.365333 175.763911 175.251911 175.763911 175.251911C907.958044 813.272178 907.958044 856.496356 881.288533 883.154489zM689.322667 442.9824c0-137.079467-111.126756-248.206222-248.206222-248.206222s-248.206222 111.126756-248.206222 248.206222c0 79.109689 37.057422 149.526756 94.708622 194.980978 7.497956-55.569067 55.000178-98.451911 112.628622-98.451911l91.022222 0c55.261867 0 101.284978 39.412622 111.593244 91.648C655.7696 585.636978 689.322667 518.2464 689.322667 442.9824z" p-id="1226" fill="#1CAFF6"></path></svg>