<svg xmlns="http://www.w3.org/2000/svg" width="86.606" height="69.285" viewBox="0 0 86.606 69.285">
  <path id="Icon_awesome-school" data-name="Icon awesome-school" d="M0,30.312V67.12a2.165,2.165,0,0,0,2.165,2.165H12.991v-43.3H4.33A4.331,4.331,0,0,0,0,30.312Zm48.716-6.5H45.468V18.4a1.082,1.082,0,0,0-1.083-1.083H42.221A1.082,1.082,0,0,0,41.138,18.4v8.661a1.082,1.082,0,0,0,1.083,1.083h6.5A1.082,1.082,0,0,0,49.8,27.065V24.9A1.082,1.082,0,0,0,48.716,23.817Zm18.641-8.655L45.705.727a4.333,4.333,0,0,0-4.8,0L19.25,15.162a4.331,4.331,0,0,0-1.928,3.6V69.285H34.643V49.8a2.165,2.165,0,0,1,2.165-2.165H49.8A2.165,2.165,0,0,1,51.964,49.8V69.285H69.285V18.765a4.331,4.331,0,0,0-1.928-3.6ZM43.3,34.643A10.826,10.826,0,1,1,54.129,23.817,10.826,10.826,0,0,1,43.3,34.643Zm38.973-8.661H73.615v43.3H84.441a2.165,2.165,0,0,0,2.165-2.165V30.312A4.331,4.331,0,0,0,82.276,25.982Z" fill="#fff"/>
</svg>
