<svg xmlns="http://www.w3.org/2000/svg" width="82.92" height="64.495" viewBox="0 0 82.92 64.495">
  <path id="Icon_awesome-book-open" data-name="Icon awesome-book-open" d="M78.058,2.258c-7.889.448-23.569,2.077-33.249,8a2.213,2.213,0,0,0-1.047,1.9V64.539a2.278,2.278,0,0,0,3.351,1.942c9.959-5.013,24.362-6.38,31.484-6.755a4.49,4.49,0,0,0,4.322-4.414V6.677a4.513,4.513,0,0,0-4.862-4.42Zm-39.948,8c-9.678-5.925-25.359-7.554-33.248-8A4.515,4.515,0,0,0,0,6.677V55.314a4.488,4.488,0,0,0,4.322,4.414c7.125.374,21.535,1.743,31.494,6.759a2.271,2.271,0,0,0,3.341-1.938V12.13A2.167,2.167,0,0,0,38.111,10.26Z" transform="translate(0 -2.25)" fill="#fff"/>
</svg>
