<svg xmlns="http://www.w3.org/2000/svg" width="25" height="27.911" viewBox="0 0 25 27.911">
  <g id="ビル" transform="translate(229.3 256)">
    <path id="Path_924" data-name="Path 924" d="M11.557,21.789h1.892v2.4H11.557Zm-8.041-.125H5.4v2.4H3.516Zm16.082,0h1.892v2.4h-1.9Zm-8.041-5.909h1.892v2.4H11.557Zm-8.041-.12H5.4v2.4H3.516Zm16.082,0h1.892v2.4h-1.9ZM11.557,9.725h1.892v2.4H11.557ZM19.6,9.6h1.892V12h-1.9ZM11.557,3.691h1.892v2.4H11.557ZM7.528,0V11.382H0V27.911H25V5.271H17.472V0Z" transform="translate(-229.3 -256)" fill="#6a6a6a"/>
  </g>
</svg>
