<svg xmlns="http://www.w3.org/2000/svg" width="24.107" height="31.44" viewBox="0 0 24.107 31.44">
  <path id="電話アイコン" d="M61.867,1.332c-2.16,1.4-2.585,5.78-1.769,9.35A32.24,32.24,0,0,0,64.361,20.7a33.482,33.482,0,0,0,7.41,7.978c2.926,2.2,7.1,3.6,9.258,2.2a10.94,10.94,0,0,0,2.789-2.991L82.658,26.1l-3.191-4.921c-.237-.366-1.724-.031-2.48.4A7.194,7.194,0,0,0,75.029,23.7c-.7.4-1.284,0-2.507-.561-1.5-.692-3.193-2.84-4.538-4.786-1.228-2.022-2.5-4.441-2.52-6.1-.015-1.346-.144-2.045.51-2.518a7.194,7.194,0,0,0,2.74-.92c.7-.515,1.611-1.737,1.373-2.1L66.9,1.794,65.736,0A10.941,10.941,0,0,0,61.867,1.332Z" transform="translate(-59.712 0.001)" fill="#3b4043"/>
</svg>
