<svg id="undraw_Personal_notebook_re_d7dc" xmlns="http://www.w3.org/2000/svg" width="219.068" height="126.555" viewBox="0 0 219.068 126.555">
  <path id="Path_4089" data-name="Path 4089" d="M424.589,371.5a1.871,1.871,0,0,1-.923-.244L370.3,341.084a1.883,1.883,0,0,1-.712-2.563l42.036-74.352a1.88,1.88,0,0,1,2.563-.712l53.37,30.174a1.883,1.883,0,0,1,.712,2.563l-42.036,74.352a1.869,1.869,0,0,1-1.134.887A1.892,1.892,0,0,1,424.589,371.5Z" transform="translate(-323.428 -251.456)" fill="#e6e6e6"/>
  <rect id="Rectangle_1523" data-name="Rectangle 1523" width="0.436" height="64.796" transform="matrix(0.492, -0.871, 0.871, 0.492, 86.489, 16.005)" fill="#fff"/>
  <rect id="Rectangle_1524" data-name="Rectangle 1524" width="0.436" height="64.796" transform="matrix(0.492, -0.871, 0.871, 0.492, 82.628, 22.833)" fill="#fff"/>
  <rect id="Rectangle_1525" data-name="Rectangle 1525" width="0.436" height="64.796" transform="matrix(0.492, -0.871, 0.871, 0.492, 78.768, 29.662)" fill="#fff"/>
  <rect id="Rectangle_1526" data-name="Rectangle 1526" width="0.436" height="64.796" transform="matrix(0.492, -0.871, 0.871, 0.492, 74.907, 36.49)" fill="#fff"/>
  <rect id="Rectangle_1527" data-name="Rectangle 1527" width="0.436" height="64.796" transform="matrix(0.492, -0.871, 0.871, 0.492, 71.047, 43.318)" fill="#fff"/>
  <rect id="Rectangle_1528" data-name="Rectangle 1528" width="0.436" height="64.796" transform="matrix(0.492, -0.871, 0.871, 0.492, 67.187, 50.146)" fill="#fff"/>
  <rect id="Rectangle_1529" data-name="Rectangle 1529" width="0.436" height="64.796" transform="matrix(0.492, -0.871, 0.871, 0.492, 63.326, 56.975)" fill="#fff"/>
  <rect id="Rectangle_1530" data-name="Rectangle 1530" width="0.436" height="64.796" transform="matrix(0.492, -0.871, 0.871, 0.492, 59.466, 63.803)" fill="#fff"/>
  <rect id="Rectangle_1531" data-name="Rectangle 1531" width="0.436" height="64.796" transform="matrix(0.492, -0.871, 0.871, 0.492, 55.605, 70.631)" fill="#fff"/>
  <rect id="Rectangle_1532" data-name="Rectangle 1532" width="0.436" height="64.796" transform="matrix(0.492, -0.871, 0.871, 0.492, 51.745, 77.459)" fill="#fff"/>
  <rect id="Rectangle_1533" data-name="Rectangle 1533" width="0.436" height="64.796" transform="matrix(0.492, -0.871, 0.871, 0.492, 47.884, 84.288)" fill="#fff"/>
  <path id="Path_4090" data-name="Path 4090" d="M406.589,330.5a1.871,1.871,0,0,1-.923-.244L352.3,300.084a1.883,1.883,0,0,1-.712-2.563l42.036-74.352a1.88,1.88,0,0,1,2.563-.712l53.37,30.174a1.883,1.883,0,0,1,.712,2.563l-42.036,74.352a1.869,1.869,0,0,1-1.134.887A1.892,1.892,0,0,1,406.589,330.5Z" transform="translate(-310.393 -221.764)" fill="#f2f2f2"/>
  <rect id="Rectangle_1534" data-name="Rectangle 1534" width="0.436" height="64.796" transform="matrix(0.492, -0.871, 0.871, 0.492, 81.524, 4.696)" fill="#fff"/>
  <rect id="Rectangle_1535" data-name="Rectangle 1535" width="0.436" height="64.796" transform="matrix(0.492, -0.871, 0.871, 0.492, 77.663, 11.525)" fill="#fff"/>
  <rect id="Rectangle_1536" data-name="Rectangle 1536" width="0.436" height="64.796" transform="matrix(0.492, -0.871, 0.871, 0.492, 73.803, 18.353)" fill="#fff"/>
  <rect id="Rectangle_1537" data-name="Rectangle 1537" width="0.436" height="64.796" transform="matrix(0.492, -0.871, 0.871, 0.492, 69.943, 25.181)" fill="#fff"/>
  <rect id="Rectangle_1538" data-name="Rectangle 1538" width="0.436" height="64.796" transform="matrix(0.492, -0.871, 0.871, 0.492, 66.082, 32.009)" fill="#fff"/>
  <rect id="Rectangle_1539" data-name="Rectangle 1539" width="0.436" height="64.796" transform="matrix(0.492, -0.871, 0.871, 0.492, 62.222, 38.838)" fill="#fff"/>
  <rect id="Rectangle_1540" data-name="Rectangle 1540" width="0.436" height="64.796" transform="matrix(0.492, -0.871, 0.871, 0.492, 58.361, 45.666)" fill="#fff"/>
  <rect id="Rectangle_1541" data-name="Rectangle 1541" width="0.436" height="64.796" transform="matrix(0.492, -0.871, 0.871, 0.492, 54.501, 52.494)" fill="#fff"/>
  <rect id="Rectangle_1542" data-name="Rectangle 1542" width="0.436" height="64.796" transform="matrix(0.492, -0.871, 0.871, 0.492, 50.64, 59.322)" fill="#fff"/>
  <rect id="Rectangle_1543" data-name="Rectangle 1543" width="0.436" height="64.796" transform="matrix(0.492, -0.871, 0.871, 0.492, 46.78, 66.151)" fill="#fff"/>
  <rect id="Rectangle_1544" data-name="Rectangle 1544" width="0.436" height="64.796" transform="matrix(0.492, -0.871, 0.871, 0.492, 42.92, 72.979)" fill="#fff"/>
  <path id="Path_4091" data-name="Path 4091" d="M308.42,220.586H223.126v118.6H308.42a1.155,1.155,0,0,0,1.155-1.155V221.741A1.155,1.155,0,0,0,308.42,220.586Zm-80.481,115.33a2.118,2.118,0,1,1,2.118-2.118,2.118,2.118,0,0,1-2.118,2.118Zm0-10.782a2.118,2.118,0,1,1,2.118-2.118,2.118,2.118,0,0,1-2.118,2.118Zm0-10.782a2.118,2.118,0,1,1,2.118-2.118A2.118,2.118,0,0,1,227.939,314.352Zm0-10.782a2.118,2.118,0,1,1,2.118-2.118,2.118,2.118,0,0,1-2.118,2.118Zm0-10.782a2.118,2.118,0,1,1,2.118-2.118,2.118,2.118,0,0,1-2.118,2.118Zm0-10.782a2.118,2.118,0,1,1,2.118-2.118,2.118,2.118,0,0,1-2.118,2.118Zm0-10.782a2.118,2.118,0,1,1,2.118-2.118,2.118,2.118,0,0,1-2.118,2.118Zm0-10.782a2.118,2.118,0,1,1,2.118-2.118,2.118,2.118,0,0,1-2.118,2.118Zm0-10.782a2.118,2.118,0,1,1,2.118-2.118,2.118,2.118,0,0,1-2.118,2.118Zm0-10.782a2.118,2.118,0,1,1,2.118-2.118,2.118,2.118,0,0,1-2.118,2.118Zm0-10.782a2.118,2.118,0,1,1,2.118-2.118,2.118,2.118,0,0,1-2.118,2.118Z" transform="translate(-217.542 -220.586)" fill="#3f3d56"/>
  <path id="Path_4092" data-name="Path 4092" d="M208.466,239.264c-.572,0-5.584-.027-5.584-.963s5.012-.963,5.584-.963v.385c-2.952,0-4.866.33-5.174.578.308.247,2.222.578,5.174.578s4.858-.329,5.172-.576a6.428,6.428,0,0,0-2.4-.469l.033-.384c2.781.24,2.781.684,2.781.851C214.05,239.237,209.037,239.264,208.466,239.264Z" transform="translate(-202.882 -232.718)" fill="#2f2e41"/>
  <path id="Path_4093" data-name="Path 4093" d="M208.466,277.657c-.572,0-5.584-.027-5.584-.963s5.012-.963,5.584-.963v.385c-2.952,0-4.866.33-5.174.578.308.247,2.222.578,5.174.578s4.858-.329,5.172-.576a6.427,6.427,0,0,0-2.4-.469l.033-.384c2.781.24,2.781.684,2.781.851C214.05,277.63,209.037,277.657,208.466,277.657Z" transform="translate(-202.882 -260.521)" fill="#2f2e41"/>
  <path id="Path_4094" data-name="Path 4094" d="M208.466,316.748c-.572,0-5.584-.027-5.584-.963s5.012-.963,5.584-.963v.385c-2.952,0-4.866.33-5.174.578.308.247,2.222.578,5.174.578s4.858-.329,5.172-.576a6.427,6.427,0,0,0-2.4-.469l.033-.384c2.781.24,2.781.684,2.781.851C214.05,316.721,209.037,316.748,208.466,316.748Z" transform="translate(-202.882 -288.83)" fill="#2f2e41"/>
  <path id="Path_4095" data-name="Path 4095" d="M208.466,355.839c-.572,0-5.584-.027-5.584-.963s5.012-.963,5.584-.963v.385c-2.952,0-4.866.33-5.174.578.308.247,2.222.578,5.174.578s4.858-.329,5.172-.576a6.427,6.427,0,0,0-2.4-.469l.033-.384c2.781.24,2.781.684,2.781.851C214.05,355.812,209.037,355.839,208.466,355.839Z" transform="translate(-202.882 -317.139)" fill="#2f2e41"/>
  <path id="Path_4096" data-name="Path 4096" d="M208.466,394.93c-.572,0-5.584-.027-5.584-.963s5.012-.963,5.584-.963v.385c-2.952,0-4.866.33-5.174.578.308.247,2.222.578,5.174.578s4.858-.329,5.172-.576a6.428,6.428,0,0,0-2.4-.469l.033-.384c2.781.24,2.781.684,2.781.851C214.05,394.9,209.037,394.93,208.466,394.93Z" transform="translate(-202.882 -345.448)" fill="#2f2e41"/>
  <path id="Path_4097" data-name="Path 4097" d="M208.466,434.021c-.572,0-5.584-.027-5.584-.963s5.012-.963,5.584-.963v.385c-2.952,0-4.866.33-5.174.578.308.247,2.222.578,5.174.578s4.858-.329,5.172-.576a6.428,6.428,0,0,0-2.4-.469l.033-.384c2.781.24,2.781.684,2.781.851C214.05,433.994,209.037,434.021,208.466,434.021Z" transform="translate(-202.882 -373.756)" fill="#2f2e41"/>
  <path id="Path_4098" data-name="Path 4098" d="M208.466,473.112c-.572,0-5.584-.027-5.584-.963s5.012-.963,5.584-.963v.385c-2.952,0-4.866.33-5.174.578.308.247,2.222.578,5.174.578s4.858-.329,5.172-.576a6.427,6.427,0,0,0-2.4-.469l.033-.384c2.781.24,2.781.684,2.781.851C214.05,473.085,209.037,473.112,208.466,473.112Z" transform="translate(-202.882 -402.065)" fill="#2f2e41"/>
  <path id="Path_4099" data-name="Path 4099" d="M208.466,512.2c-.572,0-5.584-.027-5.584-.963s5.012-.963,5.584-.963v.385c-2.952,0-4.866.33-5.174.578.308.247,2.222.578,5.174.578s4.858-.329,5.172-.576a6.429,6.429,0,0,0-2.4-.469l.033-.384c2.781.24,2.781.684,2.781.851C214.05,512.176,209.037,512.2,208.466,512.2Z" transform="translate(-202.882 -430.374)" fill="#2f2e41"/>
  <path id="Path_4100" data-name="Path 4100" d="M208.466,551.294c-.572,0-5.584-.027-5.584-.963s5.012-.963,5.584-.963v.385c-2.952,0-4.866.33-5.174.578.308.247,2.222.578,5.174.578s4.858-.329,5.172-.576a6.427,6.427,0,0,0-2.4-.469l.033-.384c2.781.24,2.781.684,2.781.851C214.05,551.267,209.037,551.294,208.466,551.294Z" transform="translate(-202.882 -458.683)" fill="#2f2e41"/>
  <path id="Path_4101" data-name="Path 4101" d="M208.466,590.385c-.572,0-5.584-.027-5.584-.963s5.012-.963,5.584-.963v.385c-2.952,0-4.866.33-5.174.578.308.247,2.222.578,5.174.578s4.858-.329,5.172-.576a6.428,6.428,0,0,0-2.4-.469l.033-.384c2.781.24,2.781.684,2.781.851C214.05,590.358,209.037,590.385,208.466,590.385Z" transform="translate(-202.882 -486.991)" fill="#2f2e41"/>
  <path id="Path_4102" data-name="Path 4102" d="M208.466,629.475c-.572,0-5.584-.027-5.584-.963s5.012-.963,5.584-.963v.385c-2.952,0-4.866.33-5.174.578.308.247,2.222.578,5.174.578s4.858-.329,5.172-.576a6.427,6.427,0,0,0-2.4-.469l.033-.384c2.781.24,2.781.684,2.781.851C214.05,629.448,209.037,629.475,208.466,629.475Z" transform="translate(-202.882 -515.3)" fill="#2f2e41"/>
  <path id="Path_4103" data-name="Path 4103" d="M354.69,334.931H312.332a1.253,1.253,0,0,1-1.251-1.251V317.121a1.253,1.253,0,0,1,1.251-1.252H354.69a1.253,1.253,0,0,1,1.251,1.252V333.68A1.253,1.253,0,0,1,354.69,334.931Z" transform="translate(-281.237 -289.588)" fill="#fff"/>
  <path id="Path_4104" data-name="Path 4104" d="M381.113,331.407H370.33a.963.963,0,1,1,0-1.925h10.782a.963.963,0,1,1,0,1.925Z" transform="translate(-323.447 -299.446)" fill="#2860b5"/>
  <path id="Path_4105" data-name="Path 4105" d="M371.41,348.859h-22.72a.963.963,0,0,1,0-1.925h22.72a.963.963,0,0,1,0,1.925Z" transform="translate(-307.776 -312.084)" fill="#2860b5"/>
  <path id="Path_4106" data-name="Path 4106" d="M371.41,366.31h-22.72a.963.963,0,0,1,0-1.925h22.72a.963.963,0,0,1,0,1.925Z" transform="translate(-307.776 -324.722)" fill="#2860b5"/>
  <path id="Path_4107" data-name="Path 4107" d="M820.979,319.863a3.193,3.193,0,0,0,2.494-5.188c-1.573-1.966-5.016-1.664-6.394-3.772-1.167-1.786-.089-4.238,1.465-5.7a10.252,10.252,0,0,1,17.2,8.689c-.189,1.579-.627,3.5.6,4.51,1.088.9,2.7.389,4.062.035a14.492,14.492,0,0,1,11.9,2.216,11.49,11.49,0,0,1,5.02,9.012c0,3.571-2.431,7.17-5.912,7.97-3.412.784-6.929-1.122-9.342-3.658s-4.071-5.69-6.27-8.413-5.243-5.122-8.743-5.185c-2.028-.037-4.248.677-5.969-.4" transform="translate(-647.313 -279.888)" fill="#2f2e41"/>
  <circle id="Ellipse_99" data-name="Ellipse 99" cx="6.774" cy="6.774" r="6.774" transform="translate(168.396 27.848)" fill="#ffb8b8"/>
  <path id="Path_4108" data-name="Path 4108" d="M785.4,474.369a2.774,2.774,0,0,1,2.312-3.57l2.069-9.637,3.589,3.655-2.515,8.591a2.789,2.789,0,0,1-5.454.961Z" transform="translate(-624.637 -394.806)" fill="#ffb8b8"/>
  <path id="Path_4109" data-name="Path 4109" d="M673.963,353.028l-3.323.623L660.62,320.743l7.112-.92Z" transform="translate(-478.406 -231.609)" fill="#ffb8b8"/>
  <path id="Path_4110" data-name="Path 4110" d="M4.106,0h6.522V4.106H0A4.106,4.106,0,0,1,4.106,0Z" transform="matrix(0.983, -0.184, 0.184, 0.983, 185.644, 122.297)" fill="#2f2e41"/>
  <path id="Path_4111" data-name="Path 4111" d="M619.828,366.621h-3.381l-.506-30.475h7.2Z" transform="translate(-446.051 -243.429)" fill="#ffb8b8"/>
  <path id="Path_4112" data-name="Path 4112" d="M598.236,443.13h6.522v4.106H594.13A4.106,4.106,0,0,1,598.236,443.13Z" transform="translate(-430.255 -320.905)" fill="#2f2e41"/>
  <path id="Path_4113" data-name="Path 4113" d="M804.819,431.6l.311-14.894c-.024-.21-2.466-22.774-3.377-28.539a9.1,9.1,0,0,1,3.9-8.893c.214-.088.408-.162.6-.233h0a12.814,12.814,0,0,1,13.388,2.721,13.242,13.242,0,0,1,3.736,13.429l-1.686,5.838c8.638,15.617,10.411,22.338,10.428,22.4l.005.02v.021c-.31,6.194-26.061,8.041-27.157,8.116Z" transform="translate(-636.485 -334.732)" fill="#2860b5"/>
  <path id="Path_4114" data-name="Path 4114" d="M587.695,183.616l-5.836,23.035L592.3,207.88Z" transform="translate(-421.369 -132.971)" fill="#2860b5"/>
  <path id="Path_4115" data-name="Path 4115" d="M856.921,447.685a2.774,2.774,0,0,1,3.691-2.114l6.255-7.617,1.515,4.893-6.173,6.483a2.789,2.789,0,0,1-5.288-1.645Z" transform="translate(-676.488 -377.999)" fill="#ffb8b8"/>
  <path id="Path_4116" data-name="Path 4116" d="M849.082,410.764l-5.445-3.523,5.182-5.487-14.052-4.277,3.615-10.532,4.447.635,11.305,8.374a6.85,6.85,0,0,1,1.47,9.479l-.025.026Z" transform="translate(-660.479 -341.06)" fill="#2860b5"/>
  <path id="Path_4117" data-name="Path 4117" d="M815.85,320.991a22.2,22.2,0,0,0,9.6,3.164l-1.012-1.213a7.438,7.438,0,0,0,2.3.456,2.517,2.517,0,0,0,2.051-.96,2.341,2.341,0,0,0,.157-2.162,4.433,4.433,0,0,0-1.395-1.744,8.3,8.3,0,0,0-7.729-1.381,4.963,4.963,0,0,0-2.308,1.481c-.583.72-1.856,1.367-1.557,2.244Z" transform="translate(-646.78 -290.219)" fill="#2f2e41"/>
  <path id="Path_4118" data-name="Path 4118" d="M774.7,677.69H690.771a.328.328,0,1,1,0-.657H774.7a.328.328,0,1,1,0,.657Z" transform="translate(-555.962 -551.135)" fill="#3f3d56"/>
</svg>
