<svg xmlns="http://www.w3.org/2000/svg" xmlns:xlink="http://www.w3.org/1999/xlink" width="207.973" height="155.604" viewBox="0 0 207.973 155.604">
  <defs>
    <linearGradient id="linear-gradient" x1="0.5" y1="1" x2="0.5" gradientUnits="objectBoundingBox">
      <stop offset="0" stop-color="gray" stop-opacity="0.251"/>
      <stop offset="0.54" stop-color="gray" stop-opacity="0.122"/>
      <stop offset="1" stop-color="gray" stop-opacity="0.102"/>
    </linearGradient>
  </defs>
  <g id="undraw_back_to_school_inwc" transform="translate(0.01 -0.005)">
    <ellipse id="Ellipse_98" data-name="Ellipse 98" cx="66.126" cy="3.579" rx="66.126" ry="3.579" transform="translate(42.053 148.45)" fill="#2860b5" opacity="0.1"/>
    <path id="Path_3932" data-name="Path 3932" d="M647.98,627.906l-.569.834-3.516,5.232-2.986.9-2.227-2.18.108-1.439.555-7.471s-13.781-8.108-15.014-9.624-5.971-2.891-5.971-2.891-7.251-3.365-9.952-9.241,4.5-6.777,4.5-6.777l27.06,25.879Z" transform="translate(-502.345 -489.909)" fill="#ffc1c7"/>
    <path id="Path_3933" data-name="Path 3933" d="M751.565,772.563l-8.578,8.009a32.14,32.14,0,0,1-9.336.284c-2.817-.425-2.275-1.97-1.534-3.033l.013-.019a3.116,3.116,0,0,1,1.827-1.2,7.385,7.385,0,0,0,4.906-3.52l2.654,2.275,4.6-5.357,3.4,1.6Z" transform="translate(-602.613 -631.532)" fill="#575988"/>
    <line id="Line_108" data-name="Line 108" y1="7.456" x2="8.565" transform="translate(138.337 140.161)" fill="#fff"/>
    <path id="Path_3934" data-name="Path 3934" d="M649.247,629.993l-2.019-.948.19-.288.569-.834-8.015-6.777-27.06-25.876s-7.2.9-4.5,6.773,9.952,9.241,9.952,9.241,4.739,1.374,5.971,2.891,15.023,9.62,15.023,9.62l-.555,7.471-.027.356-.176-.15a7.385,7.385,0,0,1-4.906,3.52,3.116,3.116,0,0,0-1.827,1.2l-.013.019c-.758,1.062-1.283,2.607,1.534,3.033a32.143,32.143,0,0,0,9.336-.284l8.578-8.009Z" transform="translate(-502.345 -489.925)" opacity="0.1"/>
    <path id="Path_3935" data-name="Path 3935" d="M63.3,469.55c3.291,14.066,10.257,26.224,21.265,32.122,22.882,12.25,74.484,5.931,112.994-1.327a88.178,88.178,0,0,0,50.148-28.668Z" transform="translate(-61.061 -388.037)" fill="#2860b5" opacity="0.1"/>
    <path id="Path_3936" data-name="Path 3936" d="M287.994,54.876H266.863a1.827,1.827,0,0,1,0-3.653h3.653a1.826,1.826,0,1,1,0-3.651h-2.608a1.827,1.827,0,0,1,0-3.653h11.029a29.18,29.18,0,0,0-8.6-2.371c-30.073-3.861-40.81-1.308-44.6,1.327a42.114,42.114,0,0,1-15.457,6.775c-18.555,3.827-53.255,8.432-84.705-1.475-15.632-4.929-27.248,3.4-34.213,17.3h200.3a32.638,32.638,0,0,0-2.481-11.04,1.822,1.822,0,0,1-1.187.438Z" transform="translate(-83.802 -39.57)" fill="#2860b5" opacity="0.1"/>
    <path id="Path_3937" data-name="Path 3937" d="M51.9,314.67a93.108,93.108,0,0,0,.819,24.541L238.238,346a87.117,87.117,0,0,0,12.89-19.658Zm73.377,17.5h-3.653a1.827,1.827,0,1,1,0,3.653H100.488a1.827,1.827,0,0,1,0-3.653h3.653a1.826,1.826,0,1,1,0-3.651h-2.608a1.827,1.827,0,0,1,0-3.653h21.131a1.827,1.827,0,0,1,0,3.653h2.608a1.826,1.826,0,1,1,0,3.651Z" transform="translate(-51.45 -262.517)" fill="#2860b5" opacity="0.1"/>
    <path id="Path_3938" data-name="Path 3938" d="M261.394,176.86,58.847,181.789A80.777,80.777,0,0,0,54,202.7H257.845a86.643,86.643,0,0,0,2.944-13.332A63.169,63.169,0,0,0,261.394,176.86ZM95.12,193H91.468a1.827,1.827,0,1,1,0,3.653H70.337a1.827,1.827,0,0,1,0-3.653H73.99a1.826,1.826,0,1,1,0-3.651H71.381a1.827,1.827,0,0,1,0-3.653H92.512a1.827,1.827,0,0,1,0,3.653H95.12a1.826,1.826,0,1,1,0,3.651Z" transform="translate(-53.524 -150.831)" fill="#2860b5" opacity="0.1"/>
    <g id="Group_467" data-name="Group 467" transform="translate(149.856 51.694)" opacity="0.1">
      <path id="Path_3939" data-name="Path 3939" d="M848.76,389.07s5.346-13.175,15.328-18.062a21.533,21.533,0,0,0,9.776-9.493,36.241,36.241,0,0,0,2.451-6.155" transform="translate(-847.482 -347.188)" fill="none" stroke="#535461" stroke-miterlimit="10" stroke-width="2"/>
      <path id="Path_3940" data-name="Path 3940" d="M999.736,317.3c-1.041,1.308-6.426,3.223-6.426,3.223s.648-5.677,1.689-6.985a3.033,3.033,0,1,1,4.739,3.769Z" transform="translate(-964.63 -312.249)" fill="#2860b5"/>
      <path id="Path_3941" data-name="Path 3941" d="M986.923,368.069c-1.585.533-7.143-.792-7.143-.792s3.63-4.413,5.215-4.946a3.033,3.033,0,1,1,1.928,5.738Z" transform="translate(-953.665 -352.654)" fill="#2860b5"/>
      <path id="Path_3942" data-name="Path 3942" d="M939.947,432.67c-1.636-.341-5.767-4.29-5.767-4.29s5.363-1.977,7-1.638a3.033,3.033,0,0,1-1.232,5.928Z" transform="translate(-916.709 -405.007)" fill="#2860b5"/>
      <path id="Path_3943" data-name="Path 3943" d="M886.2,472.183c-1.67-.057-6.409-3.253-6.409-3.253s4.951-2.855,6.621-2.8a3.033,3.033,0,1,1-.212,6.049Z" transform="translate(-872.63 -436.961)" fill="#2860b5"/>
      <path id="Path_3944" data-name="Path 3944" d="M952.455,356.09c.212,1.659,3.833,6.079,3.833,6.079s2.385-5.194,2.171-6.851a3.033,3.033,0,0,0-6,.772Z" transform="translate(-931.515 -345.169)" fill="#2860b5"/>
      <path id="Path_3945" data-name="Path 3945" d="M892.562,399.649c.7,1.517,5.478,4.654,5.478,4.654s.719-5.668.019-7.186a3.033,3.033,0,0,0-5.5,2.533Z" transform="translate(-882.818 -379.744)" fill="#2860b5"/>
      <path id="Path_3946" data-name="Path 3946" d="M842.079,455.641c.434,1.615,4.612,5.513,4.612,5.513s1.668-5.465,1.236-7.08a3.033,3.033,0,0,0-5.848,1.568Z" transform="translate(-842.018 -425.511)" fill="#2860b5"/>
      <path id="Path_3947" data-name="Path 3947" d="M999.736,317.3c-1.041,1.308-6.426,3.223-6.426,3.223s.648-5.677,1.689-6.985a3.033,3.033,0,1,1,4.739,3.769Z" transform="translate(-964.63 -312.249)" opacity="0.25"/>
      <path id="Path_3948" data-name="Path 3948" d="M986.923,368.069c-1.585.533-7.143-.792-7.143-.792s3.63-4.413,5.215-4.946a3.033,3.033,0,1,1,1.928,5.738Z" transform="translate(-953.665 -352.654)" opacity="0.25"/>
      <path id="Path_3949" data-name="Path 3949" d="M939.947,432.67c-1.636-.341-5.767-4.29-5.767-4.29s5.363-1.977,7-1.638a3.033,3.033,0,0,1-1.232,5.928Z" transform="translate(-916.709 -405.007)" opacity="0.25"/>
      <path id="Path_3950" data-name="Path 3950" d="M886.2,472.183c-1.67-.057-6.409-3.253-6.409-3.253s4.951-2.855,6.621-2.8a3.033,3.033,0,1,1-.212,6.049Z" transform="translate(-872.63 -436.961)" opacity="0.25"/>
      <path id="Path_3951" data-name="Path 3951" d="M952.455,356.09c.212,1.659,3.833,6.079,3.833,6.079s2.385-5.194,2.171-6.851a3.033,3.033,0,0,0-6,.772Z" transform="translate(-931.515 -345.169)" opacity="0.25"/>
      <path id="Path_3952" data-name="Path 3952" d="M892.562,399.649c.7,1.517,5.478,4.654,5.478,4.654s.719-5.668.019-7.186a3.033,3.033,0,0,0-5.5,2.533Z" transform="translate(-882.818 -379.744)" opacity="0.25"/>
      <path id="Path_3953" data-name="Path 3953" d="M842.079,455.641c.434,1.615,4.612,5.513,4.612,5.513s1.668-5.465,1.236-7.08a3.033,3.033,0,0,0-5.848,1.568Z" transform="translate(-842.018 -425.511)" opacity="0.25"/>
    </g>
    <g id="Group_468" data-name="Group 468" transform="translate(137.165 22.692)" opacity="0.1">
      <path id="Path_3954" data-name="Path 3954" d="M803.86,246.946s.675-14.2,8.472-22.124a21.542,21.542,0,0,0,6.076-12.2,36.268,36.268,0,0,0,.265-6.625" transform="translate(-798.402 -197.138)" fill="none" stroke="#535461" stroke-miterlimit="10" stroke-width="2"/>
      <path id="Path_3955" data-name="Path 3955" d="M882.756,163.091c-.548,1.581-5,5.168-5,5.168s-1.27-5.571-.724-7.15a3.033,3.033,0,0,1,5.719,1.983Z" transform="translate(-857.597 -159.253)" fill="#2860b5"/>
      <path id="Path_3956" data-name="Path 3956" d="M886.782,211.642c-1.327,1.027-7,1.623-7,1.623s1.962-5.368,3.279-6.4a3.033,3.033,0,0,1,3.723,4.773Z" transform="translate(-859.93 -197.416)" fill="#2860b5"/>
      <path id="Path_3957" data-name="Path 3957" d="M858.934,287.1c-1.657.222-6.864-2.134-6.864-2.134s4.4-3.643,6.066-3.865a3.033,3.033,0,0,1,.8,6Z" transform="translate(-837.473 -257.996)" fill="#2860b5"/>
      <path id="Path_3958" data-name="Path 3958" d="M822.924,341.711c-1.594.5-7.124-.948-7.124-.948s3.723-4.333,5.319-4.832a3.033,3.033,0,1,1,1.8,5.776Z" transform="translate(-808.079 -302.27)" fill="#2860b5"/>
      <path id="Path_3959" data-name="Path 3959" d="M846.523,215.46c.758,1.494,5.634,4.464,5.634,4.464s.525-5.687-.226-7.183a3.033,3.033,0,0,0-5.408,2.718Z" transform="translate(-832.783 -201.389)" fill="#2860b5"/>
      <path id="Path_3960" data-name="Path 3960" d="M804.442,276.39c1.164,1.2,6.711,2.574,6.711,2.574s-1.2-5.588-2.364-6.788a3.033,3.033,0,0,0-4.347,4.214Z" transform="translate(-798.284 -250.13)" fill="#2860b5"/>
      <path id="Path_3961" data-name="Path 3961" d="M775.482,346.074c.948,1.38,6.18,3.672,6.18,3.672s-.241-5.71-1.183-7.09a3.033,3.033,0,0,0-5,3.412Z" transform="translate(-775.068 -306.957)" fill="#2860b5"/>
    </g>
    <path id="Path_3962" data-name="Path 3962" d="M465.252,125.045s-4.517-.271-3.981,2.895a.772.772,0,0,0,.4.813s0-.235.463-.155a2.02,2.02,0,0,0,.491.025,1.026,1.026,0,0,0,.6-.248h0a3.584,3.584,0,0,0,1.763-2.6s.366-.453.351-.569l-.758.326a1.368,1.368,0,0,1,.055,1.007s-.025-.988-.171-.965c-.03,0-.4.19-.4.19a2.25,2.25,0,0,1,.11,1.655s.129-1.181-.25-1.585l-.536.313a2.373,2.373,0,0,1,.169,1.8,3.382,3.382,0,0,0-.281-1.721l-.487.379a2.306,2.306,0,0,1,.19,1.645s-.038-1.443-.3-1.551a2.97,2.97,0,0,0-.489.529s.336.709.127,1.082c0,0-.127-.961-.233-.965a3.184,3.184,0,0,0-.468,1.073,2.316,2.316,0,0,1,.366-1.137,1.283,1.283,0,0,0-.65.336s.066-.449.758-.489a2.95,2.95,0,0,1,.444-.512,2.745,2.745,0,0,0-1.1.127,1.233,1.233,0,0,1,1.223-.233l.482-.391a4,4,0,0,0-1.283.011,1.545,1.545,0,0,1,1.412-.1l.523-.313a4.691,4.691,0,0,0-1.226-.106,1.889,1.889,0,0,1,1.38.021l.379-.167s-.569-.11-.728-.129-.172-.063-.172-.063a1.949,1.949,0,0,1,1.056.118A4.421,4.421,0,0,0,465.252,125.045Z" transform="translate(-383.555 -108.834)" fill="#2860b5" opacity="0.1"/>
    <path id="Path_3963" data-name="Path 3963" d="M418.283,206.186s-1.543,4.256,1.644,4.644a.773.773,0,0,0,.895-.155s-.224-.074-.017-.487a2.027,2.027,0,0,0,.155-.464,1.026,1.026,0,0,0-.066-.646h0a3.58,3.58,0,0,0-1.992-2.428s-.332-.48-.447-.5l.1.823a1.372,1.372,0,0,1,.982.233s-.948-.256-.974-.11c0,.03.07.434.07.434a2.26,2.26,0,0,1,1.619.364s-1.1-.457-1.59-.21l.148.6a2.365,2.365,0,0,1,1.771.349,3.375,3.375,0,0,0-1.731-.22l.226.569a2.352,2.352,0,0,1,1.632.282s-1.393-.379-1.571-.154a2.923,2.923,0,0,0,.37.62s.773-.121,1.073.19c0,0-.957-.15-.991-.049a3.248,3.248,0,0,0,.895.758,2.307,2.307,0,0,1-.982-.671,1.278,1.278,0,0,0,.138.709s-.411-.19-.254-.861a3.052,3.052,0,0,1-.366-.569,2.8,2.8,0,0,0-.19,1.09,1.235,1.235,0,0,1,.125-1.24l-.239-.569a3.837,3.837,0,0,0-.353,1.232,1.559,1.559,0,0,1,.3-1.382l-.152-.59a4.773,4.773,0,0,0-.449,1.137,1.88,1.88,0,0,1,.413-1.316l-.055-.408s-.265.508-.33.662-.11.148-.11.148a1.962,1.962,0,0,1,.413-.98A4.588,4.588,0,0,0,418.283,206.186Z" transform="translate(-348.449 -174.568)" fill="#2860b5" opacity="0.1"/>
    <path id="Path_3964" data-name="Path 3964" d="M576.32,187.268s-1.545,4.254,1.643,4.642a.772.772,0,0,0,.893-.154s-.222-.074-.017-.489A2.041,2.041,0,0,0,579,190.8a1.007,1.007,0,0,0-.068-.645h0a3.585,3.585,0,0,0-1.992-2.43s-.33-.48-.445-.5l.095.825a1.365,1.365,0,0,1,.982.231s-.948-.256-.972-.108c0,.028.07.434.07.434a2.245,2.245,0,0,1,1.617.364s-1.094-.459-1.59-.21l.148.6a2.37,2.37,0,0,1,1.772.349,3.359,3.359,0,0,0-1.731-.218l.226.569a2.352,2.352,0,0,1,1.632.282s-1.393-.379-1.571-.155a2.983,2.983,0,0,0,.368.62s.775-.121,1.075.19c0,0-.959-.15-.991-.051a3.249,3.249,0,0,0,.895.758,2.32,2.32,0,0,1-.984-.673,1.273,1.273,0,0,0,.138.718s-.413-.19-.256-.863a2.992,2.992,0,0,1-.364-.569,2.749,2.749,0,0,0-.19,1.09,1.234,1.234,0,0,1,.127-1.24l-.241-.569a3.8,3.8,0,0,0-.351,1.234,1.563,1.563,0,0,1,.3-1.384l-.152-.59a4.727,4.727,0,0,0-.449,1.137,1.873,1.873,0,0,1,.411-1.316l-.055-.406s-.265.508-.328.66-.11.15-.11.15a1.941,1.941,0,0,1,.413-.98A4.8,4.8,0,0,0,576.32,187.268Z" transform="translate(-476.528 -159.235)" fill="#2860b5" opacity="0.1"/>
    <path id="Path_3965" data-name="Path 3965" d="M318.09,159.156s-1.545,4.256,1.643,4.642a.768.768,0,0,0,.893-.154s-.222-.074-.017-.487a2.134,2.134,0,0,0,.163-.464,1.025,1.025,0,0,0-.068-.646h0a3.585,3.585,0,0,0-1.992-2.43s-.33-.478-.445-.5l.095.823a1.372,1.372,0,0,1,.982.233s-.948-.258-.972-.11c0,.03.07.434.07.434a2.255,2.255,0,0,1,1.617.364s-1.1-.459-1.59-.21l.148.6a2.365,2.365,0,0,1,1.771.349,3.366,3.366,0,0,0-1.729-.22l.226.569a2.352,2.352,0,0,1,1.632.282s-1.4-.379-1.571-.155a2.985,2.985,0,0,0,.368.622s.775-.123,1.073.19c0,0-.957-.15-.991-.049a3.3,3.3,0,0,0,.9.758,2.3,2.3,0,0,1-.984-.673,1.273,1.273,0,0,0,.138.718s-.413-.19-.256-.861a2.96,2.96,0,0,1-.364-.569,2.758,2.758,0,0,0-.19,1.09,1.235,1.235,0,0,1,.125-1.24l-.239-.569a3.853,3.853,0,0,0-.353,1.234,1.559,1.559,0,0,1,.3-1.382l-.15-.591a4.724,4.724,0,0,0-.449,1.137,1.873,1.873,0,0,1,.411-1.316l-.055-.406s-.265.508-.328.662-.11.148-.11.148a1.949,1.949,0,0,1,.411-.98A4.248,4.248,0,0,0,318.09,159.156Z" transform="translate(-267.249 -136.454)" fill="#2860b5" opacity="0.1"/>
    <path id="Path_3966" data-name="Path 3966" d="M570.05,310.979s1.192,4.36,4.021,2.843a.772.772,0,0,0,.641-.641s-.224.066-.3-.391a2.044,2.044,0,0,0-.135-.472,1.029,1.029,0,0,0-.427-.489h0a3.594,3.594,0,0,0-3.033-.836s-.546-.2-.652-.15l.553.618a1.378,1.378,0,0,1,.935-.379s-.927.339-.857.47c.013.027.307.315.307.315a2.241,2.241,0,0,1,1.532-.635s-1.158.258-1.422.745l.47.409a2.368,2.368,0,0,1,1.647-.737s-1.2.311-1.539.819l.516.339a2.3,2.3,0,0,1,1.5-.711s-1.352.5-1.372.779a2.991,2.991,0,0,0,.66.3s.569-.546.982-.468c0,0-.868.428-.838.531a3.367,3.367,0,0,0,1.166.1,2.3,2.3,0,0,1-1.19.017,1.278,1.278,0,0,0,.525.508s-.447.082-.705-.557a2.954,2.954,0,0,1-.628-.256,2.764,2.764,0,0,0,.474,1,1.231,1.231,0,0,1-.612-1.084l-.521-.324a3.944,3.944,0,0,0,.423,1.211,1.56,1.56,0,0,1-.55-1.3l-.464-.394a4.783,4.783,0,0,0,.294,1.194,1.892,1.892,0,0,1-.421-1.314l-.281-.3s.076.569.114.73,0,.19,0,.19a1.951,1.951,0,0,1-.229-1.039A4.677,4.677,0,0,0,570.05,310.979Z" transform="translate(-471.749 -259.41)" fill="#2860b5" opacity="0.1"/>
    <path id="Path_3967" data-name="Path 3967" d="M333.832,227.048a10.374,10.374,0,0,0,1.363,1.312l3.693,3.147a6.491,6.491,0,0,0,2.161,1.4,3.382,3.382,0,0,0,2.95-.453l-.063-.021.063-.042a5.569,5.569,0,0,1-1.776-.813,2,2,0,0,1-.781-1.327h0v-.078a1.382,1.382,0,0,1,.021-.214,4.7,4.7,0,0,0,2.224-.783l-.064-.023.064-.04a6.574,6.574,0,0,1-3.949-4.432,22.462,22.462,0,0,1-.686-6.081,14.934,14.934,0,0,0-1.1-6,9.844,9.844,0,0,1-.919-2.1,3.269,3.269,0,0,1-.063-.677,9.035,9.035,0,0,1,.421-2.176,45.366,45.366,0,0,0,1.039-4.836,11.343,11.343,0,0,0,.169-1.753,4.506,4.506,0,0,0-.271-1.685c-.868-2.256-3.886-3.319-4.347-5.687a4.98,4.98,0,0,1-.068-.965v-.531c0-.176,0-.379-.015-.554a9.124,9.124,0,0,0-2.157-4.464,12.282,12.282,0,0,0-4.305-4.184,10.239,10.239,0,0,0-5.044-.749,13.124,13.124,0,0,0-2.5-1.7,11.268,11.268,0,0,0-4.1-1.6c-1.829-.2-3.638.5-5.473.618-2.495.161-4.944-.758-7.439-.948s-5.367.65-6.481,3.162a6.029,6.029,0,0,0-.47,1.92h0c-.011.127-.019.252-.025.379v.013a11.925,11.925,0,0,0,.044,1.537v.059a2.812,2.812,0,0,0,.03.307.286.286,0,0,0,.009.089,2.415,2.415,0,0,0,.032.284l.011.089c.015.119.032.239.047.358a3.813,3.813,0,0,0,.157.724,1.362,1.362,0,0,0,.2.379,1.6,1.6,0,0,0,1.1.512l.332.047c-.034.068-.07.136-.1.207a11.785,11.785,0,0,0-1.137,5.075,12,12,0,0,0,10.183,11.806l.347.432a58.844,58.844,0,0,1,6.066,8.784c-1.467,1.822-3.185,5.052-3.674,10.47l-.726,1.695c-1.522,2.189-1.915,5.348-1.522,8.286-.428,1.589-.917,3.585-1.257,5.236-2.523-.559-11.135-1.943-13.171-3.287l-5.971-2.813s-7.772-5.429-11.954-3.617a33.546,33.546,0,0,0-5.048-4.8c-1.782-1.336-6.214-6.557-6.214-6.557l-6.944-9.217a4.885,4.885,0,0,0-.425-2.371c-.819-1.1-5.154-3.528-6.021-3s-1.59-1.137-1.59-1.137l-.066-.036c-.163-.095-.626-.356-1.268-.7a16.846,16.846,0,0,1,.057-2.307c.013-.129.03-.258.049-.379a10.568,10.568,0,0,0,9.888-8.064c.03-.119.051-.243.076-.364a1.863,1.863,0,0,0,1.75-.508,2.8,2.8,0,0,0,.44-2.519,23.564,23.564,0,0,1-.663-2.576c-.119-1.2.305-2.464-.085-3.6a4,4,0,0,0-2.114-2.136c-.921-.461-1.93-.73-2.872-1.149-.9-.4-1.735-.933-2.667-1.247a11.015,11.015,0,0,0-3.791-.392,9.575,9.575,0,0,0-2.483-.73,3.536,3.536,0,0,0-2.713.707c-.569.5-1.031,1.314-1.8,1.34a2.329,2.329,0,0,1-1.058-.336,3.085,3.085,0,0,0-3.033-.11,3.13,3.13,0,0,0-1.067,2.21,7.185,7.185,0,0,1-.542,2.451,10.637,10.637,0,0,1-.938,1.249,5.368,5.368,0,0,0-1.048,3.689v.038c-.045-.19-.089-.366-.121-.552a3.1,3.1,0,0,0,.019.419,10.787,10.787,0,0,0,.423,1.917l.785,2.749a16.149,16.149,0,0,0,1.564,4.053,6.674,6.674,0,0,0,1.063,1.336,4.912,4.912,0,0,0,2.383,1.382,3.053,3.053,0,0,0,.974.059.628.628,0,0,1-.017.118c-.07-.013-.142-.028-.209-.038a2.025,2.025,0,0,0-.931.025,3.64,3.64,0,0,0-2.085,2.79c-.03.163-.04.262-.04.262s.025.095.053.256l-.013.055c-.03.161-.04.262-.04.262s.025.095.053.26l-.391.009-6.531.853a14.946,14.946,0,0,0-3.672.055,1.516,1.516,0,0,0-.19.055c-.948.328-5.291,3.325-9.188,6.083a1.426,1.426,0,0,0-.011-.222l-1.109.789v.229c-.277.19-.552.391-.817.582-1.192.853-2.275,1.623-3.08,2.212-.982.705-1.59,1.151-1.59,1.151a1.15,1.15,0,0,0-.6.673c-.307.711-.413,2.14.7,4.953a38.8,38.8,0,0,1,2.407,8.392,6.032,6.032,0,0,0-1.564.379,2.831,2.831,0,0,0-1.7,1.517,2.61,2.61,0,0,0-.013,1.687c.914,3.242,16.039,21.648,16.039,21.648l.19.017a13.289,13.289,0,0,0,2.332,0,2.655,2.655,0,0,0,1.672-.6,6.286,6.286,0,0,0,8.278,1.372c-.034,3.905-.133,6.769.487,8.212.965,2.241.965,7.342.965,7.342l.917.032c-.049.19-.1.379-.163.569-.423,1.4-1.046,3.086-1.706,3.49-1.111.682-.584,12.413-.538,13.425h0v.061l-.064,4.739v.379a4.591,4.591,0,0,1-.37-.584,7.626,7.626,0,0,0-1.818,5.308,34.573,34.573,0,0,0,.032,3.723s7.2-.279,8.555.218,12.655-.432,12.655-.432a1.662,1.662,0,0,0-.787-1.924,10.975,10.975,0,0,0,5.247-1.4c2.7-1.951-5.45-3.471-6.019-3.78s-3.386-2.794-4.55-3.725a2.366,2.366,0,0,0-1.2-.447l.146-4.248c1.735-1.954,3.613-12.731,3.613-12.731a4.46,4.46,0,0,0,.991-2.517,1.154,1.154,0,0,0,.79-1.06h0c1.985.066,4.481.051,4.961-.425.819-.811.722-3.577.722-3.577l-1.156-29.276-.076-.112a14.6,14.6,0,0,0,.011-4.042c2.6.741,4.618,1.245,4.618,1.245s3.909.72,6.652,1.327a4.483,4.483,0,0,0-.993,1.668c-2.464,7.014,11.512,6.724,11.512,6.724l6.6,3.052,15.533,5.077c-4.991-1.473-10.693-3.206-14.574-4.394a10.2,10.2,0,0,0-1.164-.282,9.9,9.9,0,0,0-9.526,3.513c-.027.036-.051.068-.08.1a4.17,4.17,0,0,0-.1,4.95c.593.84,1.388,1.956,2.318,3.255-1.97.6-5.228,2.254-3.247,6.519,2.745,5.913,10.113,9.289,10.113,9.289s4.817,1.384,6.066,2.91a22.4,22.4,0,0,0,3.479,2.523,9.009,9.009,0,0,0,2.557,2.165c2.112.7,6.223,4.034,9.116,6.538l-.434,5.983-.028.36-.178-.152a7.505,7.505,0,0,1-4.987,3.543,3.175,3.175,0,0,0-1.856,1.209l-.013.017-.11.159-.083-.063c-.758,1.067-1.111,2.622,1.752,3.05a32.914,32.914,0,0,0,9.478-.286l4.466-4.129a4.386,4.386,0,0,0,1.706.885c3.338.758,12.714,4.387,12.714,4.387,0-1.018,8.286-14.113,8.286-14.113,11.184-21.171-.978-36.992-2.322-38.639l-.119-.144-.1-1.759-.023-.4s6.036-2.669,3.723-3.939-3.6-7.376-5.78-9.918c-1.706-1.983-1.608-6.585-1.788-10.508a6.314,6.314,0,0,0,1.226,2.654c.013.017.028.03.042.047l-.161-.14A1.947,1.947,0,0,0,333.832,227.048Zm-74.372-1.626a26.708,26.708,0,0,0,3.033,2.584c-1.077-.525-1.915-.969-2.561-1.327C259.781,226.258,259.621,225.837,259.46,225.422Zm-22.992-19.838a3.133,3.133,0,0,1-.976,1.424l-.379-1.636C235.609,205.451,236.072,205.525,236.468,205.584Zm75.765,44.948c.15-.322.305-.639.463-.948a3.554,3.554,0,0,0,1.685-1.172,24.058,24.058,0,0,1,.732,3.5V252a5.338,5.338,0,0,1-.214,1.408c-.174.554-.493,1.075-1.071,1.137a21.147,21.147,0,0,1-3.2-.745c-.514-.14-1.079-.3-1.681-.468C309.894,253.267,311.21,252.734,312.233,250.532Zm14.833-40a3.126,3.126,0,0,0-2-1.147c-.165-.11-.421-.284-.747-.521-1.592-1.166-4.771-3.791-6.229-7.145a8.027,8.027,0,0,0,1.187-.434,8.582,8.582,0,0,0,1.676-1.014c.174-.137.345-.279.508-.427A8.848,8.848,0,0,0,322.6,198.6c.135-.19.265-.37.379-.569a8.731,8.731,0,0,0,.5-.906,11.294,11.294,0,0,0,.794-2.275c.074-.315.138-.635.19-.957s.1-.646.136-.972a27.452,27.452,0,0,0,.135-3.463v-.227h0a16.945,16.945,0,0,0-.379-3.486c.085.032.171.064.252.1a2.553,2.553,0,0,1,.39.237c-.03-.044-.064-.087-.1-.131a4.924,4.924,0,0,1,1.327,1.465,20.922,20.922,0,0,1,2.244,17.893,10.689,10.689,0,0,0-.682,2.478c-.267,3.054,2.654,5.384,3.74,8.254a14.961,14.961,0,0,1,.7,4.61c-.819-3.994-3.812-7.926-5.164-10.115Z" transform="translate(-179.252 -150.885)" fill="url(#linear-gradient)"/>
    <path id="Path_3968" data-name="Path 3968" d="M397.74,663.653s-.142,2.37-1.043,3.128c0,0-1.848,10.71-3.554,12.653l-.284,1.09-7.109-.806,1.422-9.478,1.327-8.72Z" transform="translate(-322.386 -543.616)" fill="#ffc1c8"/>
    <path id="Path_3969" data-name="Path 3969" d="M397.74,663.653s-.142,2.37-1.043,3.128c0,0-1.848,10.71-3.554,12.653l-.284,1.09-7.109-.806,1.422-9.478,1.327-8.72Z" transform="translate(-322.386 -543.616)" opacity="0.03"/>
    <path id="Path_3970" data-name="Path 3970" d="M341.458,712.4l3.063-.135-.163,4.823-2.345,1.571-4.224-.925,1.541-6.445Z" transform="translate(-273.765 -576.45)" fill="#ff748f"/>
    <path id="Path_3971" data-name="Path 3971" d="M341.458,712.4l3.063-.135-.163,4.823-2.345,1.571-4.224-.925,1.541-6.445Z" transform="translate(-273.765 -576.45)" opacity="0.03"/>
    <path id="Path_3972" data-name="Path 3972" d="M398.714,778.39s2.406-.709,3.547.216,3.916,3.391,4.472,3.7,8.565,1.82,5.92,3.761-9.435,1.388-9.435,1.388-4.442-1.3-4.565-1.357-2.844-1.388-2.929-1.48.77-6.256.77-6.256Z" transform="translate(-330.465 -638.121)" fill="#5d618c"/>
    <path id="Path_3973" data-name="Path 3973" d="M398.714,778.39s2.406-.709,3.547.216,3.916,3.391,4.472,3.7,8.565,1.82,5.92,3.761-9.435,1.388-9.435,1.388-4.442-1.3-4.565-1.357-2.844-1.388-2.929-1.48.77-6.256.77-6.256Z" transform="translate(-330.465 -638.121)" opacity="0.03"/>
    <path id="Path_3974" data-name="Path 3974" d="M245.13,347.9l-.142,8.811-.322,18.8-.19.165c-5.64,4.881-9.62-.284-9.62-.284a2.586,2.586,0,0,1-1.645.6,12.864,12.864,0,0,1-2.294,0l-.19-.017s-14.885-18.306-15.785-21.529a2.627,2.627,0,0,1,.013-1.676,2.806,2.806,0,0,1,1.67-1.5,5.891,5.891,0,0,1,1.539-.379,38.949,38.949,0,0,0-2.37-8.341c-1.092-2.8-.986-4.216-.684-4.929a1.141,1.141,0,0,1,.59-.669s.6-.442,1.564-1.137c.8-.586,1.858-1.352,3.033-2.2l1.09-.781c4.021-2.885,8.866-6.282,9.857-6.635a1.443,1.443,0,0,1,.19-.055c2.034-.491,8.86.529,8.86.529Z" transform="translate(-183.851 -271.703)" fill="#2860b5"/>
    <path id="Path_3975" data-name="Path 3975" d="M313.695,347.919l-.142,8.811c-6.743-1.989-13.012-15.165-13.838-16.2-.707-.9.019-10.951.286-14.367,2.034-.491,8.86.529,8.86.529Z" transform="translate(-252.416 -271.719)" fill="none"/>
    <path id="Path_3976" data-name="Path 3976" d="M313.695,347.919l-.142,8.811c-6.743-1.989-13.012-15.165-13.838-16.2-.707-.9.019-10.951.286-14.367,2.034-.491,8.86.529,8.86.529Z" transform="translate(-252.416 -271.719)" opacity="0.1"/>
    <path id="Path_3977" data-name="Path 3977" d="M589.1,349.162s-5.26,2.7-5.924,13.317a51.286,51.286,0,0,1-1.327,6.35c-.474.948-2.749,9.9-2.464,10.995,0,0-.474,1.09-2.227.616s-11.232-1.943-13.364-3.365l-5.876-2.8s-11.469-8.1-13.886-1.137,11.326,6.686,11.326,6.686l6.493,3.033,19.667,6.489s2.607,1.185,4.36-2.607a44.489,44.489,0,0,1,3.981-6.824s3.981-11.184,3.933-13.08,4.265-6.4,4.265-6.4.853-11.943-6.161-11.706Z" transform="translate(-450.432 -290.122)" fill="#ffc1c7"/>
    <path id="Path_3978" data-name="Path 3978" d="M589.1,349.162s-5.26,2.7-5.924,13.317a51.286,51.286,0,0,1-1.327,6.35c-.474.948-2.749,9.9-2.464,10.995,0,0-.474,1.09-2.227.616s-11.232-1.943-13.364-3.365l-5.876-2.8s-11.469-8.1-13.886-1.137,11.326,6.686,11.326,6.686l6.493,3.033,19.667,6.489s2.607,1.185,4.36-2.607a44.489,44.489,0,0,1,3.981-6.824s3.981-11.184,3.933-13.08,4.265-6.4,4.265-6.4.853-11.943-6.161-11.706Z" transform="translate(-450.432 -290.122)" opacity="0.03"/>
    <path id="Path_3979" data-name="Path 3979" d="M469.644,399.64a9.155,9.155,0,0,0,1.611,1.016s4.36,5.188,6.113,6.515,7.488,6.4,6.328,8.318-2.464,1.492-2.464,1.492l-10.261-7.109s-3.6-2.582-4.335-3.814A28.5,28.5,0,0,1,465,402.247Z" transform="translate(-386.613 -331.379)" fill="#ffc1c8"/>
    <path id="Path_3980" data-name="Path 3980" d="M469.644,399.64a9.155,9.155,0,0,0,1.611,1.016s4.36,5.188,6.113,6.515,7.488,6.4,6.328,8.318-2.464,1.492-2.464,1.492l-10.261-7.109s-3.6-2.582-4.335-3.814A28.5,28.5,0,0,1,465,402.247Z" transform="translate(-386.613 -331.379)" opacity="0.03"/>
    <path id="Path_3981" data-name="Path 3981" d="M399.065,313.32l7.368,9.88-6.635,2.584-2.749-8.271Z" transform="translate(-321.791 -253.922)" fill="#dce6f2"/>
    <path id="Path_3982" data-name="Path 3982" d="M399.065,313.32l7.368,9.88-6.635,2.584-2.749-8.271Z" transform="translate(-321.791 -253.922)" opacity="0.03"/>
    <path id="Path_3983" data-name="Path 3983" d="M445.14,485.77l1.327,1.943,1.137,29.1s.095,2.749-.711,3.554-7.393.284-7.393.284.237-29.667.332-30.236S445.14,485.77,445.14,485.77Z" transform="translate(-365.947 -401.182)" fill="#575988"/>
    <path id="Path_3984" data-name="Path 3984" d="M445.14,485.77l1.327,1.943,1.137,29.1s.095,2.749-.711,3.554-7.393.284-7.393.284.237-29.667.332-30.236S445.14,485.77,445.14,485.77Z" transform="translate(-365.947 -401.182)" opacity="0.1"/>
    <path id="Path_3985" data-name="Path 3985" d="M373.857,669.664a24.045,24.045,0,0,1-1.517,3.079s-1.232,7.031-1.757,7.679c-.379.474-.554,4.011-.616,5.856-.023.667-.032,1.113-.032,1.113l-7.245,3.454-.032-4.565v-.061h0c-.046-1.007-.569-12.665.529-13.344.645-.4,1.259-2.085,1.674-3.467.317-1.067.516-1.96.516-1.96s8.049-.523,8.72.339C374.343,668.094,374.172,668.841,373.857,669.664Z" transform="translate(-303.538 -548.293)" fill="#ffc1c8"/>
    <path id="Path_3986" data-name="Path 3986" d="M383.928,669.623c-3.264-.068-7.355-.207-9.008-.265.317-1.067.516-1.96.516-1.96s8.049-.523,8.72.339C384.413,668.054,384.243,668.8,383.928,669.623Z" transform="translate(-313.609 -548.252)" opacity="0.1"/>
    <path id="Path_3987" data-name="Path 3987" d="M364.319,451.315s-2.227,11.848-1.8,19.478-.332,13.266.616,15.5.948,7.3.948,7.3,12.89.474,14.217.284,1.28-1.185,1.28-1.185-.9-7.871-.047-10.335.711-10,.711-10l3.6-12.132s1.09-5.45-1.185-7.677S364.319,451.315,364.319,451.315Z" transform="translate(-303.514 -373.078)" fill="#575988"/>
    <path id="Path_3988" data-name="Path 3988" d="M603.98,642.906l-.569.834-3.516,5.232-2.986.9-2.227-2.18.108-1.439.555-7.471s-13.781-8.108-15.014-9.624-5.971-2.891-5.971-2.891-7.251-3.365-9.952-9.241,4.5-6.777,4.5-6.777l27.06,25.879Z" transform="translate(-466.686 -502.065)" fill="#ffc1c7"/>
    <path id="Path_3989" data-name="Path 3989" d="M684.029,744.179l-3.516,5.232-2.986.9-2.227-2.18.108-1.439,2.451,2.1,4.6-5.355Z" transform="translate(-547.294 -602.506)" opacity="0.1"/>
    <path id="Path_3990" data-name="Path 3990" d="M707.565,787.563l-8.578,8.009a32.142,32.142,0,0,1-9.336.284c-2.817-.425-2.275-1.97-1.534-3.033l.013-.019a3.117,3.117,0,0,1,1.827-1.2,7.385,7.385,0,0,0,4.906-3.52l2.654,2.275,4.6-5.357,3.4,1.6Z" transform="translate(-566.954 -643.689)" fill="#575988"/>
    <path id="Path_3991" data-name="Path 3991" d="M707.052,794.891l-8.578,8.013a32.142,32.142,0,0,1-9.336.284c-2.817-.425-2.464-1.97-1.723-3.033a5.877,5.877,0,0,0,2.955,1.23,47.2,47.2,0,0,0,6.066,0L705,793.93Z" transform="translate(-566.441 -650.926)" fill="#fff"/>
    <path id="Path_3992" data-name="Path 3992" d="M378.825,282.64c-.7.349-1.018,1.426-1.147,2.654a22.677,22.677,0,0,0,.135,4.622s-9.478-2.591-8.466-3.1c.582-.29.891-2.4,1.048-4.14.118-1.285.152-2.368.152-2.368S380.72,281.692,378.825,282.64Z" transform="translate(-309.031 -234.67)" fill="#ffc1c8"/>
    <path id="Path_3993" data-name="Path 3993" d="M728.506,291.353s-11.5,10.868-11.122,7.71a3.842,3.842,0,0,0-.4-1.767c-1.063-2.563-4-6.542-6.3-9.452-1.687-2.134-3.033-3.695-3.033-3.695s14.284-12.005,13.146-5.181a8.188,8.188,0,0,0,.624,4.584c1.424,3.352,4.578,5.988,6.153,7.152C728.142,291.124,728.506,291.353,728.506,291.353Z" transform="translate(-583.265 -231.883)" fill="#ffc1c7"/>
    <path id="Path_3994" data-name="Path 3994" d="M719.233,281.052c-.207.256-.972,1.154-1.2,1.391-2.161,2.25-2.449,5.5-5.814,5.5a11.812,11.812,0,0,1-1.517-.1c-1.687-2.134-3.033-3.695-3.033-3.695s14.28-12.005,13.143-5.181C720.543,280.588,718.633,279.634,719.233,281.052Z" transform="translate(-583.281 -231.883)" opacity="0.1"/>
    <path id="Path_3995" data-name="Path 3995" d="M692.75,219.818a11.833,11.833,0,1,1-3.466-8.413A11.88,11.88,0,0,1,692.75,219.818Z" transform="translate(-551.934 -176.019)" fill="#ffc1c7"/>
    <path id="Path_3996" data-name="Path 3996" d="M768.42,350s-11.5,10.868-11.122,7.71a3.842,3.842,0,0,0-.4-1.767l1.662-3.92a11.247,11.247,0,0,1,7.357-2.787,10.7,10.7,0,0,1,1.473.1l.095.015C768.056,349.775,768.42,350,768.42,350Z" transform="translate(-623.179 -290.534)" opacity="0.1"/>
    <path id="Path_3997" data-name="Path 3997" d="M628.722,431.242s-8.151,13.016-8.151,14.028c0,0-9.226-3.6-12.511-4.36s-6.383-7.645-6.383-7.645-8.72-8.216-12.132-9.353c-2.895-.965-16.8-20.587-20.949-26.507a4.17,4.17,0,0,1,.1-4.919l.078-.1a9.685,9.685,0,0,1,9.372-3.492,9.792,9.792,0,0,1,1.137.281c5.968,1.844,16.3,5.014,21.516,6.445a21.893,21.893,0,0,0,3.147.741c.569-.059.881-.569,1.054-1.128a5.361,5.361,0,0,0,.21-1.4v-.085a24.048,24.048,0,0,0-.751-3.564c-.609-2.085-1.662-4.533-3.412-5.7-1.452-.969-2.607-3.105-3.211-5.588-.813-3.353-.626-7.344,1.189-9.956l1.753-4.136,2.933-6.919,1.634-3.856a11.247,11.247,0,0,1,7.357-2.787,10.7,10.7,0,0,1,1.473.1,3.818,3.818,0,0,1,2.8,1.295c1.39,2.275,4.55,6.445,5.181,10.616s-.125,10.995,2.023,13.524,3.412,8.593,5.687,9.857-3.664,3.916-3.664,3.916l.023.4.1,1.75s.042.047.118.142C627.76,394.478,639.716,410.2,628.722,431.242Z" transform="translate(-469.959 -292.154)" fill="#ff6584"/>
    <path id="Path_3998" data-name="Path 3998" d="M785.372,562.627c-2.491.521-7.939,1.657-10.369,2.155l-.427.087c-.142.028-.3.055-.474.08a79.406,79.406,0,0,1-10.163.072,5.361,5.361,0,0,0,.21-1.4v-.085a80.082,80.082,0,0,0,9.962-1.238c.305-.063.607-.129.9-.19.425-.1.838-.2,1.232-.313a33.159,33.159,0,0,1,8.91-1.054l.1,1.75S785.287,562.532,785.372,562.627Z" transform="translate(-628.885 -461.941)" fill="#575988"/>
    <path id="Path_3999" data-name="Path 3999" d="M818.4,567.92v2.68l-.427.087c-.142.028-.3.055-.474.08v-2.643C817.805,568.055,818.107,567.988,818.4,567.92Z" transform="translate(-672.291 -467.759)" fill="#ff6584"/>
    <path id="Path_4000" data-name="Path 4000" d="M753.659,595s-5.071,11.611-8.151,12.748-10.758,5.166-10.758,5.166a6.615,6.615,0,0,0,9-.379C748.351,608.27,754.986,596.9,753.659,595Z" transform="translate(-605.228 -489.706)" opacity="0.1"/>
    <path id="Path_4001" data-name="Path 4001" d="M861.859,586.77s.474,4.407-.19,5.213S861.859,586.77,861.859,586.77Z" transform="translate(-707.883 -483.036)" opacity="0.1"/>
    <path id="Path_4002" data-name="Path 4002" d="M834.892,602s2.559,26.823-10.142,26.966C824.75,628.969,836.645,617.165,834.892,602Z" transform="translate(-678.167 -495.379)" opacity="0.1"/>
    <path id="Path_4003" data-name="Path 4003" d="M890.387,636s3.649,14.075-1.137,15.687A35.7,35.7,0,0,0,890.387,636Z" transform="translate(-730.44 -522.934)" opacity="0.1"/>
    <path id="Path_4004" data-name="Path 4004" d="M741.008,617c-.237,0-9.857,1.659-7.772,2.986S741.008,617,741.008,617Z" transform="translate(-603.761 -507.536)" opacity="0.1"/>
    <path id="Path_4005" data-name="Path 4005" d="M810.5,516.77s7.867,6.966,6.35,7.725" transform="translate(-666.618 -426.306)" opacity="0.1"/>
    <path id="Path_4006" data-name="Path 4006" d="M807,528.52s4.55,5.592,4.028,5.924" transform="translate(-663.782 -435.828)" opacity="0.1"/>
    <path id="Path_4007" data-name="Path 4007" d="M858.25,524s2.085,2.607,1.753,3.175" transform="translate(-705.317 -432.165)" opacity="0.1"/>
    <path id="Path_4008" data-name="Path 4008" d="M869.25,516.77s2.986,2.318,2.322,3.223" transform="translate(-714.231 -426.306)" opacity="0.1"/>
    <path id="Path_4009" data-name="Path 4009" d="M748.32,367.77s9.715.758,9.289,8.578-7.677,9.81-7.677,9.81l-9.431-2.7S744.718,368.291,748.32,367.77Z" transform="translate(-609.888 -305.551)" fill="#ffc1c7"/>
    <path id="Path_4010" data-name="Path 4010" d="M623.335,550.151c5.968,1.844,16.3,5.014,21.516,6.445a2.757,2.757,0,0,1-2.224.123L622.96,550.23l-.77-.36A9.787,9.787,0,0,1,623.335,550.151Z" transform="translate(-514.005 -453.131)" opacity="0.1"/>
    <path id="Path_4011" data-name="Path 4011" d="M740.813,386.469c-.923,1.232-1.736,2.559-1.706,3.389a19.85,19.85,0,0,1-.906,3.922,65.561,65.561,0,0,1-5.5,13.027c-.609-2.085-1.662-4.532-3.412-5.7-1.452-.969-2.606-3.105-3.211-5.588a32.869,32.869,0,0,1,1.079-3.668,51.285,51.285,0,0,0,1.327-6.35,28.392,28.392,0,0,1,.536-4.074,17.169,17.169,0,0,1,2.933-6.919,8.189,8.189,0,0,1,2.464-2.324l2.8-.427c3.223-.108,4.777,2.343,5.526,5.029A11.238,11.238,0,0,1,740.813,386.469Z" transform="translate(-598.201 -308.778)" opacity="0.1"/>
    <path id="Path_4012" data-name="Path 4012" d="M573.1,368.21s-5.26,2.7-5.924,13.317a51.285,51.285,0,0,1-1.327,6.35c-.474.948-2.749,9.9-2.464,10.995,0,0-.474,1.09-2.227.616s-11.232-1.943-13.364-3.365l-5.877-2.8s-11.469-8.1-13.886-1.137,11.327,6.686,11.327,6.686l6.493,3.033,19.667,6.489s2.607,1.185,4.36-2.607c.438-.948.906-1.848,1.363-2.667a65.9,65.9,0,0,0,5.651-13.3,19.162,19.162,0,0,0,.906-3.922c-.021-.83.794-2.159,1.706-3.389a11.174,11.174,0,0,0,1.915-9.687c-.749-2.686-2.311-5.137-5.526-5.027Z" transform="translate(-437.465 -305.568)" fill="#ffc1c7"/>
    <path id="Path_4013" data-name="Path 4013" d="M383.63,282.607c-.7.349-1.018,1.426-1.147,2.654h-.37a10.369,10.369,0,0,1-6.913-2.624c.118-1.285.152-2.368.152-2.368S385.526,281.66,383.63,282.607Z" transform="translate(-313.836 -234.638)" opacity="0.1"/>
    <path id="Path_4014" data-name="Path 4014" d="M377.522,205.026A10.426,10.426,0,1,1,367.1,194.6,10.426,10.426,0,0,1,377.522,205.026Z" transform="translate(-298.819 -165.208)" fill="#ffc1c8"/>
    <path id="Path_4015" data-name="Path 4015" d="M368.335,334.654s-5.45,2.18-7.156,2.938-11.469-1-11.469-1-5.071-2.559-4.644-5.118-4.076-10.944-4.076-10.944-.142-7.44,1.848-8.862,1.232-4.407,1.232-4.407.009-.1.04-.26a3.58,3.58,0,0,1,2.045-2.773,1.96,1.96,0,0,1,.916-.025,23.77,23.77,0,0,1,5.666,2.241c1.592.806,2.91,1.554,3.211,1.729l.064.036s.711,1.659,1.564,1.137,5.118,1.9,5.924,2.986.237,6.208.095,7.488.806,5.071,1.848,7.247S368.335,334.654,368.335,334.654Z" transform="translate(-286.11 -254.003)" opacity="0.1"/>
    <path id="Path_4016" data-name="Path 4016" d="M368.335,331.654s-5.45,2.18-7.156,2.938-11.469-1-11.469-1-5.071-2.559-4.644-5.118-4.076-10.944-4.076-10.944-.142-7.44,1.848-8.862,1.232-4.407,1.232-4.407.009-.1.04-.26a3.58,3.58,0,0,1,2.045-2.773,1.961,1.961,0,0,1,.916-.025,23.771,23.771,0,0,1,5.666,2.241c1.592.806,2.91,1.554,3.211,1.729l.064.036s.711,1.659,1.564,1.137,5.118,1.9,5.924,2.986.237,6.208.095,7.488.806,5.071,1.848,7.247S368.335,331.654,368.335,331.654Z" transform="translate(-286.11 -251.572)" fill="#dce6f2"/>
    <path id="Path_4017" data-name="Path 4017" d="M368.935,423.195s-4.677,7.583-5.435,7.994l.284,2.654s6.667-1.391,7.078-3.255a49.638,49.638,0,0,0,.19-7.488Z" transform="translate(-304.354 -350.392)" fill="#575988"/>
    <path id="Path_4018" data-name="Path 4018" d="M368.935,423.195s-4.677,7.583-5.435,7.994l.284,2.654s6.667-1.391,7.078-3.255a49.638,49.638,0,0,0,.19-7.488Z" transform="translate(-304.354 -350.392)" opacity="0.2"/>
    <path id="Path_4019" data-name="Path 4019" d="M426.88,372.64s.828,3.2,2.133,4.29S426.88,372.64,426.88,372.64Z" transform="translate(-355.719 -309.498)" opacity="0.1"/>
    <path id="Path_4020" data-name="Path 4020" d="M384,408.426c.119.214,4.123,5.664,8.341,7.677s13.626,4.385,13.626,4.385,7.63,1.422,8.932,1.966,2.963-1.9-5.213-5.378-9.763-5.023-9.763-5.023-7.109-3.463-8.246-5.169S384,408.426,384,408.426Z" transform="translate(-320.968 -336.848)" fill="#ffc1c8"/>
    <path id="Path_4021" data-name="Path 4021" d="M399.75,546.016c.142-.095,3.554-3.744,3.981-2.18S399.75,546.016,399.75,546.016Z" transform="translate(-333.732 -447.926)" opacity="0.1"/>
    <path id="Path_4022" data-name="Path 4022" d="M402.146,519c-.047.142-.521,4.17-1.9,4.644" transform="translate(-334.137 -428.113)" opacity="0.1"/>
    <path id="Path_4023" data-name="Path 4023" d="M405.8,524.77s-1.232,4.313-2.8,4.593" transform="translate(-336.366 -432.789)" opacity="0.1"/>
    <path id="Path_4024" data-name="Path 4024" d="M384.75,587.53s2.085.047,2.37-1.28" transform="translate(-321.576 -482.615)" opacity="0.1"/>
    <path id="Path_4025" data-name="Path 4025" d="M399.75,638.52c.284.047,4.739,2.891,3.6,3.46S399.75,638.52,399.75,638.52Z" transform="translate(-333.732 -524.976)" opacity="0.1"/>
    <path id="Path_4026" data-name="Path 4026" d="M370.63,765.14v.438c-.023.667-.032,1.113-.032,1.113l-7.245,3.454-.032-4.565v-.061h0v-.309l2.9.093Z" transform="translate(-304.208 -627.593)" opacity="0.1"/>
    <path id="Path_4027" data-name="Path 4027" d="M320.146,733.819l-6.043,2.313-2.713-1.6.028-2.2.063-4.713,2.9.093,4.409-.154v3.3Z" transform="translate(-252.369 -589.636)" fill="#ff748f"/>
    <path id="Path_4028" data-name="Path 4028" d="M371.566,786.064l-6.043,2.313-2.713-1.6.028-2.2a4.392,4.392,0,0,0,3.333,1.725,20.013,20.013,0,0,1,3.422-3.424.79.79,0,0,1,.618-.083v.309Z" transform="translate(-303.795 -641.879)" opacity="0.1"/>
    <path id="Path_4029" data-name="Path 4029" d="M357.061,788.284a4.357,4.357,0,0,1-3.7-2.313,7.622,7.622,0,0,0-1.789,5.274,34.212,34.212,0,0,0,.032,3.7s7.092-.277,8.419.216,12.458-.432,12.458-.432.739-1.943-2.622-2.622-6.136-4.256-6.229-4.409-1.85-3.6-3.145-2.843A19.608,19.608,0,0,0,357.061,788.284Z" transform="translate(-294.679 -643.483)" fill="#5d618c"/>
    <path id="Path_4030" data-name="Path 4030" d="M412.027,188.378l-.707-.1.442-.011Z" transform="translate(-343.109 -160.078)" opacity="0.1"/>
    <path id="Path_4031" data-name="Path 4031" d="M377.5,205.072a10.446,10.446,0,0,1-.279,2.4,1.669,1.669,0,0,1-.449-.19c-.2-.131-.406-.311-.645-.29a.768.768,0,0,0-.379.174c-1.122.821-1.956,2.171-3.321,2.432a2.191,2.191,0,0,0,.053-1.24,2.565,2.565,0,0,1-2.246.72,1.083,1.083,0,0,0,.032-.745,21.76,21.76,0,0,1-2.993,1.39c-.036-.19-.07-.364-.106-.546-1.452.709-1.338,3.115-2.79,3.824-.864.423-2.085.119-2.682.881-.023.03-.044.061-.064.093a10.426,10.426,0,1,1,15.867-8.9Z" transform="translate(-298.797 -165.254)" opacity="0.1"/>
    <path id="Path_4032" data-name="Path 4032" d="M352.046,183.14a10.245,10.245,0,0,0-2.707-.834,3.442,3.442,0,0,0-2.669.7c-.569.5-1.014,1.3-1.772,1.327a2.282,2.282,0,0,1-1.043-.334,3.022,3.022,0,0,0-2.988-.11,3.106,3.106,0,0,0-1.05,2.2,7.033,7.033,0,0,1-.533,2.436,10.8,10.8,0,0,1-.923,1.242,5.365,5.365,0,0,0-1.031,3.666,10.644,10.644,0,0,0,.413,1.905l.773,2.732a16.135,16.135,0,0,0,1.539,4.028,5.459,5.459,0,0,0,3.3,2.614,2.206,2.206,0,0,0,2.343-.692c.121-.19.2-.392.332-.569.588-.758,1.818-.457,2.682-.88,1.452-.709,1.338-3.115,2.79-3.824l.108.544a22.057,22.057,0,0,0,2.991-1.388,1.094,1.094,0,0,1-.03.745,2.572,2.572,0,0,0,2.244-.72,2.191,2.191,0,0,1-.053,1.24c1.365-.264,2.2-1.613,3.321-2.434a.783.783,0,0,1,.379-.173c.241-.021.442.159.645.288a1.816,1.816,0,0,0,2.244-.286,2.8,2.8,0,0,0,.432-2.506,21,21,0,0,1-.65-2.559c-.119-1.2.3-2.445-.085-3.583a3.959,3.959,0,0,0-2.085-2.123c-.912-.459-1.9-.726-2.826-1.137-.883-.4-1.706-.927-2.624-1.24a11.886,11.886,0,0,0-4.17-.379" transform="translate(-283.128 -155.22)" fill="#794f6a"/>
    <path id="Path_4033" data-name="Path 4033" d="M339.009,331.553s1.517-10.2-11.469-9.7l-6.54.87s6.239,1.122,7.74,1.287l.159.023C330.289,324.287,335.092,323.97,339.009,331.553Z" transform="translate(-269.911 -268.323)" fill="#2860b5"/>
    <path id="Path_4034" data-name="Path 4034" d="M372.25,578.647v-.117C377.575,573.925,372.25,578.647,372.25,578.647Z" transform="translate(-311.445 -474.723)" opacity="0.1"/>
    <path id="Path_4035" data-name="Path 4035" d="M233.816,483.987a12.859,12.859,0,0,1-2.294,0L215.57,460.769a2.806,2.806,0,0,1,1.67-1.5Z" transform="translate(-184.466 -379.706)" fill="#575988"/>
    <path id="Path_4036" data-name="Path 4036" d="M224.136,393.053l-.758.9s-5.751-9.554-6.987-14.407a1.141,1.141,0,0,1,.59-.669s.6-.442,1.564-1.137A49.557,49.557,0,0,0,224.136,393.053Z" transform="translate(-185.131 -313.631)" fill="#575988"/>
    <path id="Path_4037" data-name="Path 4037" d="M253.961,373.91l-1.517.853c-4.14-4.845-4.493-12.985-4.455-16.229l1.092-.785C249.229,362.01,253.961,373.91,253.961,373.91Z" transform="translate(-210.738 -297.43)" fill="#575988"/>
    <path id="Path_4038" data-name="Path 4038" d="M297.807,438.52c-.047.616-1.8,6.872.758,7.914S297.807,438.52,297.807,438.52Z" transform="translate(-250.604 -362.889)" opacity="0.1"/>
    <path id="Path_4039" data-name="Path 4039" d="M329.5,482.911c.095.332.948,11.137,2.8,10.284s.853-13.175.853-13.175Z" transform="translate(-276.799 -396.522)" opacity="0.1"/>
    <path id="Path_4040" data-name="Path 4040" d="M697.556,219.748a11.832,11.832,0,0,1-3.314,8.227,6.922,6.922,0,0,1-2.635.046,2.623,2.623,0,0,1-1.232-.495,3.206,3.206,0,0,1-.8-1.154c-.692-1.488-1.047-3.207-2.017-4.481s-2.94-1.833-3.877-.527c-.51.709-.6,1.8-1.276,2.29-.817.591-1.9-.1-2.531-.948-1.877-2.464-1.234-7.31-4.813-7.99l-.144-.025a11.88,11.88,0,0,1,22.636,5.058Z" transform="translate(-556.74 -175.949)" opacity="0.1"/>
    <path id="Path_4041" data-name="Path 4041" d="M667.361,200.944c-.58-.112-1.253-.1-1.642-.6a2.3,2.3,0,0,1-.351-1.094,9.376,9.376,0,0,1,.309-5c1.1-2.5,3.922-3.331,6.377-3.145s4.864,1.1,7.319.948c1.8-.118,3.585-.815,5.384-.616a10.956,10.956,0,0,1,4.03,1.589,9.642,9.642,0,0,1,3.272,2.572c1.247,1.716,1.482,4.085,1.516,6.309a17.149,17.149,0,0,1-1.238,7.619,8.091,8.091,0,0,1-8.434,4.722,2.623,2.623,0,0,1-1.232-.495,3.224,3.224,0,0,1-.8-1.154c-.694-1.49-1.048-3.207-2.019-4.483s-2.94-1.831-3.876-.525c-.51.707-.6,1.8-1.276,2.29-.817.59-1.9-.106-2.531-.948C670.3,206.464,670.94,201.622,667.361,200.944Z" transform="translate(-548.847 -162.354)" fill="#945b79"/>
    <path id="Path_4042" data-name="Path 4042" d="M801.84,210.658a12.181,12.181,0,0,1,4.237,4.159,9.1,9.1,0,0,1,2.123,4.438,17.723,17.723,0,0,0,.08,2.036c.453,2.356,3.412,3.412,4.277,5.657a6.58,6.58,0,0,1,.1,3.353,45.3,45.3,0,0,1-1.022,4.8,6.392,6.392,0,0,0-.351,2.9,8.886,8.886,0,0,0,.9,2.085,14.986,14.986,0,0,1,1.086,5.962,22.564,22.564,0,0,0,.673,6.045,6.516,6.516,0,0,0,3.886,4.4,4.566,4.566,0,0,1-2.187.777,1.826,1.826,0,0,0,.758,1.683,5.529,5.529,0,0,0,1.748.809,3.3,3.3,0,0,1-2.9.447,6.511,6.511,0,0,1-2.125-1.391l-3.634-3.126a10.254,10.254,0,0,1-1.34-1.3c-2.351-2.921-.948-7.348-2.26-10.856-1.069-2.853-3.943-5.169-3.679-8.2a10.706,10.706,0,0,1,.671-2.464,20.979,20.979,0,0,0-2.208-17.785,4.209,4.209,0,0,0-1.589-1.625c-1.052-.5-2.555-.286-3.152-1.289a5,5,0,0,1-.408-2.053A10.484,10.484,0,0,1,801.84,210.658Z" transform="translate(-654.478 -177.579)" fill="#945b79"/>
    <path id="Path_4043" data-name="Path 4043" d="M341.165,358.24a6.9,6.9,0,0,1,12.045-3.48,15.138,15.138,0,0,1,2.671,4.125c1.9,4.786,2.038,5.213,2.038,5.213s-11.706,2.275-11.611,3.981L341,359.6S341.04,359.064,341.165,358.24Z" transform="translate(-286.119 -293.065)" opacity="0.1"/>
    <path id="Path_4044" data-name="Path 4044" d="M341.165,355.24a6.9,6.9,0,0,1,12.045-3.48,15.139,15.139,0,0,1,2.671,4.125c1.9,4.787,2.038,5.213,2.038,5.213s-11.706,2.275-11.611,3.981L341,356.6S341.04,356.064,341.165,355.24Z" transform="translate(-286.119 -290.634)" fill="#dce6f2"/>
    <path id="Path_4045" data-name="Path 4045" d="M359.25,340.89c.142.237,5.734,7.061,8.673,8.034S359.25,340.89,359.25,340.89Z" transform="translate(-300.91 -283.766)" opacity="0.1"/>
    <path id="Path_4046" data-name="Path 4046" d="M232.5,457.27s14.786,17.44,16.682,24.5" transform="translate(-198.187 -378.085)" opacity="0.1"/>
    <path id="Path_4047" data-name="Path 4047" d="M235.5,372.27s3.223,16.682,9.478,23.7,12.7,18.957,12.7,18.957" transform="translate(-200.618 -309.198)" fill="none" stroke="#000" stroke-miterlimit="10" stroke-width="2" opacity="0.1"/>
    <g id="Group_469" data-name="Group 469" transform="translate(54.086 32.865)" opacity="0.1">
      <path id="Path_4048" data-name="Path 4048" d="M446.443,244.24a2.26,2.26,0,0,1-.538,1.517,1.816,1.816,0,0,1-2.244.286c-.2-.129-.4-.309-.645-.288a.783.783,0,0,0-.379.173c-1.067.781-1.875,2.04-3.128,2.387a2.189,2.189,0,0,1-.1,1c1.365-.263,2.2-1.613,3.321-2.434a.783.783,0,0,1,.379-.173c.241-.021.442.159.645.288A1.816,1.816,0,0,0,446,246.7,2.8,2.8,0,0,0,446.443,244.24Z" transform="translate(-419.961 -238.303)"/>
      <path id="Path_4049" data-name="Path 4049" d="M472.423,215.3c.015.155.042.309.072.463a11.988,11.988,0,0,0,0-2.843C472.5,213.693,472.343,214.512,472.423,215.3Z" transform="translate(-446.697 -212.92)"/>
      <path id="Path_4050" data-name="Path 4050" d="M356.221,242.446a2.572,2.572,0,0,1-2.244.72,1.094,1.094,0,0,0,.03-.745,22.055,22.055,0,0,1-2.991,1.388l-.108-.544c-1.452.709-1.338,3.115-2.79,3.824-.864.423-2.085.118-2.682.88-.133.173-.21.379-.332.569a2.2,2.2,0,0,1-2.343.692,5.443,5.443,0,0,1-3.3-2.614,16.208,16.208,0,0,1-1.539-4.028l-.773-2.732c-.127-.455-.256-.91-.339-1.374a2.783,2.783,0,0,0,.021.417,10.642,10.642,0,0,0,.413,1.905l.773,2.732a16.133,16.133,0,0,0,1.539,4.028,5.459,5.459,0,0,0,3.3,2.614,2.206,2.206,0,0,0,2.343-.692c.121-.19.2-.392.332-.569.588-.758,1.818-.457,2.682-.88,1.452-.709,1.338-3.115,2.79-3.824l.108.544a22.056,22.056,0,0,0,2.986-1.388,1.094,1.094,0,0,1-.03.745,2.572,2.572,0,0,0,2.157-.641A2.19,2.19,0,0,0,356.221,242.446Z" transform="translate(-336.81 -233.635)"/>
    </g>
    <path id="Path_4051" data-name="Path 4051" d="M369.331,308.177c-1.02.588-3.389,1.9-3.869,1.672-.512-.237-6.1-2.191-7.962-2.844a3.58,3.58,0,0,1,2.045-2.773,1.961,1.961,0,0,1,.916-.025l5.664,2.241C367.712,307.254,369.029,308,369.331,308.177Z" transform="translate(-299.491 -254.003)" opacity="0.1"/>
    <path id="Path_4052" data-name="Path 4052" d="M369.331,305.177c-1.02.588-3.389,1.9-3.869,1.672-.512-.237-6.1-2.191-7.962-2.843a3.58,3.58,0,0,1,2.045-2.773,1.961,1.961,0,0,1,.916-.025l5.664,2.241C367.712,304.254,369.029,305,369.331,305.177Z" transform="translate(-299.491 -251.572)" fill="#dce6f2"/>
    <path id="Path_4053" data-name="Path 4053" d="M693.656,223.376a15.175,15.175,0,0,1-1.234,6.14,8.091,8.091,0,0,1-8.434,4.722,2.623,2.623,0,0,1-1.232-.495,3.224,3.224,0,0,1-.8-1.154c-.694-1.49-1.048-3.207-2.019-4.483s-2.94-1.831-3.877-.525c-.51.707-.6,1.8-1.276,2.29-.817.59-1.9-.106-2.531-.948-1.877-2.464-1.234-7.312-4.813-7.99-.58-.112-1.253-.1-1.642-.6a2.3,2.3,0,0,1-.351-1.094c-.064-.457-.119-.923-.152-1.391a13.806,13.806,0,0,0,.152,3.1,2.3,2.3,0,0,0,.351,1.094c.389.5,1.062.485,1.642.6,3.579.679,2.936,5.52,4.813,7.99.633.832,1.706,1.528,2.531.948.681-.491.758-1.583,1.276-2.29.936-1.306,2.906-.749,3.877.525s1.327,2.993,2.019,4.483a3.224,3.224,0,0,0,.8,1.154,2.623,2.623,0,0,0,1.232.495,8.091,8.091,0,0,0,8.434-4.722,17.149,17.149,0,0,0,1.238-7.619C693.656,223.52,693.656,223.444,693.656,223.376Z" transform="translate(-548.921 -184.051)" opacity="0.1"/>
    <g id="Group_470" data-name="Group 470" transform="translate(141.283 34.298)" opacity="0.1">
      <path id="Path_4054" data-name="Path 4054" d="M874.67,290.032a6.58,6.58,0,0,1,.1,3.353,45.245,45.245,0,0,1-1.022,4.8,6.393,6.393,0,0,0-.351,2.9,8.889,8.889,0,0,0,.9,2.085,14.985,14.985,0,0,1,1.086,5.962,22.561,22.561,0,0,0,.673,6.045,7.465,7.465,0,0,0,2.176,3.431,8,8,0,0,1-1.228-2.411,22.487,22.487,0,0,1-.673-6.045,14.937,14.937,0,0,0-1.086-5.96,9.185,9.185,0,0,1-.9-2.085,6.481,6.481,0,0,1,.351-2.9,45.219,45.219,0,0,0,1.022-4.811,6.588,6.588,0,0,0-.1-3.355,6.179,6.179,0,0,0-1.625-2.167A4.426,4.426,0,0,1,874.67,290.032Z" transform="translate(-858.823 -275.906)"/>
      <path id="Path_4055" data-name="Path 4055" d="M899.713,453.105a4.952,4.952,0,0,1-1.41-.736,4.583,4.583,0,0,1-1.725.5,1.826,1.826,0,0,0,.758,1.683,2.637,2.637,0,0,0,.322.222,1.517,1.517,0,0,1-.127-.893A4.607,4.607,0,0,0,899.713,453.105Z" transform="translate(-877.644 -408.412)"/>
      <path id="Path_4056" data-name="Path 4056" d="M799.156,221.126c-.722-.345-1.657-.353-2.366-.646a1.944,1.944,0,0,0,.161.379c.6,1,2.1.785,3.152,1.289a2.593,2.593,0,0,1,.379.233A3.649,3.649,0,0,0,799.156,221.126Z" transform="translate(-796.79 -220.48)"/>
      <path id="Path_4057" data-name="Path 4057" d="M870.031,449.229a3.293,3.293,0,0,1-2.292.108,6.51,6.51,0,0,1-2.125-1.391l-3.634-3.126c-.172-.148-.343-.3-.51-.449.038.051.076.1.117.155a10.137,10.137,0,0,0,1.34,1.3l3.634,3.128a6.541,6.541,0,0,0,2.125,1.391,3.3,3.3,0,0,0,2.9-.449A6.139,6.139,0,0,1,870.031,449.229Z" transform="translate(-849.209 -401.928)"/>
      <path id="Path_4058" data-name="Path 4058" d="M840.3,223.309a9.1,9.1,0,0,1,2.123,4.438,17.737,17.737,0,0,0,.08,2.036,5.068,5.068,0,0,0,1.734,2.633,3.744,3.744,0,0,1-.787-1.621,17.759,17.759,0,0,1-.08-2.038,9.04,9.04,0,0,0-2.123-4.436,20.276,20.276,0,0,0-2.33-2.811C839.407,222.086,839.86,222.7,840.3,223.309Z" transform="translate(-830.934 -221.315)"/>
    </g>
    <path id="Path_4059" data-name="Path 4059" d="M801.507,210.27s-1.137,1.9,2.085,3.475l.19-.506Z" transform="translate(-659.173 -177.907)" opacity="0.1"/>
    <path id="Path_4060" data-name="Path 4060" d="M800.507,210.27s-1.137,1.9,2.085,3.475l.19-.506Z" transform="translate(-658.362 -177.907)" fill="#ff6584"/>
    <path id="Path_4061" data-name="Path 4061" d="M1025.793,776.26s1.043,1.363-.48,3.412-2.777,3.791-2.275,5.075c0,0,2.3-3.82,4.17-3.873S1027.85,778.558,1025.793,776.26Z" transform="translate(-838.776 -636.605)" fill="#2860b5"/>
    <path id="Path_4062" data-name="Path 4062" d="M1026.056,776.26a1.713,1.713,0,0,1,.214.427c1.824,2.144,2.794,4.144,1.041,4.193-1.632.047-3.59,2.967-4.06,3.7.015.057.034.112.055.169,0,0,2.3-3.82,4.17-3.873S1028.112,778.558,1026.056,776.26Z" transform="translate(-839.039 -636.605)" opacity="0.1"/>
    <path id="Path_4063" data-name="Path 4063" d="M1047.241,784.093c0,.48-.055.868-.121.868s-.119-.379-.119-.868.066-.254.133-.254S1047.241,783.613,1047.241,784.093Z" transform="translate(-858.286 -642.702)" fill="#ffd037"/>
    <path id="Path_4064" data-name="Path 4064" d="M1048.26,787.031c-.421.229-.789.368-.819.309s.283-.292.7-.521.256-.063.288,0S1048.683,786.8,1048.26,787.031Z" transform="translate(-858.642 -645.067)" fill="#ffd037"/>
    <path id="Path_4065" data-name="Path 4065" d="M999,776.26s-1.043,1.363.48,3.412,2.777,3.791,2.275,5.075c0,0-2.3-3.82-4.17-3.873S996.953,778.558,999,776.26Z" transform="translate(-817.492 -636.605)" fill="#2860b5"/>
    <path id="Path_4066" data-name="Path 4066" d="M998.985,776.26a1.719,1.719,0,0,0-.214.427c-1.824,2.144-2.794,4.144-1.041,4.193,1.632.047,3.59,2.967,4.061,3.7a1.493,1.493,0,0,1-.057.169s-2.3-3.82-4.17-3.873S996.936,778.558,998.985,776.26Z" transform="translate(-817.475 -636.605)" opacity="0.1"/>
    <path id="Path_4067" data-name="Path 4067" d="M998.82,784.093c0,.48.055.868.121.868s.119-.379.119-.868-.066-.254-.133-.254S998.82,783.613,998.82,784.093Z" transform="translate(-819.239 -642.702)" fill="#ffd037"/>
    <path id="Path_4068" data-name="Path 4068" d="M994.223,787.031c.421.229.787.368.819.309s-.282-.292-.7-.521-.256-.063-.288,0S993.8,786.8,994.223,787.031Z" transform="translate(-815.306 -645.067)" fill="#ffd037"/>
    <path id="Path_4069" data-name="Path 4069" d="M1000.57,813.38s2.912-.091,3.791-.715,4.479-1.372,4.7-.379,4.375,4.984,1.088,5.01-7.638-.512-8.513-1.044S1000.57,813.38,1000.57,813.38Z" transform="translate(-820.658 -665.411)" fill="#a8a8a8"/>
    <path id="Path_4070" data-name="Path 4070" d="M1010.2,823.691c-3.287.027-7.638-.512-8.513-1.044-.667-.408-.933-1.865-1.022-2.536h-.1s.19,2.349,1.062,2.883,5.226,1.071,8.513,1.044c.948,0,1.276-.345,1.259-.845C1011.267,823.5,1010.909,823.691,1010.2,823.691Z" transform="translate(-820.658 -672.143)" opacity="0.2"/>
    <path id="Path_4071" data-name="Path 4071" d="M283.955,787.473a2.214,2.214,0,0,0,.728-1.1.979.979,0,0,0-.508-1.118c-.466-.178-.965.146-1.342.472a1.792,1.792,0,0,1-1.306.629,1.985,1.985,0,0,0,.614-1.86.78.78,0,0,0-.171-.379c-.258-.277-.728-.157-1.039.061a3.859,3.859,0,0,0-1.264,3.236,5.968,5.968,0,0,1-.019-1.327,1.365,1.365,0,0,0-.5-1.179,1.516,1.516,0,0,0-.758-.19,1.579,1.579,0,0,0-1.24.353,1.219,1.219,0,0,0,.049,1.516,4.915,4.915,0,0,0,1.281,1.027,2.845,2.845,0,0,1,.918.874.915.915,0,0,1,.068.157h2.766A7.731,7.731,0,0,0,283.955,787.473Z" transform="translate(-234.175 -642.846)" fill="#2860b5"/>
    <path id="Path_4072" data-name="Path 4072" d="M193.194,694.847s-2.654-9.042.5-15.7a14.3,14.3,0,0,0,1.156-8.961,24.122,24.122,0,0,0-1.27-4.206" transform="translate(-165.486 -547.231)" fill="none" stroke="#535461" stroke-miterlimit="10" stroke-width="2"/>
    <path id="Path_4073" data-name="Path 4073" d="M192.915,635.207c0,1.107-2.007,4.322-2.007,4.322s-2.007-3.223-2.007-4.322a2.007,2.007,0,1,1,4.015,0Z" transform="translate(-162.852 -520.665)" fill="#2860b5"/>
    <path id="Path_4074" data-name="Path 4074" d="M210.334,662.927c-.6.931-4.034,2.538-4.034,2.538s.061-3.791.663-4.718a2.007,2.007,0,1,1,3.371,2.18Z" transform="translate(-176.954 -542.245)" fill="#2860b5"/>
    <path id="Path_4075" data-name="Path 4075" d="M206.444,715.274c-.99.5-4.764.154-4.764.154s1.968-3.238,2.957-3.738a2.007,2.007,0,1,1,1.807,3.585Z" transform="translate(-173.209 -584.1)" fill="#2860b5"/>
    <path id="Path_4076" data-name="Path 4076" d="M196.839,757.481c-.891.66-4.669.948-4.669.948s1.391-3.524,2.275-4.184a2.007,2.007,0,1,1,2.387,3.223Z" transform="translate(-165.502 -618.395)" fill="#2860b5"/>
    <path id="Path_4077" data-name="Path 4077" d="M181.291,675.8c.794.773,4.5,1.573,4.5,1.573s-.908-3.679-1.706-4.453a2.008,2.008,0,1,0-2.8,2.88Z" transform="translate(-156.158 -552.366)" fill="#2860b5"/>
    <path id="Path_4078" data-name="Path 4078" d="M168.283,723.422c.99.5,4.764.155,4.764.155s-1.966-3.24-2.957-3.738a2.006,2.006,0,1,0-1.807,3.583Z" transform="translate(-145.249 -590.706)" fill="#2860b5"/>
    <path id="Path_4079" data-name="Path 4079" d="M165.63,773.454c.891.658,4.669.948,4.669.948s-1.391-3.526-2.275-4.186a2.007,2.007,0,0,0-2.387,3.223Z" transform="translate(-143.404 -631.434)" fill="#2860b5"/>
    <path id="Path_4080" data-name="Path 4080" d="M192.915,635.207c0,1.107-2.007,4.322-2.007,4.322s-2.007-3.223-2.007-4.322a2.007,2.007,0,1,1,4.015,0Z" transform="translate(-162.852 -520.665)" fill="#2860b5"/>
    <path id="Path_4081" data-name="Path 4081" d="M210.334,662.927c-.6.931-4.034,2.538-4.034,2.538s.061-3.791.663-4.718a2.007,2.007,0,1,1,3.371,2.18Z" transform="translate(-176.954 -542.245)" fill="#2860b5"/>
    <path id="Path_4082" data-name="Path 4082" d="M206.444,715.274c-.99.5-4.764.154-4.764.154s1.968-3.238,2.957-3.738a2.007,2.007,0,1,1,1.807,3.585Z" transform="translate(-173.209 -584.1)" fill="#2860b5"/>
    <path id="Path_4083" data-name="Path 4083" d="M196.839,757.481c-.891.66-4.669.948-4.669.948s1.391-3.524,2.275-4.184a2.007,2.007,0,1,1,2.387,3.223Z" transform="translate(-165.502 -618.395)" fill="#2860b5"/>
    <path id="Path_4084" data-name="Path 4084" d="M181.291,675.8c.794.773,4.5,1.573,4.5,1.573s-.908-3.679-1.706-4.453a2.008,2.008,0,1,0-2.8,2.88Z" transform="translate(-156.158 -552.366)" fill="#2860b5"/>
    <path id="Path_4085" data-name="Path 4085" d="M168.283,723.422c.99.5,4.764.155,4.764.155s-1.966-3.24-2.957-3.738a2.006,2.006,0,1,0-1.807,3.583Z" transform="translate(-145.249 -590.706)" fill="#2860b5"/>
    <path id="Path_4086" data-name="Path 4086" d="M165.63,773.454c.891.658,4.669.948,4.669.948s-1.391-3.526-2.275-4.186a2.007,2.007,0,0,0-2.387,3.223Z" transform="translate(-143.404 -631.434)" fill="#2860b5"/>
    <path id="Path_4087" data-name="Path 4087" d="M164.45,801.732s3.243-.645,4.108-1.5,4.758-2.362,5.19-1.289,5.839,4.724,2.163,5.368-8.65.859-9.732.428S164.45,801.732,164.45,801.732Z" transform="translate(-143.037 -654.684)" fill="#a8a8a8"/>
    <path id="Path_4088" data-name="Path 4088" d="M175.911,817.339c-3.678.645-8.65.859-9.732.43-.823-.328-1.4-1.9-1.621-2.629l-.108.023s.648,2.576,1.729,3,6.055.216,9.732-.428c1.06-.19,1.363-.624,1.249-1.175C177.066,816.924,176.7,817.2,175.911,817.339Z" transform="translate(-143.037 -668.115)" opacity="0.2"/>
  </g>
</svg>
