<svg xmlns="http://www.w3.org/2000/svg" width="100" height="100" viewBox="0 0 100 100">
  <g id="g12012" transform="translate(-850.666 -814)">
    <path id="path8193" d="M900.666,814a50,50,0,1,0,50,50A50.035,50.035,0,0,0,900.666,814Zm0,4.58A45.42,45.42,0,1,1,855.246,864,45.385,45.385,0,0,1,900.666,818.58Z" transform="translate(0 0)" fill="#ff9b1f"/>
    <path id="path8217" d="M917.691,841.5a2.482,2.482,0,1,0,2.482,2.482A2.482,2.482,0,0,0,917.691,841.5Zm18.58,4.963c-.058,0-.117,0-.176,0a2.459,2.459,0,1,0,.176,0Zm-37.159,0a2.482,2.482,0,1,0,2.208,1.24A2.484,2.484,0,0,0,899.112,846.463Zm17.052,4.011v27.056a3.8,3.8,0,0,0-.736.424l-16.816-9.709-1.527,2.646L913.9,880.6a3.7,3.7,0,0,0-.026.426,3.819,3.819,0,1,0,5.346-3.5V850.473Zm-30.494,9.548c-.058,0-.117,0-.175,0a2.476,2.476,0,1,0,.175,0Zm64.043,0a2.483,2.483,0,0,0-2.092,3.723h0a2.483,2.483,0,0,0,3.391.909h0a2.482,2.482,0,0,0-1.3-4.631Zm-69.064,18.521a2.482,2.482,0,1,0,0,4.964h0a2.482,2.482,0,0,0,2.482-2.482h0A2.482,2.482,0,0,0,880.648,878.542Zm74.085,0a2.482,2.482,0,0,0,0,4.964h0a2.482,2.482,0,0,0,2.482-2.482h0A2.482,2.482,0,0,0,954.734,878.542Zm-69.181,18.522a2.482,2.482,0,1,0,2.208,1.24A2.488,2.488,0,0,0,885.552,897.064Zm64.278,0c-.058,0-.117,0-.176,0a2.482,2.482,0,0,0-1.124,4.629h0a2.482,2.482,0,1,0,1.3-4.631Zm-50.6,13.559q-.088,0-.175,0a2.473,2.473,0,1,0,.175,0Zm36.927,0a2.482,2.482,0,1,0,2.208,1.24A2.481,2.481,0,0,0,936.154,910.622Zm-18.463,4.962a2.482,2.482,0,1,0,2.482,2.482A2.482,2.482,0,0,0,917.691,915.584Z" transform="translate(-17.025 -17.025)" fill="#ff9b1f"/>
  </g>
</svg>
