<svg xmlns="http://www.w3.org/2000/svg" width="36.746" height="35" viewBox="0 0 36.746 35">
  <g id="目覚まし時計のフリーアイコン" transform="translate(0 -12.161)">
    <path id="Path_790" data-name="Path 790" d="M10.725,14.672a5.9,5.9,0,1,0-8.215,8.214A17.463,17.463,0,0,1,10.725,14.672Z" fill="#fff"/>
    <path id="Path_791" data-name="Path 791" d="M366.445,12.161a5.9,5.9,0,0,0-4.892,2.607,17.514,17.514,0,0,1,8.078,8.255,5.9,5.9,0,0,0-3.186-10.862Z" transform="translate(-335.605 0)" fill="#fff"/>
    <path id="Path_792" data-name="Path 792" d="M69.032,63.688A15.668,15.668,0,1,0,43.524,75.872L42.47,77.711a1.827,1.827,0,1,0,3.169,1.817l.982-1.715a15.511,15.511,0,0,0,13.486,0l.981,1.714a1.827,1.827,0,1,0,3.17-1.817L63.2,75.872A15.633,15.633,0,0,0,69.032,63.688Zm-15.667-11.8a11.8,11.8,0,1,1-8.348,3.457A11.754,11.754,0,0,1,53.364,51.883Z" transform="translate(-34.991 -33.285)" fill="#fff"/>
    <path id="Path_793" data-name="Path 793" d="M241.163,141.954l6.814-.143a1,1,0,0,0,0-2.009l-5.7-.12-.226-7.764a.889.889,0,0,0-1.778,0l-.259,8.889A1.148,1.148,0,0,0,241.163,141.954Z" transform="translate(-222.789 -110.336)" fill="#fff"/>
  </g>
</svg>
