<svg xmlns="http://www.w3.org/2000/svg" xmlns:xlink="http://www.w3.org/1999/xlink" width="100" height="100" viewBox="0 0 100 100">
  <defs>
    <clipPath id="clip-path">
      <rect id="Rectangle_1561" data-name="Rectangle 1561" width="100" height="100" fill="none"/>
    </clipPath>
  </defs>
  <g id="_3時" data-name="3時" transform="translate(206 227)">
    <g id="Group_480" data-name="Group 480" transform="translate(-206 -227)" clip-path="url(#clip-path)">
      <path id="Path_4214" data-name="Path 4214" d="M50,0a50,50,0,1,0,50,50A50,50,0,0,0,50,0m0,4.58A45.382,45.382,0,1,1,17.872,17.872,45.42,45.42,0,0,1,50,4.58" fill="#ff9b1f"/>
      <path id="Path_4215" data-name="Path 4215" d="M67,27.5a2.481,2.481,0,1,0,2.481,2.481A2.481,2.481,0,0,0,67,27.5m18.588,4.962H85.4a2.481,2.481,0,1,0,.191,0m-37.137,0a2.481,2.481,0,1,0,2.214,1.221,2.481,2.481,0,0,0-2.214-1.221m17.023,4.008V63.492a3.817,3.817,0,1,0,5.038,5.038H89.9V65.477H70.515a3.817,3.817,0,0,0-1.985-1.985V36.469Zm-30.5,9.542H34.79a2.481,2.481,0,1,0,.191,0m64.008,0a2.481,2.481,0,1,0,2.214,1.221,2.481,2.481,0,0,0-2.214-1.221M29.981,64.523A2.481,2.481,0,1,0,32.462,67a2.481,2.481,0,0,0-2.481-2.481m74.046,0A2.481,2.481,0,1,0,106.508,67a2.481,2.481,0,0,0-2.481-2.481M34.866,83.034a2.481,2.481,0,1,0,1.3,4.618h0a2.481,2.481,0,0,0-1.3-4.618m64.237,0h-.191a2.481,2.481,0,1,0,.191,0M48.569,96.584h-.191a2.481,2.481,0,1,0,.191,0m36.908,0a2.481,2.481,0,1,0,2.214,1.221,2.481,2.481,0,0,0-2.214-1.221m-18.435,4.962a2.481,2.481,0,1,0,2.481,2.481,2.481,2.481,0,0,0-2.481-2.481" transform="translate(-17.004 -17.004)" fill="#ff9b1f"/>
    </g>
  </g>
</svg>
