<svg xmlns="http://www.w3.org/2000/svg" width="36.838" height="42.978" viewBox="0 0 36.838 42.978">
  <path id="Icon_metro-file-pdf" data-name="Icon metro-file-pdf" d="M37.778,11.317a5.581,5.581,0,0,1,1.151,1.823,5.535,5.535,0,0,1,.48,2.111V42.879a2.293,2.293,0,0,1-2.3,2.3H4.873a2.293,2.293,0,0,1-2.3-2.3V4.506a2.293,2.293,0,0,1,2.3-2.3H26.362a5.536,5.536,0,0,1,2.111.48A5.581,5.581,0,0,1,30.3,3.834ZM27.129,5.465v9.018h9.018a2.62,2.62,0,0,0-.528-.983L28.113,5.993a2.619,2.619,0,0,0-.983-.528Zm9.209,36.646V17.553H26.362a2.293,2.293,0,0,1-2.3-2.3V5.273H5.641V42.111h30.7ZM24.011,27.889a18.248,18.248,0,0,0,2.015,1.343,23.8,23.8,0,0,1,2.806-.168q3.525,0,4.245,1.175a1.159,1.159,0,0,1,.048,1.247.069.069,0,0,1-.024.048l-.048.048v.024q-.144.911-1.7.911a9.893,9.893,0,0,1-2.758-.48,17.487,17.487,0,0,1-3.118-1.271,43.185,43.185,0,0,0-9.4,1.991q-3.669,6.284-5.8,6.284a1.4,1.4,0,0,1-.672-.168l-.576-.288q-.024-.024-.144-.12a.991.991,0,0,1-.144-.863,5.208,5.208,0,0,1,1.343-2.194,11.591,11.591,0,0,1,3.166-2.314.35.35,0,0,1,.552.144.138.138,0,0,1,.048.1q1.247-2.039,2.566-4.725A36.6,36.6,0,0,0,18.9,22.325a19.387,19.387,0,0,1-.732-3.825,9.325,9.325,0,0,1,.156-3.058q.264-.959,1.007-.959h.528a1.011,1.011,0,0,1,.839.36,1.916,1.916,0,0,1,.216,1.631.52.52,0,0,1-.1.192.624.624,0,0,1,.024.192v.719a31.405,31.405,0,0,1-.336,4.6,12.134,12.134,0,0,0,3.5,5.708ZM10.2,37.746q1.247-.576,3.286-3.789a13.672,13.672,0,0,0-2.1,2.015A7.972,7.972,0,0,0,10.2,37.746Zm9.545-22.064a7.131,7.131,0,0,0-.048,3.166q.024-.168.168-1.055,0-.072.168-1.031a.54.54,0,0,1,.1-.192.069.069,0,0,1-.024-.048.049.049,0,0,0-.012-.036.049.049,0,0,1-.012-.036,1.38,1.38,0,0,0-.312-.863.069.069,0,0,1-.024.048v.048ZM16.769,31.535a35.178,35.178,0,0,1,6.811-1.943,3.618,3.618,0,0,1-.312-.228,4.3,4.3,0,0,1-.384-.324,12.7,12.7,0,0,1-3.046-4.221,32.049,32.049,0,0,1-1.991,4.725q-.719,1.343-1.079,1.991Zm15.493-.384q-.576-.576-3.358-.576a9.072,9.072,0,0,0,2.974.672,2.326,2.326,0,0,0,.432-.024q0-.024-.048-.072Z" transform="translate(-2.571 -2.204)" fill="#fff"/>
</svg>
