<svg xmlns="http://www.w3.org/2000/svg" xmlns:xlink="http://www.w3.org/1999/xlink" width="439.999" height="338.001" viewBox="0 0 439.999 338.001">
  <defs>
    <linearGradient id="linear-gradient" x1="0.5" x2="1.66" y2="1.607" gradientUnits="objectBoundingBox">
      <stop offset="0" stop-color="#20478e"/>
      <stop offset="1" stop-color="#102447"/>
    </linearGradient>
    <filter id="Union_11" x="0" y="0" width="439.999" height="338.001" filterUnits="userSpaceOnUse">
      <feOffset dy="3" input="SourceAlpha"/>
      <feGaussianBlur stdDeviation="3" result="blur"/>
      <feFlood flood-opacity="0.161"/>
      <feComposite operator="in" in2="blur"/>
      <feComposite in="SourceGraphic"/>
    </filter>
  </defs>
  <g transform="matrix(1, 0, 0, 1, 0, 0)" filter="url(#Union_11)">
    <g id="Union_11-2" data-name="Union 11" transform="translate(1345 -331)" stroke-linejoin="round" fill="url(#linear-gradient)">
      <path d="M -1029.210327148438 652.0001220703125 L -1031.774658203125 652.0001220703125 L -1325.99951171875 652.0001220703125 L -1330.99951171875 652.0001220703125 L -1330.99951171875 647.0001220703125 L -1330.99951171875 347.0003967285156 L -1330.99951171875 342.0003967285156 L -1325.99951171875 342.0003967285156 L -1031.774658203125 342.0003967285156 L -1029.210327148438 342.0003967285156 L -1027.714111328125 344.0829162597656 L -919.9395141601562 494.0823059082031 L -917.8433227539062 496.9997863769531 L -919.9395141601562 499.9172973632812 L -1027.714111328125 649.9176025390625 L -1029.210327148438 652.0001220703125 Z" stroke="none"/>
      <path d="M -1325.99951171875 347.0003662109375 L -1325.99951171875 647.0001220703125 L -1031.774658203125 647.0001220703125 L -1031.774658203125 347.0003662109375 L -1325.99951171875 347.0003662109375 M -1031.774658203125 347.0003662109375 L -1031.774658203125 647.0001220703125 L -924.0001220703125 496.9998474121094 L -1031.774658203125 347.0003662109375 M -1031.77587890625 336.9996337890625 C -1031.503662109375 336.9996337890625 -1031.232177734375 337.0108032226562 -1030.962280273438 337.0328979492188 C -1029.091674804688 337.1832275390625 -1027.367065429688 337.8480224609375 -1025.928833007812 338.8861083984375 C -1025.927612304688 338.8870239257812 -1025.926147460938 338.8880615234375 -1025.924926757812 338.8889770507812 L -1025.924682617188 338.88916015625 C -1025.27490234375 339.3575439453125 -1024.676391601562 339.9080810546875 -1024.145141601562 340.5354614257812 C -1023.944580078125 340.7719116210938 -1023.755249023438 341.0172119140625 -1023.577026367188 341.2718505859375 L -915.8790283203125 491.1648254394531 C -913.373779296875 494.6514892578125 -913.373779296875 499.3481140136719 -915.8790283203125 502.8348388671875 L -1023.577026367188 652.7286376953125 C -1023.756469726562 652.9850463867188 -1023.947631835938 653.2324829101562 -1024.149780273438 653.470458984375 C -1024.661376953125 654.0738525390625 -1025.235961914062 654.6063232421875 -1025.857788085938 655.0626220703125 C -1027.313842773438 656.1329345703125 -1029.070190429688 656.818359375 -1030.977294921875 656.96875 C -1031.280883789062 656.9931640625 -1031.586791992188 657.0035400390625 -1031.893310546875 657.0001220703125 L -1325.99951171875 657.0001220703125 C -1331.522338867188 657.0001220703125 -1335.99951171875 652.52294921875 -1335.99951171875 647.0001220703125 L -1335.99951171875 347.0003662109375 C -1335.99951171875 341.4775390625 -1331.522338867188 337.0003662109375 -1325.99951171875 337.0003662109375 L -1031.893920898438 337.0003662109375 C -1031.854614257812 336.9998779296875 -1031.815185546875 336.9996337890625 -1031.77587890625 336.9996337890625 Z" stroke="none" fill="#fff"/>
    </g>
  </g>
</svg>
