<svg xmlns="http://www.w3.org/2000/svg" xmlns:xlink="http://www.w3.org/1999/xlink" width="432" height="338.001" viewBox="0 0 432 338.001">
  <defs>
    <linearGradient id="linear-gradient" x1="0.5" x2="1.736" y2="1.593" gradientUnits="objectBoundingBox">
      <stop offset="0" stop-color="#20478e"/>
      <stop offset="1" stop-color="#102447"/>
    </linearGradient>
    <filter id="Union_10" x="0" y="0" width="432" height="338.001" filterUnits="userSpaceOnUse">
      <feOffset dy="3" input="SourceAlpha"/>
      <feGaussianBlur stdDeviation="3" result="blur"/>
      <feFlood flood-opacity="0.161"/>
      <feComposite operator="in" in2="blur"/>
      <feComposite in="SourceGraphic"/>
    </filter>
  </defs>
  <g transform="matrix(1, 0, 0, 1, 0, 0)" filter="url(#Union_10)">
    <g id="Union_10-2" data-name="Union 10" transform="translate(1345 -331)" stroke-linejoin="round" fill="url(#linear-gradient)">
      <path d="M -1035.03564453125 652.0001220703125 L -1037.630004882812 652.0001220703125 L -1325.999755859375 652.0001220703125 L -1330.999755859375 652.0001220703125 L -1330.999755859375 647.0001220703125 L -1330.999755859375 347.0003967285156 L -1330.999755859375 342.0003967285156 L -1325.999755859375 342.0003967285156 L -1037.630004882812 342.0003967285156 L -1035.03564453125 342.0003967285156 L -1033.541870117188 344.1215515136719 L -927.9119873046875 494.1209716796875 L -925.8846435546875 496.9998168945312 L -927.9119262695312 499.878662109375 L -1033.541870117188 649.8789672851562 L -1035.03564453125 652.0001220703125 Z" stroke="none"/>
      <path d="M -1325.999755859375 347.0003662109375 L -1325.999755859375 647.0001220703125 L -1037.630004882812 647.0001220703125 L -1037.630004882812 347.0003662109375 L -1325.999755859375 347.0003662109375 M -1037.630004882812 347.0003662109375 L -1037.630004882812 647.0001220703125 L -932 496.9998474121094 L -1037.630004882812 347.0003662109375 M -1037.631103515625 336.9996337890625 C -1037.353637695312 336.9996337890625 -1037.0771484375 337.01123046875 -1036.802124023438 337.0341186523438 C -1034.929321289062 337.1876220703125 -1033.202758789062 337.8571166992188 -1031.764770507812 338.900146484375 C -1031.113159179688 339.3717651367188 -1030.513671875 339.92578125 -1029.982177734375 340.5571899414062 C -1029.766479492188 340.8128662109375 -1029.563232421875 341.0798950195312 -1029.373657226562 341.3565673828125 L -923.8238525390625 491.2421875 C -921.39208984375 494.6954345703125 -921.39208984375 499.30419921875 -923.8238525390625 502.7574768066406 L -1029.375854492188 652.6470947265625 C -1029.557495117188 652.9119873046875 -1029.75146484375 653.1677856445312 -1029.957153320312 653.41357421875 C -1030.484130859375 654.0445556640625 -1031.079223632812 654.5991821289062 -1031.725952148438 655.072021484375 C -1033.1728515625 656.132080078125 -1034.915405273438 656.8126220703125 -1036.806884765625 656.9667358398438 C -1037.11962890625 656.99267578125 -1037.434814453125 657.00390625 -1037.75048828125 657.0001220703125 L -1325.999755859375 657.0001220703125 C -1331.522583007812 657.0001220703125 -1335.999755859375 652.52294921875 -1335.999755859375 647.0001220703125 L -1335.999755859375 347.0003662109375 C -1335.999755859375 341.4775390625 -1331.522583007812 337.0003662109375 -1325.999755859375 337.0003662109375 L -1037.75048828125 337.0003662109375 C -1037.710693359375 336.9998779296875 -1037.670776367188 336.9996337890625 -1037.631103515625 336.9996337890625 Z" stroke="none" fill="#fff"/>
    </g>
  </g>
</svg>
