<svg xmlns="http://www.w3.org/2000/svg" xmlns:xlink="http://www.w3.org/1999/xlink" width="411" height="338.001" viewBox="0 0 411 338.001">
  <defs>
    <linearGradient id="linear-gradient" x1="0.684" y1="0.192" x2="1.435" y2="1.113" gradientUnits="objectBoundingBox">
      <stop offset="0" stop-color="#20478e"/>
      <stop offset="1" stop-color="#102447"/>
    </linearGradient>
    <filter id="Union_12" x="0" y="0" width="411" height="338.001" filterUnits="userSpaceOnUse">
      <feOffset dy="3" input="SourceAlpha"/>
      <feGaussianBlur stdDeviation="3" result="blur"/>
      <feFlood flood-opacity="0.161"/>
      <feComposite operator="in" in2="blur"/>
      <feComposite in="SourceGraphic"/>
    </filter>
  </defs>
  <g transform="matrix(1, 0, 0, 1, 0, 0)" filter="url(#Union_12)">
    <g id="Union_12-2" data-name="Union 12" transform="translate(1345 -331)" stroke-linejoin="round" fill="url(#linear-gradient)">
      <path d="M -1050.324096679688 652.0001220703125 L -1053 652.0001220703125 L -1325.999755859375 652.0001220703125 L -1330.999755859375 652.0001220703125 L -1330.999755859375 647.0001220703125 L -1330.999755859375 347.0003967285156 L -1330.999755859375 342.0003967285156 L -1325.999755859375 342.0003967285156 L -1053 342.0003967285156 L -1050.324096679688 342.0003967285156 L -1048.839721679688 344.2268981933594 L -948.83984375 494.2262878417969 L -946.9908447265625 496.9997863769531 L -948.83984375 499.7732849121094 L -1048.839721679688 649.7736206054688 L -1050.324096679688 652.0001220703125 Z" stroke="none"/>
      <path d="M -1325.999755859375 347.0003662109375 L -1325.999755859375 647.0001220703125 L -1053 647.0001220703125 L -1053 347.0003662109375 L -1325.999755859375 347.0003662109375 M -1053 347.0003662109375 L -1053 647.0001220703125 L -953.0001220703125 496.9997863769531 L -1053 347.0003662109375 M -1053.000732421875 336.9995727539062 C -1052.703857421875 336.9995727539062 -1052.407958984375 337.0128784179688 -1052.114013671875 337.0390625 C -1050.267456054688 337.2012329101562 -1048.564697265625 337.8651733398438 -1047.143310546875 338.8939208984375 C -1046.450439453125 339.3943481445312 -1045.816040039062 339.9878540039062 -1045.2607421875 340.667236328125 C -1045.021728515625 340.9589233398438 -1044.798950195312 341.2642211914062 -1044.59375 341.58203125 L -944.6795654296875 491.4527893066406 C -942.4403076171875 494.8117980957031 -942.4403076171875 499.1878051757812 -944.6795654296875 502.5468139648438 L -1044.593627929688 652.4183959960938 C -1044.800537109375 652.7386474609375 -1045.025512695312 653.0466918945312 -1045.266479492188 653.34033203125 C -1045.8046875 653.997314453125 -1046.416748046875 654.573974609375 -1047.084350585938 655.0634765625 C -1048.51904296875 656.117919921875 -1050.244750976562 656.79833984375 -1052.119384765625 656.9619140625 C -1052.45263671875 656.991455078125 -1052.78857421875 657.0042724609375 -1053.124877929688 657.0001220703125 L -1325.999755859375 657.0001220703125 C -1331.522583007812 657.0001220703125 -1335.999755859375 652.52294921875 -1335.999755859375 647.0001220703125 L -1335.999755859375 347.0003662109375 C -1335.999755859375 341.4775390625 -1331.522583007812 337.0003662109375 -1325.999755859375 337.0003662109375 L -1053.124877929688 337.0003662109375 C -1053.083374023438 336.9998168945312 -1053.042236328125 336.9995727539062 -1053.000732421875 336.9995727539062 Z" stroke="none" fill="#fff"/>
    </g>
  </g>
</svg>
