<svg id="undraw_education_f8ru" xmlns="http://www.w3.org/2000/svg" width="211" height="152.943" viewBox="0 0 211 152.943">
  <path id="Path_3901" data-name="Path 3901" d="M420.57,584.643v36.868H328.2c-10.524,0-19.087-8.27-19.087-18.434s8.563-18.434,19.087-18.434Z" transform="translate(-286.11 -469.987)" fill="#fff"/>
  <path id="Path_3902" data-name="Path 3902" d="M417.824,619.078a1.419,1.419,0,0,1-1.418,1.418H321.541a19.427,19.427,0,1,1,0-38.854h94.865a1.418,1.418,0,0,1,0,2.836H321.541a16.591,16.591,0,1,0,0,33.181h94.865a1.419,1.419,0,0,1,1.418,1.418Z" transform="translate(-281.095 -467.837)" fill="#2860b5"/>
  <path id="Path_3903" data-name="Path 3903" d="M450.659,613.21H351.4a.284.284,0,1,1,0-.567h99.261a.284.284,0,0,1,0,.567Z" transform="translate(-316.199 -490.046)" fill="#ccc"/>
  <path id="Path_3904" data-name="Path 3904" d="M450.659,637.21H351.4a.284.284,0,1,1,0-.567h99.261a.284.284,0,0,1,0,.567Z" transform="translate(-316.199 -507.239)" fill="#ccc"/>
  <path id="Path_3905" data-name="Path 3905" d="M450.659,661.21H351.4a.284.284,0,1,1,0-.567h99.261a.284.284,0,0,1,0,.567Z" transform="translate(-316.199 -524.433)" fill="#ccc"/>
  <path id="Path_3906" data-name="Path 3906" d="M450.659,685.21H351.4a.284.284,0,1,1,0-.567h99.261a.284.284,0,0,1,0,.567Z" transform="translate(-316.199 -541.626)" fill="#ccc"/>
  <path id="Path_3907" data-name="Path 3907" d="M695.373,451.777l-23.132,28.709-71.926-57.954c-8.195-6.6-9.674-18.415-3.3-26.33s18.233-8.982,26.428-2.379Z" transform="translate(-489.525 -330.18)" fill="#fff"/>
  <path id="Path_3908" data-name="Path 3908" d="M669.2,477.485a1.419,1.419,0,0,1-1.994.215l-73.869-59.52a19.427,19.427,0,1,1,24.377-30.254l73.869,59.52a1.418,1.418,0,1,1-1.779,2.208l-73.869-59.52a16.591,16.591,0,1,0-20.819,25.838l73.869,59.52a1.419,1.419,0,0,1,.214,1.994Z" transform="translate(-484.542 -325.978)" fill="#ccc"/>
  <path id="Path_3909" data-name="Path 3909" d="M739.5,473.881,662.2,411.6a.284.284,0,1,1,.356-.442l77.292,62.278a.284.284,0,0,1-.356.442Z" transform="translate(-538.987 -345.66)" fill="#ccc"/>
  <path id="Path_3910" data-name="Path 3910" d="M724.438,492.569l-77.292-62.278a.284.284,0,1,1,.356-.442l77.292,62.278a.284.284,0,0,1-.356.442Z" transform="translate(-528.199 -359.048)" fill="#ccc"/>
  <path id="Path_3911" data-name="Path 3911" d="M709.38,511.258l-77.292-62.278a.284.284,0,0,1,.356-.442l77.292,62.278a.284.284,0,0,1-.356.442Z" transform="translate(-517.412 -372.436)" fill="#ccc"/>
  <path id="Path_3912" data-name="Path 3912" d="M694.322,529.946,617.03,467.668a.284.284,0,1,1,.356-.442L694.678,529.5a.284.284,0,0,1-.356.442Z" transform="translate(-506.624 -385.824)" fill="#ccc"/>
  <path id="Path_3913" data-name="Path 3913" d="M438.716,718.21H228.284a.284.284,0,1,1,0-.567H438.716a.284.284,0,1,1,0,.567Z" transform="translate(-228 -565.268)" fill="#20478e"/>
  <path id="Path_3914" data-name="Path 3914" d="M326,359.031h-3.242l-1.542-12.506H326Z" transform="translate(-230.116 -248.25)" fill="#ffb8b8"/>
  <path id="Path_3915" data-name="Path 3915" d="M308.537,387.355h6.253v3.937H304.6a3.937,3.937,0,0,1,3.937-3.937Z" transform="translate(-218.215 -277.5)" fill="#2f2e41"/>
  <path id="Path_3916" data-name="Path 3916" d="M209.2,359.031h-3.242l-1.542-12.506H209.2Z" transform="translate(-146.444 -248.25)" fill="#ffb8b8"/>
  <path id="Path_3917" data-name="Path 3917" d="M191.743,387.355H198v3.937h-10.19a3.937,3.937,0,0,1,3.937-3.937Z" transform="translate(-134.544 -277.5)" fill="#2f2e41"/>
  <path id="Path_3918" data-name="Path 3918" d="M487.471,217.2v-1.418a9.146,9.146,0,0,1,9.146-9.146h0a9.146,9.146,0,0,1,9.146,9.146V217.2a6.594,6.594,0,0,1-6.594,6.594h-5.1a6.594,6.594,0,0,1-6.594-6.594Z" transform="translate(-413.884 -199.186)" fill="#2f2e41"/>
  <circle id="Ellipse_96" data-name="Ellipse 96" cx="6.966" cy="6.966" r="6.966" transform="translate(75.767 11.169)" fill="#ffb8b8"/>
  <path id="Path_3919" data-name="Path 3919" d="M634.488,376.475" transform="translate(-519.207 -320.856)" fill="#ffb8b8"/>
  <path id="Path_3920" data-name="Path 3920" d="M383.976,326.879a2.659,2.659,0,0,1,4.05.476L394,326.225l1.571,3.461-8.455,1.477a2.674,2.674,0,0,1-3.138-4.284Z" transform="translate(-339.131 -284.805)" fill="#ffb8b8"/>
  <path id="Path_3921" data-name="Path 3921" d="M432.555,283.447l.078.118-9.792,6.45-16.522,5.276a1,1,0,0,0-.684,1.06l.36,3.1a.993.993,0,0,0,1.194.856l15.55-3.333a5.617,5.617,0,0,0,2.091-.92l11-7.827a2.829,2.829,0,0,0-3.2-4.667Z" transform="translate(-355.253 -253.96)" fill="#ccc"/>
  <path id="Path_3922" data-name="Path 3922" d="M464.769,406.581a1.281,1.281,0,0,1-1.174-.766l-14.863-36.727a.425.425,0,0,0-.8.045l-12.126,35.755a1.276,1.276,0,0,1-1.668.82l-4.066-1.525a1.273,1.273,0,0,1-.822-1.051c-1.829-15.936,14.123-56.162,14.285-56.566l.045-.112,14.542,3.217.03.033c5.8,6.329,10.571,46.25,11.468,54.189a1.27,1.27,0,0,1-.843,1.346l-3.589,1.269a1.265,1.265,0,0,1-.422.073Z" transform="translate(-372.072 -299.349)" fill="#2f2e41"/>
  <path id="Path_3923" data-name="Path 3923" d="M487.83,298.946c-3.523,0-7.451-.7-8.661-3.6l-.028-.067.038-.062c.954-1.566,2.216-4.237,1.538-4.739-1.336-.987-1.984-2.612-1.926-4.828a11.633,11.633,0,0,1,8.158-10.63h0a36.2,36.2,0,0,1,4.045-1.041,6.886,6.886,0,0,1,5.71,1.41,6.956,6.956,0,0,1,2.58,5.352c.05,5.142-.742,12.3-4.8,17.22a1.261,1.261,0,0,1-.747.434A34.661,34.661,0,0,1,487.83,298.946Z" transform="translate(-407.664 -247.329)" fill="#ccc"/>
  <path id="Path_3924" data-name="Path 3924" d="M505.794,346.871a2.71,2.71,0,0,1,3.312-1.89,2.666,2.666,0,0,1,.411.152l4.534-4.126,3.153,2.124-6.484,5.738a2.705,2.705,0,0,1-3.067,1.3,2.664,2.664,0,0,1-1.859-3.3Z" transform="translate(-426.938 -295.446)" fill="#ffb8b8"/>
  <path id="Path_3925" data-name="Path 3925" d="M524.893,305.607a1.273,1.273,0,0,1-.807-.288l-1.788-1.461a1.276,1.276,0,0,1,.031-2l7.5-5.751a.426.426,0,0,0,.08-.594l-4.628-6.119a3.768,3.768,0,0,1,.252-4.854h0a3.757,3.757,0,0,1,5.073-.406l.029.031,4.833,6.921a4.309,4.309,0,0,1-.1,6.859l-9.712,7.413A1.278,1.278,0,0,1,524.893,305.607Z" transform="translate(-438.499 -254.129)" fill="#ccc"/>
  <path id="Path_3926" data-name="Path 3926" d="M497.965,221.854V218.4l6.17-2.694,5.883,2.694v3.456a.567.567,0,0,1-.567.567H498.532A.567.567,0,0,1,497.965,221.854Z" transform="translate(-421.402 -205.679)" fill="#2f2e41"/>
  <path id="Path_3927" data-name="Path 3927" d="M518.146,188.269c-.907-2.9,1-6.231,3.815-7.381a8.779,8.779,0,0,1,8.563,1.553,14.449,14.449,0,0,1,4.633,7.683,43.036,43.036,0,0,1,1.074,9.044,6.077,6.077,0,1,1-5.825,2.157,7.48,7.48,0,0,0-8.7-11.6C520,190.438,517.856,188.585,518.146,188.269Z" transform="translate(-435.696 -180.357)" fill="#2f2e41"/>
  <path id="Path_3928" data-name="Path 3928" d="M349.376,242.542a29.622,29.622,0,0,1-12.01-2.63,1.268,1.268,0,0,1-.752-1.164V228.419a1.278,1.278,0,0,1,1.276-1.276h22.972a1.278,1.278,0,0,1,1.276,1.276v10.328a1.269,1.269,0,0,1-.752,1.164h0a29.622,29.622,0,0,1-12.01,2.63Z" transform="translate(-305.811 -213.874)" fill="#2860b5"/>
  <path id="Path_3929" data-name="Path 3929" d="M332.364,208.619a1.278,1.278,0,0,1-.5-.1l-18.216-7.686a1.276,1.276,0,0,1,.043-2.369l18.217-6.911a1.272,1.272,0,0,1,.911,0l17.972,6.911a1.276,1.276,0,0,1,.044,2.365l-17.973,7.685A1.278,1.278,0,0,1,332.364,208.619Z" transform="translate(-288.802 -188.319)" fill="#2860b5"/>
  <circle id="Ellipse_97" data-name="Ellipse 97" cx="1.702" cy="1.702" r="1.702" transform="translate(31.229 23.336)" fill="#3f3d56"/>
  <path id="Path_3930" data-name="Path 3930" d="M351.555,219.432l-17.973,7.685a1.134,1.134,0,0,1-.887,0l-18.216-7.685a1.113,1.113,0,0,1-.542-.477,1.134,1.134,0,0,0,.542,1.611l18.216,7.685a1.134,1.134,0,0,0,.887,0l17.973-7.685a1.134,1.134,0,0,0,.537-1.609A1.114,1.114,0,0,1,351.555,219.432Z" transform="translate(-289.456 -208.01)" opacity="0.2"/>
  <path id="Path_3931" data-name="Path 3931" d="M343.9,233.891a.284.284,0,0,0,.284-.284v-9.49l9.354-3.408a.284.284,0,0,0,.008-.567l-9.354,3.408a.556.556,0,0,0-.406.163.563.563,0,0,0-.169.4v9.49a.284.284,0,0,0,.284.284Z" transform="translate(-310.829 -208.86)" fill="#3f3d56"/>
</svg>
