<svg xmlns="http://www.w3.org/2000/svg" xmlns:xlink="http://www.w3.org/1999/xlink" width="214.676" height="160" viewBox="0 0 214.676 160">
  <defs>
    <linearGradient id="linear-gradient" x1="0.5" y1="1" x2="0.5" gradientUnits="objectBoundingBox">
      <stop offset="0" stop-color="gray" stop-opacity="0.251"/>
      <stop offset="0.54" stop-color="gray" stop-opacity="0.122"/>
      <stop offset="1" stop-color="gray" stop-opacity="0.102"/>
    </linearGradient>
  </defs>
  <g id="undraw_studying_s3l7" transform="translate(-0.012 -0.057)">
    <path id="Path_3835" data-name="Path 3835" d="M281.611,173.465c-.038.227-.077.454-.12.681a83.567,83.567,0,0,1-6.954,22.027q-.164.341-.334.681a62.952,62.952,0,0,1-7.836,12.085,25.077,25.077,0,0,1-5.629,5.282c-3.02,1.926-6.551,2.708-10.021,3.349-3.606.667-7.259,1.216-10.9,1.824q-1.938.316-3.851.663c-3.521.636-7.015,1.372-10.427,2.347a54.2,54.2,0,0,0-12.162,5q-.462.263-.914.541c-.3.182-.608.369-.9.559s-.59.379-.882.572l-.45.3c-.148.1-.294.2-.44.3-.434.3-.861.608-1.289.908l-.016.012q-.423.3-.841.608c-1.579,1.17-3.124,2.394-4.662,3.622l-.971.776-1.5,1.19c-.294.233-.592.464-.888.7-.215.168-.428.336-.647.5-1.1.845-2.207,1.672-3.34,2.463-.27.188-.543.377-.811.561a42.745,42.745,0,0,1-7.2,3.969l-.032.014a28.583,28.583,0,0,1-3.827,1.32,22.911,22.911,0,0,1-2.254.488,19.921,19.921,0,0,1-6.111.105c-3.991-.566-7.731-2.432-11.712-3.057-8.213-1.275-16.189,2.838-23.918,6.067q-2.838,1.188-5.738,2.23-1.922.693-3.861,1.32a121.574,121.574,0,0,1-24.228,5.183,55.989,55.989,0,0,1-10.287.278,34.742,34.742,0,0,1-3.851-.5,22.229,22.229,0,0,1-11.633-5.675,27.249,27.249,0,0,1-6.071-9.444q-.878-2.114-1.547-4.326a48.242,48.242,0,0,1-1.575-7.06c-.079-.539-.15-1.08-.2-1.622q-.158-1.393-.235-2.8a48.444,48.444,0,0,1,1.441-14.8c1.38-5.349,3.683-10.471,4.7-15.871.043-.227.081-.454.12-.681q.2-1.216.308-2.477c.511-6.6-1.465-13.068-3.026-19.542-.055-.227-.109-.454-.162-.681q-.253-1.076-.48-2.155A54.493,54.493,0,0,1,72.87,150.3c.041-.227.087-.456.134-.681a33.98,33.98,0,0,1,4.735-11.843,41.044,41.044,0,0,1,8.919-9.435q2.463-1.966,5.094-3.679,1.891-1.228,3.851-2.325a64.189,64.189,0,0,1,34.515-8.108q.947.049,1.889.13.989.085,1.972.2c7.668.886,15.129,3.081,22.546,5.483q3.728,1.216,7.443,2.432,1.654.539,3.306,1.064c5.4,1.7,10.893,3.243,16.434,4.4q1.928.405,3.851.74a91.026,91.026,0,0,0,13.5,1.39q2.635.065,5.27-.055,1.332-.061,2.665-.178c9.184-.786,18.04-3.424,26.932-5.9,1.285-.359,2.572-.716,3.851-1.06,1.69-.454,3.383-.894,5.082-1.3,10.577-2.54,20-1.08,29.835,4.157a14.6,14.6,0,0,1,5.838,4.846c1.378,2.222,1.713,4.972,1.968,7.619.361,3.766.608,7.585.687,11.42,0,.227,0,.454.014.681A121.5,121.5,0,0,1,281.611,173.465Z" transform="translate(-70.44 -102.169)" fill="#2860b5" opacity="0.1"/>
    <path id="Path_3836" data-name="Path 3836" d="M220.939,196.49h-.691v.681h.782Zm-7.834,0a.044.044,0,0,0,0,.016l-.061.563v.1h6v-.041l.428-.641Zm-16.043,0V174.463h6.892c-.073-.061-.148-.122-.225-.178l-.1-.077c-.043-.034-.085-.067-.13-.1s-.15-.107-.229-.16-.128-.087-.2-.13l-.047-.03h-5.957v-1.206l-.16.077-.17.1h-.012l-.036.022-.105.069c-.036.022-.073.045-.107.069-.105.071-.2.148-.314.227l-.1.081c-.069.053-.134.107-.2.162-.27.221-.535.452-.811.665l-.2.158a5.242,5.242,0,0,1-.458.3,2.178,2.178,0,0,1-.2.111l-.113.053-.1.045h0a4.306,4.306,0,0,1-.754.239V196.49H182.869a.313.313,0,0,0,.02.071c.057.2.114.405.168.608h10.151v23.612h.158l.18.012.328.024.531.053.239.028.264.032h.039c.152.02.306.045.462.069l.1.016.223.036.32.057h0l.768-.041h0l.105.022a.615.615,0,0,1,.13.026V197.171H213.03v-.1l.061-.564a.045.045,0,0,1,0-.016Zm23.877,0h-.691v.681h.782Zm-8.266,0-.069.681h6.675l.454-.681Zm-15.608,0V174.463h6.892c-.073-.061-.148-.122-.225-.178l-.1-.077c-.043-.034-.085-.067-.13-.1s-.15-.107-.229-.16-.128-.087-.2-.13l-.047-.03h-5.961v-1.206l-.16.077-.17.1h-.012l-.036.022-.105.069c-.036.022-.073.045-.107.069-.105.071-.2.148-.314.227l-.1.081c-.069.053-.134.107-.2.162-.27.221-.535.452-.811.665l-.2.158a5.242,5.242,0,0,1-.458.3,2.178,2.178,0,0,1-.2.111l-.113.053-.1.045h0a4.306,4.306,0,0,1-.754.239V196.49H182.869a.313.313,0,0,0,.02.071c.057.2.116.405.17.608h10.149v23.61l.158.01.18.012.328.024.531.053.239.028.264.032h.039c.152.02.306.045.462.069l.1.016.223.036.32.057h0l.768-.041h0l.105.022a.615.615,0,0,1,.13.026V197.171H212.6l.073-.681Zm52.226-45.87h43.423c0-.227,0-.454-.014-.681H249.292V123.2c-1.289.345-2.576.7-3.851,1.06v25.683H198.213l-.12-.13.18-.2h0l17.566-19.278q-2.635.122-5.27.055L197.061,145.2V129q-1.934-.334-3.851-.74v16.2l-19.749-21.662c-2.479-.811-4.958-1.636-7.443-2.432l26.843,29.45-.12.13H143.473V114.872q-.985-.111-1.972-.2-.943-.083-1.889-.13v35.4H105.1V122.656q-1.964,1.095-3.851,2.325v24.958H82.474c-.047.225-.093.454-.134.681h18.889v23.162H83.386c.053.227.107.454.162.681h17.689V196.49H86.26c-.039.227-.077.454-.12.681h15.1v61.589a34.734,34.734,0,0,0,3.851.5V197.171h34.523V253.8q1.942-.63,3.861-1.32V197.171H193.2v49.478a28.58,28.58,0,0,0,3.827-1.32l.032-.014V197.171h48.367v23.2q1.924-.347,3.851-.663v-22.54h34.391q.17-.341.334-.681H249.292V174.463h41.68c.043-.227.081-.454.12-.681h-41.8Zm-144.193,0h34.513v23.162H105.1Zm0,45.87V174.463h34.513V196.49Zm38.376-45.87H193.2v23.162H143.473Zm0,45.87V174.463H193.2V196.49Zm101.956,0H197.061V174.463h48.367Zm0-22.7H197.061V151.24l.679-.62h47.688Zm-32.324,22.7a.044.044,0,0,0,0,.016l-.061.563v.1h6v-.041l.428-.641Zm7.834,0h-.691v.681h.782Zm-23.877,0V174.463h6.892c-.073-.061-.148-.122-.225-.178l-.1-.077c-.043-.034-.085-.067-.13-.1s-.15-.107-.229-.16-.128-.087-.2-.13l-.047-.03h-5.959v-1.206l-.16.077-.17.1h-.012l-.036.022-.105.069c-.036.022-.073.045-.107.069-.105.071-.2.148-.314.227l-.1.081c-.069.053-.134.107-.2.162-.27.221-.535.452-.811.665l-.2.158a5.242,5.242,0,0,1-.458.3,2.178,2.178,0,0,1-.2.111l-.113.053-.1.045h0a4.306,4.306,0,0,1-.754.239V196.49H182.869a.313.313,0,0,0,.02.071c.057.2.114.405.168.608h10.151v23.612h.158l.18.012.328.024.531.053.239.028.264.032h.039c.152.02.306.045.462.069l.1.016.223.036.32.057h0l.768-.041h0l.105.022a.615.615,0,0,1,.13.026V197.171H213.03v-.1l.061-.564a.045.045,0,0,1,0-.016Z" transform="translate(-79.918 -102.485)" fill="#2860b5" opacity="0.1"/>
    <path id="Path_3837" data-name="Path 3837" d="M271.457,208.167h.308a.738.738,0,0,1-.367-.594h0c0-.47.576-.853,1.279-.853h8.949c.7,0,1.279.383,1.279.853h0c0,.468-.576.853-1.279.853h-.3a.74.74,0,0,1,.365.594c0,.405-.418.738-.977.829h2.576c.7,0,1.277.383,1.277.853s-.576.851-1.277.851h-8.959c-.7,0-1.277-.383-1.277-.851,0-.405.418-.738.977-.829h-2.576c-.7,0-1.277-.383-1.277-.853S270.752,208.167,271.457,208.167Z" transform="translate(-229.684 -175.981)" fill="#2860b5" opacity="0.1"/>
    <path id="Path_3838" data-name="Path 3838" d="M749.977,248.237h.3a.74.74,0,0,1-.367-.6h0c0-.468.576-.851,1.279-.851h8.949c.7,0,1.279.383,1.279.851h0c0,.47-.576.853-1.279.853h-.3a.742.742,0,0,1,.365.6c0,.405-.418.736-.977.827H761.8c.7,0,1.277.385,1.277.853s-.576.853-1.277.853h-8.947c-.7,0-1.277-.383-1.277-.853,0-.405.418-.738.977-.827h-2.58c-.7,0-1.277-.385-1.277-.853S749.28,248.237,749.977,248.237Z" transform="translate(-611.21 -207.929)" fill="#2860b5" opacity="0.1"/>
    <path id="Path_3839" data-name="Path 3839" d="M203.727,419.7h.3a.742.742,0,0,1-.365-.6h0c0-.468.574-.853,1.277-.853h8.949c.7,0,1.279.385,1.279.853h0c0,.47-.576.853-1.279.853h-.3a.742.742,0,0,1,.365.6c0,.405-.418.736-.977.827h2.576c.7,0,1.277.383,1.277.853s-.574.853-1.277.853H206.6c-.7,0-1.277-.385-1.277-.853,0-.405.42-.738.977-.829h-2.576c-.7,0-1.277-.383-1.277-.851S203.026,419.7,203.727,419.7Z" transform="translate(-175.682 -344.635)" fill="#2860b5" opacity="0.1"/>
    <path id="Path_3840" data-name="Path 3840" d="M662.616,713.44l-1.5,1.19c-.294.233-.592.464-.888.7-.215.168-.428.336-.647.5-1.1.845-2.207,1.672-3.34,2.463-.27.188-.543.377-.811.561a42.743,42.743,0,0,1-7.2,3.969l-.032.014V713.44Z" transform="translate(-531.073 -579.991)" fill="#65617d"/>
    <path id="Path_3841" data-name="Path 3841" d="M466.514,336.99l.227-7c-.136-.105-.274-.2-.405-.3a37.331,37.331,0,0,0-.357-6.245c-.916-7-6.865-7.155-8.544-5.71a4.055,4.055,0,0,1-.724.5c.152-1,.341-2,.476-2.99.734-5.335-.405-11.337-4.544-14.785-1.733-1.441-3.851-2.327-5.755-3.533-3.409-2.151-6.1-5.327-9.551-7.421s-8.29-2.878-11.3-.186c-1.165,1.042-1.918,2.487-3.113,3.492-2.23,1.873-5.706,2-7.652,4.088h0c-.1.105-.191.213-.28.326-1.622,2.08-1.178,5.029-.661,7.609.622,3.105.365,5.594,3.028,6.486.01.124.018.247.032.369a13.157,13.157,0,0,0,5.789,9.47l-.432.154c-1.151.405-2.187.8-2.85,1.068-2.432.991-7.552,2.282-7.552,2.282s-.122,1.459-.1,3.612c-1.707,1.855-4.555,5.114-5.392,7.046-1.216,2.817-8.088,10.887-9.918,12.1s-3.815,2.663-3.815,2.663a17.9,17.9,0,0,1-4.271,1.751,23.006,23.006,0,0,1-3.892-.458s-11.746-14.391-10.984-3.349,10.145,11.418,10.145,11.418l9.46-.152s5.112.685,7.4-1.216c1.954-1.622,12.081-10.518,15.334-14.554.075.083.15.164.229.243,0,0,1.3-1.674,1.449,0s-.841,2.432-.306,3.04,2.136,2.74,2.211,3.578-2.134,4.257,1.6,6.851c.059.041.122.079.191.118a9.567,9.567,0,0,0,2.787,3l11.442-.152,21.589,1.674s.643-.566,1.512-1.49a4.725,4.725,0,0,0,4.589,1.419s2.595-3.119,2.672-5.175c0,0-1.678-4.34-2.432-5.633s.535-4.111.535-4.111.914-2.74,1.449-2.74.152-1.824.152-1.824a2.218,2.218,0,0,1-.229-2.055A19.667,19.667,0,0,0,466.514,336.99Z" transform="translate(-312.416 -240.464)" fill="url(#linear-gradient)"/>
    <path id="Path_3842" data-name="Path 3842" d="M675.339,445.771l-.811.949h0l-3.276,3.815-4.279.259-6.849.422s-9.235-11.128-7.5-13.55a4.434,4.434,0,0,0,.608-3.115c-.016-.15-.039-.3-.065-.448a12.947,12.947,0,0,0-1.078-3.324l.227-.1.146-.067,8.075-3.685,2-.912a5.4,5.4,0,0,0,.547,1.577c.039.077.081.154.126.227,2.755,4.561,11.588,1.676,11.588,1.676Z" transform="translate(-534.183 -350.822)" fill="#ee8e9e"/>
    <path id="Path_3843" data-name="Path 3843" d="M770.391,447.368a13.316,13.316,0,0,1-.511,3.953l-11.43,1.741-.428-2.967-1.693-11.718,1.589-1.589a4.243,4.243,0,0,0,3.634-.908c1.664-1.439,7.569-1.287,8.477,5.675a38.547,38.547,0,0,1,.361,5.813Z" transform="translate(-617.294 -358.113)" fill="#ee8e9e"/>
    <path id="Path_3844" data-name="Path 3844" d="M787.036,608.154s2.572-3.1,2.649-5.146l-2.574-4.315-2.27-2.432-4.24,8.185S783.4,609.289,787.036,608.154Z" transform="translate(-636.644 -486.563)" fill="#dfe5ee"/>
    <path id="Path_3845" data-name="Path 3845" d="M787.036,608.154s2.572-3.1,2.649-5.146l-2.574-4.315-2.27-2.432-4.24,8.185S783.4,609.289,787.036,608.154Z" transform="translate(-636.644 -486.563)" opacity="0.1"/>
    <path id="Path_3846" data-name="Path 3846" d="M200.825,694.452c-.215.168-.428.336-.647.5-1.1.845-2.207,1.672-3.34,2.463-.27.188-.543.377-.811.561h-64.66l-19.13-.685-15.385-.13-3.851-.2-19.215-1.013a48.243,48.243,0,0,1-1.583-7.066c-.079-.539-.15-1.08-.2-1.622l20.993,1.163,3.851.217,34.515,1.926,3.861.215,49.729,2.777,3.827.215h.032Z" transform="translate(-71.674 -559.118)" fill="#d48a9b"/>
    <path id="Path_3847" data-name="Path 3847" d="M225.833,628.62a54.2,54.2,0,0,0-12.162,5c-.306.176-.608.357-.914.541s-.608.369-.9.559-.59.379-.882.572l-.45.3-.44.3c-.434.3-.861.608-1.289.908l-.016.012-.841.608c-1.579,1.17-3.124,2.394-4.662,3.622q-.486.389-.975.776l-1.5,1.19c-.294.233-.592.464-.888.7-.215.168-.428.336-.647.5l-11.351-.541h-.032l-3.827-.178L134.3,641.137l-3.861-.184-34.515-1.64-3.851-.184-20.8-.979c-.079-.539-.15-1.08-.2-1.622q-.158-1.393-.235-2.8l21.234-7.5,3.851-1.364,3.5-1.236,6.375.332,14.734.756h0l9.916.521,3.861.2,2.467.13h0l.59.032h0l20.76,1.084h0l.219.014h0l9.263.482h.166l.926.047h0l3.158.166,3.949.2h0l1.3.069h0l.245.014,1.84.1h0l.525.026h0l1.757.093h0l.7.038h.168l1.644.087,2.546.134h.012l.791.041h.085l.472.026,1.159.061h0l1.013.053h.01l1.137.059h.018l.861.047h0l.661.034,2.345.124h0l.422.022h.146l.2.012h0l.687.036h0l.308.016h0l2.392.124h.219l3.531-.03h.024l13.424-.109h1.328l4.321-.035h.645Z" transform="translate(-70.749 -508.385)" fill="#efc6cd"/>
    <path id="Path_3848" data-name="Path 3848" d="M387.21,640.69l1.249,6.642,33.947-.511s2.554.738,2.5-1.305c0,0,5.167-4.883,31.337.794l-10.048-7.891L418.727,639.9l-31.847-.851Z" transform="translate(-322.729 -520.177)" fill="#2860b5"/>
    <path id="Path_3849" data-name="Path 3849" d="M391.59,640.339l1.192,7.21s29.188-.851,33.777-.057l-3.468-6.586S405.442,639.261,391.59,640.339Z" transform="translate(-326.485 -521.415)" fill="#fff"/>
    <path id="Path_3850" data-name="Path 3850" d="M391.59,640.339l1.192,7.21s29.188-.851,33.777-.057l-3.468-6.586S405.442,639.261,391.59,640.339Z" transform="translate(-326.485 -521.415)" opacity="0.1"/>
    <path id="Path_3851" data-name="Path 3851" d="M393.74,640.31l1.176,6.705s28.817-.791,33.357-.053l-3.419-6.123S407.418,639.307,393.74,640.31Z" transform="translate(-328.199 -521.413)" fill="#fff"/>
    <path id="Path_3852" data-name="Path 3852" d="M396.35,641.4l1.145,6.271s28.185-.74,32.634-.049l-3.344-5.73S409.73,640.455,396.35,641.4Z" transform="translate(-330.28 -522.298)" opacity="0.1"/>
    <path id="Path_3853" data-name="Path 3853" d="M397.47,640.289l1.151,6.284s28.185-.74,32.634-.049l-3.353-5.736S410.85,639.35,397.47,640.289Z" transform="translate(-331.173 -521.414)" fill="#fff"/>
    <path id="Path_3854" data-name="Path 3854" d="M283.135,557.41s1.476,1.928-.679,4.84-3.934,5.369-3.215,7.186c0,0,3.243-5.408,5.9-5.473S286.048,560.661,283.135,557.41Z" transform="translate(-236.779 -455.588)" fill="#2860b5"/>
    <path id="Path_3855" data-name="Path 3855" d="M283.463,557.41a2.344,2.344,0,0,1,.3.608c2.582,3.04,3.959,5.878,1.476,5.939-2.313.065-5.086,4.2-5.75,5.246q.034.118.079.237s3.243-5.408,5.9-5.473S286.376,560.661,283.463,557.41Z" transform="translate(-237.107 -455.588)" opacity="0.1"/>
    <path id="Path_3856" data-name="Path 3856" d="M311.281,567.828c0,.677-.077,1.228-.17,1.228s-.17-.551-.17-1.228.1-.361.188-.361S311.281,567.149,311.281,567.828Z" transform="translate(-262.182 -463.547)" fill="#ffd037"/>
    <path id="Path_3857" data-name="Path 3857" d="M312.687,571.691c-.6.326-1.115.523-1.159.44s.405-.405,1-.738.361-.089.405,0S313.283,571.366,312.687,571.691Z" transform="translate(-262.648 -466.601)" fill="#ffd037"/>
    <path id="Path_3858" data-name="Path 3858" d="M247.639,557.41s-1.476,1.928.681,4.84,3.932,5.369,3.215,7.186c0,0-3.253-5.408-5.9-5.473S244.727,560.661,247.639,557.41Z" transform="translate(-209.073 -455.588)" fill="#2860b5"/>
    <path id="Path_3859" data-name="Path 3859" d="M247.639,557.41a2.433,2.433,0,0,0-.3.608c-2.582,3.04-3.959,5.878-1.476,5.939,2.313.065,5.088,4.2,5.752,5.246a2.438,2.438,0,0,1-.079.237s-3.253-5.408-5.9-5.473S244.727,560.661,247.639,557.41Z" transform="translate(-209.073 -455.588)" opacity="0.1"/>
    <path id="Path_3860" data-name="Path 3860" d="M247.13,567.828c0,.677.077,1.228.17,1.228s.17-.551.17-1.228-.1-.361-.189-.361S247.13,567.149,247.13,567.828Z" transform="translate(-211.306 -463.547)" fill="#ffd037"/>
    <path id="Path_3861" data-name="Path 3861" d="M241.068,571.691c.6.326,1.117.523,1.161.44s-.405-.405-1-.738-.361-.089-.405,0S240.472,571.366,241.068,571.691Z" transform="translate(-206.185 -466.601)" fill="#ffd037"/>
    <path id="Path_3862" data-name="Path 3862" d="M256.574,600.37l-.073.608-.1.849-.043.355-.1.851-.045.355-.105.851-1.18,9.673c-.105.863-1.516,1.536-3.219,1.536h-6.125c-1.7,0-3.111-.673-3.217-1.536l-1.182-9.673-.1-.851-.043-.355-.105-.851-.043-.355-.1-.849-.075-.608c-.059-.488.7-.9,1.668-.9h12.539C255.877,599.47,256.641,599.881,256.574,600.37Z" transform="translate(-206.183 -489.122)" fill="#65617d"/>
    <path id="Path_3863" data-name="Path 3863" d="M186.375,551.59l-.1.851H170.753l-.1-.851Z" transform="translate(-136.05 -439.74)" fill="#9d9cb5"/>
    <path id="Path_3864" data-name="Path 3864" d="M186.8,557.54l-.1.851H171.475l-.105-.851Z" transform="translate(-136.624 -444.484)" fill="#9d9cb5"/>
    <path id="Path_3865" data-name="Path 3865" d="M187.237,563.49l-.1.849H172.2l-.1-.849Z" transform="translate(-137.206 -449.228)" fill="#9d9cb5"/>
    <path id="Path_3866" data-name="Path 3866" d="M396.387,594.582s-3.936-3.784-3.784,1.135S396.387,594.582,396.387,594.582Z" transform="translate(-327.289 -484.117)" fill="#ee8e9e"/>
    <path id="Path_3867" data-name="Path 3867" d="M416.424,498.591a5.744,5.744,0,0,1-1.172,1.806c-3.413,4.111-13.125,12.654-15.028,14.239-2.27,1.893-7.342,1.216-7.342,1.216L383.5,516s-9.31-.379-10.068-11.351,10.9,3.33,10.9,3.33a22.76,22.76,0,0,0,3.861.454,17.712,17.712,0,0,0,4.238-1.739s1.968-1.439,3.784-2.649,8.629-9.235,9.841-12.036c.768-1.778,3.243-4.684,4.952-6.569.981-1.084,1.709-1.824,1.709-1.824S416.953,496.244,416.424,498.591Z" transform="translate(-311.978 -396.754)" fill="#ee8e9e"/>
    <path id="Path_3868" data-name="Path 3868" d="M564.368,498.559a5.743,5.743,0,0,1-1.172,1.806c-3.446-3.509-4.165-10.51-4.246-14.961.981-1.084,1.709-1.824,1.709-1.824S564.9,496.212,564.368,498.559Z" transform="translate(-459.922 -396.723)" opacity="0.1"/>
    <path id="Path_3869" data-name="Path 3869" d="M674.526,464.8h0l-3.273,3.815-4.279.259-6.849.422s-9.235-11.128-7.5-13.55a4.434,4.434,0,0,0,.608-3.115c-.016-.15-.039-.3-.065-.448a12.947,12.947,0,0,0-1.078-3.324l.227-.1.146-.067a14.534,14.534,0,0,1,.742,3.1c.022.144.043.294.063.448.071.547.136,1.155.2,1.824.527,6.125,4.38,8.43,6.119,9.164a17.649,17.649,0,0,1,1.638.793,8.738,8.738,0,0,0,5.493.993,16.611,16.611,0,0,0,7.794-3.683l.018,3.071Z" transform="translate(-534.183 -368.905)" opacity="0.1"/>
    <path id="Path_3870" data-name="Path 3870" d="M601.949,484.825s-28.156-.077-31.868-2.649-1.512-5.979-1.589-6.813-1.664-2.951-2.193-3.559.454-1.362.3-3.026-1.437,0-1.437,0c-5.3-5.375-4.165-19-4.165-19s5.067-1.285,7.5-2.272c.659-.268,1.684-.649,2.838-1.06l.428-.154c2.974-1.064,6.508-2.266,6.508-2.266s.679-.48,1.362.957a12.632,12.632,0,0,1,.878,3.426c.022.144.043.294.063.448.071.547.136,1.155.2,1.824.527,6.125,4.38,8.43,6.119,9.164a17.64,17.64,0,0,1,1.638.793,8.738,8.738,0,0,0,5.493.993,16.612,16.612,0,0,0,7.794-3.683l.018,3.071.053,9.227Z" transform="translate(-461.473 -365.125)" fill="#dfe5ee"/>
    <path id="Path_3871" data-name="Path 3871" d="M636.828,582.506l-.454,2.876s-11.2,2.8-15.591,3.632-13.852-.227-14.533,1.589,2.876,4.315,2.876,4.315l11.351-.152,21.421,1.666s8.175-7.192,5.526-12.188S636.828,582.506,636.828,582.506Z" transform="translate(-497.564 -474.765)" fill="#ee8e9e"/>
    <path id="Path_3872" data-name="Path 3872" d="M626.691,474.58s-5.148,4.238-4.163,6.284S626.691,474.58,626.691,474.58Z" transform="translate(-510.512 -389.547)" opacity="0.1"/>
    <path id="Path_3873" data-name="Path 3873" d="M592.789,512.29s-5.223,9.008-4.919,9.689,1.741,3.1,1.664,1.287S592.789,512.29,592.789,512.29Z" transform="translate(-482.969 -419.613)" opacity="0.1"/>
    <path id="Path_3874" data-name="Path 3874" d="M612.156,520.14s-1.216,5.6-2.422,7.948S612.156,520.14,612.156,520.14Z" transform="translate(-500.216 -425.872)" opacity="0.1"/>
    <path id="Path_3875" data-name="Path 3875" d="M631.511,427.844a13.094,13.094,0,0,1-9.952,6.734h-.024a13.072,13.072,0,0,1-9.215-2.412c3.04-1.1,6.936-2.42,6.936-2.42s.679-.48,1.362.957l10.22-4.662A5.42,5.42,0,0,0,631.511,427.844Z" transform="translate(-502.474 -350.846)" opacity="0.1"/>
    <path id="Path_3876" data-name="Path 3876" d="M611.868,350.286a13.036,13.036,0,0,1-1.723,6.5,13.188,13.188,0,0,1-1.952,2.6,13.04,13.04,0,0,1-7.938,3.924h-.026a12.794,12.794,0,0,1-1.455.083,13.094,13.094,0,0,1-13.011-11.619,12.711,12.711,0,0,1-.083-1.477,13.094,13.094,0,1,1,26.188,0Z" transform="translate(-481.234 -280.013)" fill="#ee8e9e"/>
    <path id="Path_3877" data-name="Path 3877" d="M753.17,498.856l1.216-1.824s6.661-7.948,13.175-2.876l-.227,6.965a18.463,18.463,0,0,1-.758,3.243,2.215,2.215,0,0,0,.227,2.045s.379,1.824-.15,1.824-1.439,2.724-1.439,2.724-1.287,2.8-.529,4.088,2.422,5.6,2.422,5.6a8.345,8.345,0,0,1-3.407-4.238s-6.434-5-11.43-1.824Z" transform="translate(-614.057 -403.806)" opacity="0.1"/>
    <path id="Path_3878" data-name="Path 3878" d="M777.048,489.906a13.319,13.319,0,0,1-.511,3.953l-11.43,1.741-.428-2.967C766.176,491.071,771.616,486.109,777.048,489.906Z" transform="translate(-623.951 -400.65)" opacity="0.1"/>
    <path id="Path_3879" data-name="Path 3879" d="M753.17,496.856l1.216-1.824s6.661-7.948,13.175-2.876l-.227,6.965a18.464,18.464,0,0,1-.758,3.243,2.215,2.215,0,0,0,.227,2.045s.379,1.824-.15,1.824-1.439,2.724-1.439,2.724-1.287,2.8-.529,4.088,2.422,5.6,2.422,5.6a8.345,8.345,0,0,1-3.407-4.238s-6.434-5-11.43-1.824Z" transform="translate(-614.057 -402.211)" fill="#dfe5ee"/>
    <path id="Path_3880" data-name="Path 3880" d="M768.572,496.61s-10.974,6.738-10.445,12.646C758.127,509.256,764.259,498.426,768.572,496.61Z" transform="translate(-618.712 -407.111)" opacity="0.1"/>
    <path id="Path_3881" data-name="Path 3881" d="M621.487,375.886l.053,9.227a7.588,7.588,0,0,1-5.578-1.52,6.693,6.693,0,0,1-2.027-3.628,12.853,12.853,0,0,1-.263-3.432.18.18,0,0,1,0-.034c.128-2.548.714-5.1.405-7.627s-1.842-5.2-4.348-5.736a2.625,2.625,0,0,1-1.4-.509,2.034,2.034,0,0,1-.328-1.6l.073-.947c.018-.243.026-.484.026-.726a9.289,9.289,0,0,0-7.5-9.109l-.081-.014a5.122,5.122,0,0,0-2.145-.12c-1.342.31-2.209,1.611-3.446,2.23-2.372,1.184-6.326-.111-8.809-.519-.162-.026-.316-.057-.464-.091a12.7,12.7,0,0,1-.083-1.478,13.094,13.094,0,1,1,24.465,6.5c.039.077.081.154.126.227,2.755,4.561,11.588,1.676,11.588,1.676l.531,16.274Z" transform="translate(-481.146 -279.986)" opacity="0.1"/>
    <path id="Path_3882" data-name="Path 3882" d="M582.082,315.237c1.228-.62,2.1-1.922,3.446-2.23a5.17,5.17,0,0,1,2.146.118l.081.016a9.3,9.3,0,0,1,7.465,9.837l-.073.947a2,2,0,0,0,.33,1.6,2.562,2.562,0,0,0,1.4.507c2.505.535,4.04,3.192,4.348,5.738s-.288,5.1-.405,7.66.353,5.382,2.286,7.062c3.04,2.635,7.662,1.135,11.685.894-1.78,0-3.113-1.836-3.211-3.612a10.826,10.826,0,0,1,1.449-5.067,10.055,10.055,0,0,0,1.346-5.1c-.231-2.432-2.149-4.38-2.882-6.721-.855-2.724-.03-5.649.357-8.481.728-5.3-.405-11.272-4.51-14.7-1.719-1.433-3.821-2.315-5.71-3.515-3.385-2.147-6.054-5.294-9.476-7.382s-8.225-2.862-11.211-.186c-1.155,1.036-1.9,2.473-3.089,3.472-2.321,1.956-6.01,1.993-7.871,4.392-1.6,2.065-1.168,5-.655,7.563.683,3.419.3,6.081,3.953,6.689C575.756,315.127,579.709,316.423,582.082,315.237Z" transform="translate(-467.825 -243.105)" fill="#603556"/>
    <path id="Path_3883" data-name="Path 3883" d="M612.091,382.056c-2.929.359-5.832.543-7.964-1.305-1.934-1.68-2.41-4.5-2.286-7.062s.716-5.118.405-7.662-1.843-5.2-4.348-5.736a2.6,2.6,0,0,1-1.4-.507,2.021,2.021,0,0,1-.33-1.6l.073-.947a9.3,9.3,0,0,0-7.465-9.835l-.081-.016a5.17,5.17,0,0,0-2.147-.118c-1.342.31-2.209,1.622-3.446,2.23-2.374,1.186-6.324-.109-8.811-.517-3.648-.6-3.267-3.263-3.953-6.689a12.866,12.866,0,0,1-.2-5.846,3.182,3.182,0,0,0-.28.326c-1.6,2.065-1.168,5-.655,7.563.683,3.419.3,6.081,3.953,6.689,2.485.405,6.438,1.7,8.811.517,1.228-.62,2.1-1.922,3.446-2.23a5.17,5.17,0,0,1,2.147.118l.081.016a9.3,9.3,0,0,1,7.465,9.837l-.073.947a2,2,0,0,0,.33,1.6,2.562,2.562,0,0,0,1.4.507c2.505.535,4.04,3.192,4.348,5.738s-.286,5.1-.405,7.66.353,5.382,2.286,7.062c3.04,2.635,7.662,1.135,11.685.894A3.083,3.083,0,0,1,612.091,382.056Z" transform="translate(-467.722 -279.415)" opacity="0.1"/>
    <path id="Path_3884" data-name="Path 3884" d="M369.537,576.175l12.5-4.662a1.19,1.19,0,0,1,1.53.7h0a1.19,1.19,0,0,1-.7,1.53l-12.5,4.662-2.68-.268Z" transform="translate(-307.429 -466.772)" fill="#5c5c8e"/>
    <path id="Path_3885" data-name="Path 3885" d="M383.154,572.565h0a1.19,1.19,0,0,1-.7,1.53l-12.5,4.678-2.011-.2-.29.308,2.68.268,12.5-4.662a1.19,1.19,0,0,0,.7-1.53h0a1.19,1.19,0,0,0-.486-.594,1.383,1.383,0,0,1,.118.2Z" transform="translate(-307.397 -467.507)" fill="#fff" opacity="0.1"/>
    <path id="Path_3886" data-name="Path 3886" d="M299.107,539.52l.831,2.228-2.2-.221-.48-.049.657-.7Z" transform="translate(-236.997 -430.117)" fill="#efc8c4"/>
    <path id="Path_3887" data-name="Path 3887" d="M368.371,601a.53.53,0,0,1,.13.14.2.2,0,0,1,0,.217.432.432,0,0,1-.12.087.405.405,0,0,0-.178.3l-.482-.047Z" transform="translate(-307.453 -490.342)" fill="#727a9c"/>
    <path id="Path_3888" data-name="Path 3888" d="M569.461,636.433s10.824-2.272,28.985.608l-7.115-5.221-12.944-2.649L569.23,631.6Z" transform="translate(-468.118 -512.802)" fill="#fff"/>
    <path id="Path_3889" data-name="Path 3889" d="M569.461,636.433s10.824-2.272,28.985.608l-7.115-5.221-12.944-2.649L569.23,631.6Z" transform="translate(-468.118 -512.802)" opacity="0.1"/>
    <path id="Path_3890" data-name="Path 3890" d="M550.524,641.34s5.45-14.744,33.445.047l-10.048-6.466s-24.07-6.65-26.851,1.014Z" transform="translate(-450.45 -515.253)" fill="#fff"/>
    <path id="Path_3891" data-name="Path 3891" d="M550.468,637.117s5.451-15.764,33.445.284l-10.048-7.013s-24.078-7.954-26.865.371Z" transform="translate(-450.394 -511.04)" opacity="0.1"/>
    <path id="Path_3892" data-name="Path 3892" d="M550.524,636.886s5.45-16,33.445.051l-10.048-7.013s-24.07-7.727-26.851.608Z" transform="translate(-450.45 -510.803)" fill="#fff"/>
    <path id="Path_3893" data-name="Path 3893" d="M550.492,634.333s5.451-17.778,33.445.274l-10.056-7.891s-24.07-8.108-26.851,1.249Z" transform="translate(-450.418 -508.246)" opacity="0.1"/>
    <path id="Path_3894" data-name="Path 3894" d="M550.492,633.43s5.451-18,33.445.057L573.881,625.6s-24.07-8.108-26.851,1.249Z" transform="translate(-450.418 -507.353)" fill="#fff"/>
    <path id="Path_3895" data-name="Path 3895" d="M965.88,668.71s-6.719,7.2-.671,10.694a1.678,1.678,0,0,0,1.92.454s-.381-.339.383-.991a4.532,4.532,0,0,0,.72-.79,2.23,2.23,0,0,0,.418-1.35h0s.88-2.856-1.916-6.563c0,0-.253-1.24-.468-1.376l-.511,1.729a2.978,2.978,0,0,1,1.766,1.3s-1.69-1.328-1.855-1.05c-.032.057-.229.93-.229.93s2.23.576,2.927,2.108c0,0-1.8-1.851-3-1.778l-.219,1.334s2.386.495,3.243,2.209c0,0-1.95-1.871-3.276-1.913l-.039,1.34s2.317.527,3.024,1.958c0,0-2.471-1.932-3.012-1.65a6.618,6.618,0,0,0,.2,1.557s1.654.405,1.99,1.285c0,0-1.788-1.117-1.942-.947a6.972,6.972,0,0,0,1.149,2.272,5.042,5.042,0,0,1-1.395-2.185,2.781,2.781,0,0,0-.336,1.555s-.663-.734.225-1.942a6.406,6.406,0,0,1-.243-1.455,6.054,6.054,0,0,0-1.311,2.027,2.694,2.694,0,0,1,1.309-2.374v-1.35a8.607,8.607,0,0,0-1.755,2.169s-.02-1.257,1.786-2.507l.2-1.311a10.257,10.257,0,0,0-1.875,1.909,4.078,4.078,0,0,1,1.946-2.282l.237-.859s-.965.791-1.216,1.042-.347.2-.347.2a4.257,4.257,0,0,1,1.662-1.609A9.684,9.684,0,0,0,965.88,668.71Z" transform="translate(-781.821 -544.328)" fill="#2860b5" opacity="0.1"/>
    <path id="Path_3896" data-name="Path 3896" d="M1103.515,90.91s-8.978,4.054-4.745,9.606a1.68,1.68,0,0,0,1.6,1.161s-.221-.46.736-.768a4.444,4.444,0,0,0,.969-.452,2.23,2.23,0,0,0,.906-1.084h0s1.913-2.295.764-6.792c0,0,.245-1.243.1-1.451l-1.139,1.4a2.975,2.975,0,0,1,1.127,1.883s-1.046-1.877-1.305-1.682c-.053.039-.57.768-.57.768s1.824,1.39,1.887,3.075c0,0-.949-2.4-2.088-2.8l-.715,1.147s2.011,1.376,2.144,3.29c0,0-1.078-2.477-2.284-3.028l-.553,1.216s1.936,1.38,2.027,2.974c0,0-1.534-2.736-2.142-2.684a6.3,6.3,0,0,0-.405,1.514s1.366,1.013,1.342,1.954c0,0-1.216-1.719-1.419-1.622a6.941,6.941,0,0,0,.184,2.54,5.032,5.032,0,0,1-.444-2.554,2.773,2.773,0,0,0-.91,1.305s-.328-.934.957-1.707a6.353,6.353,0,0,1,.336-1.435,6.051,6.051,0,0,0-1.989,1.356s.274-1.186,2.124-1.684l.527-1.24a8.617,8.617,0,0,0-2.457,1.322s.466-1.168,2.615-1.622l.691-1.131a10.353,10.353,0,0,0-2.467,1.038,4.1,4.1,0,0,1,2.678-1.354l.549-.7s-1.2.357-1.53.491-.406.055-.406.055a4.257,4.257,0,0,1,2.167-.843A10.651,10.651,0,0,0,1103.515,90.91Z" transform="translate(-889.418 -83.645)" fill="#2860b5" opacity="0.1"/>
    <path id="Path_3897" data-name="Path 3897" d="M671.938,103.29s-13.487,3.851-6.93,9.583a2.6,2.6,0,0,0,2.449,1.216s-.349-.47,1.095-.756a8.574,8.574,0,0,0,1.455-.43,2.6,2.6,0,0,0,1.342-1.072h0s2.838-2.27.975-6.847c0,0,.339-1.249.111-1.463l-1.686,1.382s1.622.833,1.757,1.934c0,0-1.636-1.924-2.027-1.735-.079.039-.843.76-.843.76s2.813,1.455,2.941,3.16c0,0-1.5-2.455-3.243-2.886l-1.054,1.139s3.081,1.445,3.334,3.383c0,0-1.7-2.532-3.539-3.121l-.811,1.216s2.967,1.447,3.162,3.061c0,0-2.4-2.807-3.318-2.773a4.75,4.75,0,0,0-.578,1.522s2.1,1.07,2.086,2.011c0,0-1.893-1.772-2.205-1.678a4.83,4.83,0,0,0,.349,2.572,3.852,3.852,0,0,1-.742-2.592,3.048,3.048,0,0,0-1.342,1.293s-.523-.951,1.4-1.7c0,0,.245-1.293.47-1.443a9.916,9.916,0,0,0-2.974,1.318s.381-1.192,3.17-1.646l.766-1.24a15.533,15.533,0,0,0-3.685,1.271s.675-1.168,3.918-1.573l1.014-1.125a19.944,19.944,0,0,0-3.709.983s.983-.983,4.017-1.3l.811-.693s-1.8.328-2.3.454-.608.045-.608.045a7.984,7.984,0,0,1,3.243-.795S672.055,103.375,671.938,103.29Z" transform="translate(-543.048 -93.515)" fill="#2860b5" opacity="0.1"/>
    <path id="Path_3898" data-name="Path 3898" d="M891.443,800.262s6.79-7.133.776-10.688a1.68,1.68,0,0,0-1.915-.474s.379.343-.391.989a4.577,4.577,0,0,0-.728.782,2.215,2.215,0,0,0-.43,1.346h0s-.91,2.848,1.851,6.581c0,0,.241,1.242.454,1.382l.529-1.725a2.976,2.976,0,0,1-1.753-1.32s1.676,1.342,1.842,1.066c.034-.057.239-.926.239-.926s-2.23-.608-2.907-2.136c0,0,1.784,1.869,2.988,1.806l.231-1.332s-2.38-.517-3.225-2.23c0,0,1.932,1.889,3.257,1.946l.051-1.342s-2.313-.559-3.014-2c0,0,2.453,1.958,3,1.68a6.037,6.037,0,0,0-.2-1.557s-1.65-.434-1.978-1.305c0,0,1.778,1.135,1.932.965a6.954,6.954,0,0,0-1.127-2.282,5.04,5.04,0,0,1,1.374,2.2,2.77,2.77,0,0,0,.351-1.551s.657.742-.243,1.94a6.408,6.408,0,0,1,.229,1.457,6.07,6.07,0,0,0,1.33-2,2.657,2.657,0,0,1-1.332,2.359l-.02,1.35a8.6,8.6,0,0,0,1.776-2.153s0,1.259-1.81,2.491l-.2,1.309A10.285,10.285,0,0,0,894.262,795a4.084,4.084,0,0,1-1.968,2.262l-.245.857s.973-.78,1.232-1.03.349-.2.349-.2a4.243,4.243,0,0,1-1.678,1.593A10.388,10.388,0,0,0,891.443,800.262Z" transform="translate(-722.762 -640.205)" fill="#2860b5" opacity="0.1"/>
    <path id="Path_3899" data-name="Path 3899" d="M575.85,55.587s1.157,9.778,7.733,7.419a1.681,1.681,0,0,0,1.587-1.174s-.507.073-.511-.932a4.538,4.538,0,0,0-.14-1.06,2.214,2.214,0,0,0-.76-1.19h0s-1.614-2.517-6.257-2.765c0,0-1.111-.608-1.354-.531l.991,1.506a2.968,2.968,0,0,1,2.134-.507s-2.1.434-2,.738c.02.063.559.774.559.774s1.9-1.338,3.517-.882c0,0-2.576.178-3.3,1.145l.866,1.03s1.917-1.5,3.784-1.056c0,0-2.688.284-3.578,1.267l1.009.9s1.9-1.431,3.446-1.046c0,0-3.073.641-3.207,1.234a6.483,6.483,0,0,0,1.324.847s1.386-1,2.266-.691c0,0-2.007.645-1.976.872a6.967,6.967,0,0,0,2.477.588,5.144,5.144,0,0,1-2.568-.345,2.78,2.78,0,0,0,.971,1.261s-.989.03-1.34-1.419a6.459,6.459,0,0,1-1.267-.752,6.068,6.068,0,0,0,.7,2.3,2.668,2.668,0,0,1-.969-2.532l-1.013-.878a8.65,8.65,0,0,0,.521,2.742s-.973-.8-.762-2.984l-.869-1a10.3,10.3,0,0,0,.245,2.663,4.081,4.081,0,0,1-.484-2.959l-.5-.736s-.018,1.247,0,1.607-.069.4-.069.4a4.257,4.257,0,0,1-.158-2.317A10.346,10.346,0,0,0,575.85,55.587Z" transform="translate(-473.396 -55.29)" fill="#2860b5" opacity="0.1"/>
    <path id="Path_3900" data-name="Path 3900" d="M779.317,733.382s-9.49-2.635-9.794,4.346a1.682,1.682,0,0,0,.484,1.913s.124-.495,1.056-.12a4.546,4.546,0,0,0,1.034.274,2.215,2.215,0,0,0,1.39-.255h0s2.939-.539,4.934-4.731c0,0,.983-.8,1.013-1.052l-1.77.347a2.975,2.975,0,0,1-.341,2.169s.405-2.112.075-2.128c-.067,0-.93.225-.93.225s.519,2.242-.517,3.569c0,0,.811-2.453.188-3.486l-1.285.424s.665,2.343-.458,3.9c0,0,.758-2.592.182-3.788l-1.2.586s.608,2.3-.338,3.588c0,0,.572-3.085.071-3.436a6.6,6.6,0,0,0-1.283.9s.405,1.66-.219,2.359c0,0,.162-2.1-.059-2.159a6.938,6.938,0,0,0-1.484,2.069,5.039,5.039,0,0,1,1.293-2.246,2.784,2.784,0,0,0-1.534.42s.345-.926,1.824-.7a6.353,6.353,0,0,1,1.178-.888,6.025,6.025,0,0,0-2.4-.231,2.682,2.682,0,0,1,2.71.065l1.2-.608a8.644,8.644,0,0,0-2.734-.555s1.1-.608,3.04.424l1.253-.428a10.313,10.313,0,0,0-2.558-.78,4.087,4.087,0,0,1,2.923.673l.872-.188s-1.147-.49-1.49-.608-.341-.2-.341-.2a4.256,4.256,0,0,1,2.2.73A10.493,10.493,0,0,0,779.317,733.382Z" transform="translate(-627.717 -595.502)" fill="#2860b5" opacity="0.1"/>
  </g>
</svg>
