<svg xmlns="http://www.w3.org/2000/svg" xmlns:xlink="http://www.w3.org/1999/xlink" width="240" height="160.372" viewBox="0 0 240 160.372">
  <defs>
    <linearGradient id="linear-gradient" x1="0.5" y1="1" x2="0.5" gradientUnits="objectBoundingBox">
      <stop offset="0" stop-color="gray" stop-opacity="0.251"/>
      <stop offset="0.54" stop-color="gray" stop-opacity="0.122"/>
      <stop offset="1" stop-color="gray" stop-opacity="0.102"/>
    </linearGradient>
    <linearGradient id="linear-gradient-2" x1="0.5" y1="1" x2="0.5" y2="0" xlink:href="#linear-gradient"/>
  </defs>
  <g id="undraw_true_friends_c94g" transform="translate(0.5 -0.001)">
    <g id="Group_464" data-name="Group 464" transform="translate(39.598 20.597)" opacity="0.2">
      <path id="Path_3781" data-name="Path 3781" d="M432.69,726.293a9.431,9.431,0,0,0,.478,1.444q4.617-1.814,9.335-3.477c-.027-.13-.053-.268-.086-.4a8.174,8.174,0,0,0-1.962-3.729A4.626,4.626,0,0,0,436,718.549a4.759,4.759,0,0,0-3.244,3.5A8.28,8.28,0,0,0,432.69,726.293Z" transform="translate(-389.351 -599.323)" fill="#3f3d56"/>
      <ellipse id="Ellipse_56" data-name="Ellipse 56" cx="5.013" cy="6.707" rx="5.013" ry="6.707" transform="translate(39.944 112.329) rotate(-12.59)" fill="#3f3d56"/>
      <ellipse id="Ellipse_57" data-name="Ellipse 57" cx="5.013" cy="6.707" rx="5.013" ry="6.707" transform="translate(38.048 104.354) rotate(-12.59)" fill="#3f3d56"/>
      <ellipse id="Ellipse_58" data-name="Ellipse 58" cx="5.013" cy="6.707" rx="5.013" ry="6.707" transform="translate(36.148 96.383) rotate(-12.59)" fill="#3f3d56"/>
      <ellipse id="Ellipse_59" data-name="Ellipse 59" cx="5.013" cy="6.707" rx="5.013" ry="6.707" transform="translate(34.248 88.411) rotate(-12.59)" fill="#3f3d56"/>
      <path id="Path_3782" data-name="Path 3782" d="M283.644,215.262a24.708,24.708,0,0,0,1.165-3.184l-13.286,1.045,13.848-3.35a25.09,25.09,0,0,0-.246-10.514,24.8,24.8,0,0,0-3.815-8.51L265.1,205.242l14.032-17.154a23.579,23.579,0,0,0-23-6.864c-12.867,3.217-20.752,16.512-17.613,29.694a24.521,24.521,0,0,0,8.5,13.507,25.048,25.048,0,0,0-1.623,5.013l18.693,4.681-19.136-1.659a25.123,25.123,0,0,0,.593,7.972,24.544,24.544,0,0,0,8.5,13.507,24.988,24.988,0,0,0-1.47,16,23.955,23.955,0,0,0,28.983,18.042c12.867-3.215,20.752-16.51,17.613-29.692a24.543,24.543,0,0,0-8.5-13.507,24.988,24.988,0,0,0,1.47-16A24.528,24.528,0,0,0,283.644,215.262Z" transform="translate(-237.827 -180.514)" fill="#2860b5"/>
      <path id="Path_3783" data-name="Path 3783" d="M272.678,447.014a24.544,24.544,0,0,0,8.5,13.507,24.988,24.988,0,0,0-1.47,16,23.955,23.955,0,0,0,28.983,18.042c12.867-3.215,20.752-16.51,17.613-29.692a24.544,24.544,0,0,0-8.5-13.507C319.96,446.527,272.04,444.341,272.678,447.014Z" transform="translate(-264.956 -387.105)" opacity="0.1"/>
    </g>
    <g id="Group_465" data-name="Group 465" transform="translate(127.311 0.001)" opacity="0.2">
      <path id="Path_3784" data-name="Path 3784" d="M702.889,718.973a10.328,10.328,0,0,0-.1,1.74q5.79.093,11.625.39c.027-.153.053-.308.075-.465a9.227,9.227,0,0,0-.543-4.812,5.094,5.094,0,0,0-9.18-1.326A9.242,9.242,0,0,0,702.889,718.973Z" transform="translate(-687.546 -573.841)" fill="#3f3d56"/>
      <ellipse id="Ellipse_60" data-name="Ellipse 60" cx="7.675" cy="5.863" rx="7.675" ry="5.863" transform="translate(15.592 143.447) rotate(-81.82)" fill="#3f3d56"/>
      <ellipse id="Ellipse_61" data-name="Ellipse 61" cx="7.675" cy="5.863" rx="7.675" ry="5.863" transform="translate(16.926 134.162) rotate(-81.82)" fill="#3f3d56"/>
      <ellipse id="Ellipse_62" data-name="Ellipse 62" cx="7.675" cy="5.863" rx="7.675" ry="5.863" transform="translate(18.26 124.878) rotate(-81.82)" fill="#3f3d56"/>
      <ellipse id="Ellipse_63" data-name="Ellipse 63" cx="7.675" cy="5.863" rx="7.675" ry="5.863" transform="translate(19.596 115.593) rotate(-81.82)" fill="#3f3d56"/>
      <path id="Path_3785" data-name="Path 3785" d="M691.289,135.91a27.74,27.74,0,0,0,2.617-2.879l-14.887-4.677,16.472,2.491a28.139,28.139,0,0,0,3.7-21.948l-23.773,8.29,22.559-12.068a28.084,28.084,0,1,0-50.38,24.512,28.142,28.142,0,0,0-3.891,4.612l18.315,13.126-20.086-10.115A28.1,28.1,0,0,0,642.654,164a28.082,28.082,0,1,0,43.695,6.28A28.086,28.086,0,0,0,691.289,135.91Z" transform="translate(-633.95 -87.501)" fill="#2860b5"/>
      <path id="Path_3786" data-name="Path 3786" d="M639.176,350.51a27.968,27.968,0,0,0,3.479,18.042,28.082,28.082,0,1,0,43.695,6.28C690.756,370.636,639.625,347.391,639.176,350.51Z" transform="translate(-633.95 -292.049)" opacity="0.1"/>
    </g>
    <ellipse id="Ellipse_64" data-name="Ellipse 64" cx="120" cy="7" rx="120" ry="7" transform="translate(-0.5 146.373)" fill="#2860b5" opacity="0.1"/>
    <ellipse id="Ellipse_65" data-name="Ellipse 65" cx="5.602" cy="1.078" rx="5.602" ry="1.078" transform="translate(192.512 148.751)" fill="#2860b5"/>
    <ellipse id="Ellipse_66" data-name="Ellipse 66" cx="0.653" cy="0.855" rx="0.653" ry="0.855" transform="translate(197.368 148.518)" fill="#3f3d56"/>
    <ellipse id="Ellipse_67" data-name="Ellipse 67" cx="0.653" cy="0.855" rx="0.653" ry="0.855" transform="translate(197.368 147.473)" fill="#3f3d56"/>
    <ellipse id="Ellipse_68" data-name="Ellipse 68" cx="0.653" cy="0.855" rx="0.653" ry="0.855" transform="translate(197.368 146.43)" fill="#3f3d56"/>
    <ellipse id="Ellipse_69" data-name="Ellipse 69" cx="0.653" cy="0.855" rx="0.653" ry="0.855" transform="translate(197.368 145.387)" fill="#3f3d56"/>
    <ellipse id="Ellipse_70" data-name="Ellipse 70" cx="0.653" cy="0.855" rx="0.653" ry="0.855" transform="translate(197.368 144.342)" fill="#3f3d56"/>
    <ellipse id="Ellipse_71" data-name="Ellipse 71" cx="0.653" cy="0.855" rx="0.653" ry="0.855" transform="translate(197.368 143.299)" fill="#3f3d56"/>
    <ellipse id="Ellipse_72" data-name="Ellipse 72" cx="0.653" cy="0.855" rx="0.653" ry="0.855" transform="translate(197.368 142.256)" fill="#3f3d56"/>
    <path id="Path_3787" data-name="Path 3787" d="M944.649,683.722a3,3,0,0,0,.244-.359l-1.714-.281,1.853.013a3.135,3.135,0,0,0,.06-2.476l-2.487,1.291,2.294-1.687a3.127,3.127,0,1,0-5.162,3.5,3.194,3.194,0,0,0-.357.569l2.214,1.156-2.371-.8a38.449,38.449,0,0,1,.849,7.163,6.325,6.325,0,0,0,4.576-8.089Z" transform="translate(-744.188 -547.752)" fill="#2860b5"/>
    <path id="Path_3788" data-name="Path 3788" d="M939.084,710.109a12.5,12.5,0,0,1,1,6.158,3.124,3.124,0,0,0,4.576-4.227C945.083,711.508,939.084,709.759,939.084,710.109Z" transform="translate(-744.203 -572.208)" opacity="0.1"/>
    <ellipse id="Ellipse_73" data-name="Ellipse 73" cx="7.484" cy="1.439" rx="7.484" ry="1.439" transform="translate(61.978 156.702)" fill="#2860b5"/>
    <ellipse id="Ellipse_74" data-name="Ellipse 74" cx="0.872" cy="1.14" rx="0.872" ry="1.14" transform="translate(68.464 156.39)" fill="#3f3d56"/>
    <ellipse id="Ellipse_75" data-name="Ellipse 75" cx="0.872" cy="1.14" rx="0.872" ry="1.14" transform="translate(68.464 154.995)" fill="#3f3d56"/>
    <ellipse id="Ellipse_76" data-name="Ellipse 76" cx="0.872" cy="1.14" rx="0.872" ry="1.14" transform="translate(68.464 153.6)" fill="#3f3d56"/>
    <ellipse id="Ellipse_77" data-name="Ellipse 77" cx="0.872" cy="1.14" rx="0.872" ry="1.14" transform="translate(68.464 152.207)" fill="#3f3d56"/>
    <ellipse id="Ellipse_78" data-name="Ellipse 78" cx="0.872" cy="1.14" rx="0.872" ry="1.14" transform="translate(68.464 150.812)" fill="#3f3d56"/>
    <ellipse id="Ellipse_79" data-name="Ellipse 79" cx="0.872" cy="1.14" rx="0.872" ry="1.14" transform="translate(68.464 149.417)" fill="#3f3d56"/>
    <ellipse id="Ellipse_80" data-name="Ellipse 80" cx="0.872" cy="1.14" rx="0.872" ry="1.14" transform="translate(68.464 148.025)" fill="#3f3d56"/>
    <path id="Path_3789" data-name="Path 3789" d="M360.624,694.385a4.42,4.42,0,0,0,.323-.478l-2.287-.376,2.476.02a4.172,4.172,0,0,0,.08-3.308l-3.321,1.723,3.062-2.241a4.174,4.174,0,1,0-6.9,4.672,4.273,4.273,0,0,0-.476.762l2.974,1.55-3.171-1.063a54.542,54.542,0,0,1,1.114,9.565,8.451,8.451,0,0,0,6.113-10.807Z" transform="translate(-288.024 -554.761)" fill="#2860b5"/>
    <path id="Path_3790" data-name="Path 3790" d="M353.176,729.485a16.781,16.781,0,0,1,1.336,8.228,4.174,4.174,0,0,0,6.113-5.646C361.19,731.356,353.176,729.018,353.176,729.485Z" transform="translate(-288.032 -587.282)" opacity="0.1"/>
    <path id="Path_3791" data-name="Path 3791" d="M383.5,309.884a58.559,58.559,0,0,1-1.3-8.919c-.062-1.771.062-3.574-.166-5.341-.113-.868-.31-1.721-.5-2.573l-.784-3.412a5.7,5.7,0,0,0-.075-1.964,6.862,6.862,0,0,0-.312-1,15.5,15.5,0,0,0,1.8-3.321,3.314,3.314,0,0,0,.306-1.659c-.159-1.078-1.2-1.789-2.177-2.321a4.779,4.779,0,0,0-1.882-.682,3.058,3.058,0,0,0-2.48,1.107,5.387,5.387,0,0,1,.159-2.62c-.578-.259-1.16-.5-1.747-.74a16.043,16.043,0,0,1-.089-2.305c.013-.923.029-1.856.082-2.781a8.215,8.215,0,0,0,5.4-7.668v-.281a6.661,6.661,0,0,0,.571-5.111,9,9,0,0,0-4.389-5.166,15.111,15.111,0,0,0-6.758-1.687,9.723,9.723,0,0,0-2.352.148,11.344,11.344,0,0,0-2.4.886,10.1,10.1,0,0,0-3.228,2.064c-1.521,1.623-1.862,4.008-1.7,6.2a27.563,27.563,0,0,0,2.294,8.344,10.246,10.246,0,0,0,1.373,2.54,1.455,1.455,0,0,0,1.942.21q-.078,1.061-.049,2.126a5.366,5.366,0,0,0-3.339.833,1.5,1.5,0,0,0-.766,1.351,1.255,1.255,0,0,1,1.209,1.074,2.319,2.319,0,0,1-.418,1.329c-.1.182-.2.365-.3.547a6.529,6.529,0,0,0-2.015,3.558,4.439,4.439,0,0,0-.463.069c-.864.159-1.723.454-2.571.675l-6.138,1.616-1.517.421-2.436.642a17.232,17.232,0,0,0-4.5,1.645,5.644,5.644,0,0,0-2.819,3.656c-.137.771-.053,1.572-.221,2.336a.4.4,0,0,1-.022.1,7.473,7.473,0,0,1-.565,1.4,19.285,19.285,0,0,0-2.17,9.249,26.956,26.956,0,0,0,1.2,5.757q.844,2.894,1.665,5.788a30.389,30.389,0,0,0,1.371,4.052,15.61,15.61,0,0,0,4.1,5.485,7.245,7.245,0,0,0,1.639,1.107,5.959,5.959,0,0,0,2.879.467c.266-.018.527-.046.786-.089a14.329,14.329,0,0,0,5.3-2.25q1.021-.647,1.993-1.362a12.641,12.641,0,0,0,.443,2.2,3.935,3.935,0,0,1,.264,1.512,8.129,8.129,0,0,1-.866,1.966c-.569,1.413.016,2.987.111,4.5a16.517,16.517,0,0,1-.531,4.225,44.111,44.111,0,0,0-.817,7.068,21.383,21.383,0,0,1-.177,2.688c-.206,1.258-.689,2.471-.773,3.742-.128,1.98.726,3.917.649,5.9-.091,2.327-1.457,4.588-.981,6.864.06.286.221.616.483.689l-.128.117c-.392.363-.773,1.034-.328,1.329a.871.871,0,0,0,.334.115c.689.144,1.382.275,2.075.4a6.421,6.421,0,0,0,.239,1.9c.126.091.255.173.383.25a.511.511,0,0,0,.14.664.871.871,0,0,0,.334.115,72.3,72.3,0,0,0,17.349,1.439,6.281,6.281,0,0,0,3.016-.647,2.176,2.176,0,0,0,1.065-2.6,3.35,3.35,0,0,0-2.232-1.455l-1.032-.319a1.771,1.771,0,0,0,.093-1.55,3.35,3.35,0,0,0-2.232-1.455l-2.376-.737a2.333,2.333,0,0,1-.864-.405,4.7,4.7,0,0,1-.469-.545,2.657,2.657,0,0,0-1.3-.813,10.073,10.073,0,0,1,.033-1.51l.664-8.018a17.361,17.361,0,0,0-.128-5.441,4.874,4.874,0,0,1-.277-2.179c.259-1.178,1.5-1.833,2.345-2.708A9.1,9.1,0,0,0,373.4,335.7a101.253,101.253,0,0,0,1.134-22.455,35.872,35.872,0,0,1,8.153-1.311.842.842,0,0,0,.846-.68A2.733,2.733,0,0,0,383.5,309.884Zm-13.253.392c.016-.077.033-.155.047-.232l.184.235Z" transform="translate(-274.632 -215.126)" fill="url(#linear-gradient)"/>
    <path id="Path_3792" data-name="Path 3792" d="M466.218,322.168c-.058.771-.33,1.51-.43,2.279-.113.846-.013,1.707-.069,2.56a3.255,3.255,0,0,1-.95,2.305,44.759,44.759,0,0,1,11.054,2.391c-1.078-1.329-1.107-3.184-1.081-4.889a23.773,23.773,0,0,1,.9-7.473,18.188,18.188,0,0,0-7.471-.1c-.536.106-2.159.04-2.4.54C465.6,320.15,466.258,321.61,466.218,322.168Z" transform="translate(-374.92 -267.662)" fill="#a1616a"/>
    <path id="Path_3793" data-name="Path 3793" d="M466.218,322.168c-.058.771-.33,1.51-.43,2.279-.113.846-.013,1.707-.069,2.56a3.255,3.255,0,0,1-.95,2.305,44.759,44.759,0,0,1,11.054,2.391c-1.078-1.329-1.107-3.184-1.081-4.889a23.773,23.773,0,0,1,.9-7.473,18.188,18.188,0,0,0-7.471-.1c-.536.106-2.159.04-2.4.54C465.6,320.15,466.258,321.61,466.218,322.168Z" transform="translate(-374.92 -267.662)" opacity="0.1"/>
    <path id="Path_3794" data-name="Path 3794" d="M436.323,744.508a4.61,4.61,0,0,0,.443.556,2.228,2.228,0,0,0,.844.405l2.321.737a3.266,3.266,0,0,1,2.183,1.453,2.194,2.194,0,0,1-1.043,2.591,6.047,6.047,0,0,1-2.947.647,69.337,69.337,0,0,1-16.959-1.437.887.887,0,0,1-.326-.115c-.443-.3-.064-.968.319-1.329,1.495-1.417,3.12-2.9,5.155-3.231,1.07-.175,2.143-.1,3.206-.359.764-.184,1.486-.5,2.247-.689C433.185,743.389,435.309,743.265,436.323,744.508Z" transform="translate(-340.561 -598.241)" fill="#46455b"/>
    <path id="Path_3795" data-name="Path 3795" d="M436.323,744.508a4.61,4.61,0,0,0,.443.556,2.228,2.228,0,0,0,.844.405l2.321.737a3.266,3.266,0,0,1,2.183,1.453,2.194,2.194,0,0,1-1.043,2.591,6.047,6.047,0,0,1-2.947.647,69.337,69.337,0,0,1-16.959-1.437.887.887,0,0,1-.326-.115c-.443-.3-.064-.968.319-1.329,1.495-1.417,3.12-2.9,5.155-3.231,1.07-.175,2.143-.1,3.206-.359.764-.184,1.486-.5,2.247-.689C433.185,743.389,435.309,743.265,436.323,744.508Z" transform="translate(-340.561 -598.241)" opacity="0.1"/>
    <path id="Path_3796" data-name="Path 3796" d="M424.971,515.653a14.075,14.075,0,0,0-.2,9.413c-.773-.084-1.107.961-1.087,1.74a12.892,12.892,0,0,0,.489,3.206,4.021,4.021,0,0,1,.259,1.51,8.187,8.187,0,0,1-.848,1.964c-.554,1.411.015,2.983.111,4.5a16.754,16.754,0,0,1-.523,4.22,45.01,45.01,0,0,0-.8,7.057,21.287,21.287,0,0,1-.175,2.686c-.2,1.258-.664,2.469-.753,3.738-.126,1.975.709,3.913.633,5.892-.089,2.323-1.426,4.581-.959,6.864.066.321.246.7.576.7,3.339.042,6.459-.886,9.763-.4.337-7.644.664-15.323,2.17-22.827,1.329-6.681,3.581-13.286,3.37-20.1-.122-3.9-1.047-7.715-1.61-11.572A15.224,15.224,0,0,0,424.971,515.653Z" transform="translate(-340.861 -419.47)" fill="#bbbdc8"/>
    <path id="Path_3797" data-name="Path 3797" d="M424.971,515.653a14.075,14.075,0,0,0-.2,9.413c-.773-.084-1.107.961-1.087,1.74a12.892,12.892,0,0,0,.489,3.206,4.021,4.021,0,0,1,.259,1.51,8.187,8.187,0,0,1-.848,1.964c-.554,1.411.015,2.983.111,4.5a16.754,16.754,0,0,1-.523,4.22,45.01,45.01,0,0,0-.8,7.057,21.287,21.287,0,0,1-.175,2.686c-.2,1.258-.664,2.469-.753,3.738-.126,1.975.709,3.913.633,5.892-.089,2.323-1.426,4.581-.959,6.864.066.321.246.7.576.7,3.339.042,6.459-.886,9.763-.4.337-7.644.664-15.323,2.17-22.827,1.329-6.681,3.581-13.286,3.37-20.1-.122-3.9-1.047-7.715-1.61-11.572A15.224,15.224,0,0,0,424.971,515.653Z" transform="translate(-340.861 -419.47)" opacity="0.1"/>
    <path id="Path_3798" data-name="Path 3798" d="M450.323,759.508a4.607,4.607,0,0,0,.443.556,2.229,2.229,0,0,0,.844.405l2.321.737a3.267,3.267,0,0,1,2.183,1.453,2.194,2.194,0,0,1-1.043,2.591,6.048,6.048,0,0,1-2.947.647,69.339,69.339,0,0,1-16.959-1.437.887.887,0,0,1-.326-.115c-.443-.3-.064-.968.319-1.328,1.495-1.417,3.12-2.9,5.155-3.231,1.069-.175,2.143-.1,3.206-.359.764-.184,1.486-.5,2.248-.689C447.185,758.389,449.309,758.265,450.323,759.508Z" transform="translate(-351.461 -609.92)" fill="#46455b"/>
    <path id="Path_3799" data-name="Path 3799" d="M434.886,517.519a5.683,5.683,0,0,0-.992,3.955,16.537,16.537,0,0,0,1.041,4.03c-.609.56-.483,1.526-.4,2.349.29,3.06-.773,6.114-.618,9.183.064,1.291.345,2.564.412,3.855a24.768,24.768,0,0,1-.275,4.223,251.912,251.912,0,0,0-1.772,27.034,8.739,8.739,0,0,0,.221,2.476,6.724,6.724,0,0,0,5.58.9,21.1,21.1,0,0,0,5.474-2.4,16.905,16.905,0,0,0,2.71-1.749,1.446,1.446,0,0,0,.545-.748c.186-.886-1.045-1.286-1.751-1.86-1.027-.835-1.012-2.38-.906-3.7l.642-8.007a17.726,17.726,0,0,0-.124-5.434,5.052,5.052,0,0,1-.272-2.177c.252-1.174,1.466-1.829,2.292-2.7a9.209,9.209,0,0,0,1.922-5.007A103.484,103.484,0,0,0,449.471,516c-1.628.565-3.556.257-5.272.39s-3.421.706-5.159.753C437.592,517.176,435.776,516.376,434.886,517.519Z" transform="translate(-349.624 -421.116)" fill="#bbbdc8"/>
    <ellipse id="Ellipse_81" data-name="Ellipse 81" cx="8" cy="8.5" rx="8" ry="8.5" transform="translate(88.5 40.373)" fill="#a1616a"/>
    <path id="Path_3800" data-name="Path 3800" d="M448.1,357.008a44.094,44.094,0,0,0-8.173-2.821c-1.98-.472-4.24-.755-5.895.43a1.485,1.485,0,0,0-.748,1.351,1.231,1.231,0,0,1,1.18,1.072,2.351,2.351,0,0,1-.407,1.329l-1.911,3.543a10.128,10.128,0,0,0-1.492,5.509l-.221,3.215a38.493,38.493,0,0,0-.093,6.083,19.864,19.864,0,0,1,.239,4.575c-.175,1.22-.691,2.365-.981,3.565-.545,2.259-.3,4.734-1.353,6.807a2.051,2.051,0,0,1,1.371-.124c3.206.591,5.728,3.122,8.842,4.09.786-1.147,1.851-1.993,2.73-3.06a5.917,5.917,0,0,0,1.255-2.777,10.444,10.444,0,0,1,1.625,2.6,1.75,1.75,0,0,0,.354.649c.419.407,1.107.25,1.667.08a34.365,34.365,0,0,1,8.452-1.433.828.828,0,0,0,.828-.68,2.739,2.739,0,0,0-.022-1.364,59.814,59.814,0,0,1-1.269-8.908c-.062-1.771.06-3.567-.164-5.334-.111-.866-.3-1.718-.494-2.569l-1.581-7.026c-.089-.392-.509-.649-.689-1.01-.726-1.47-2.115-2.533-2.832-4.008A5.254,5.254,0,0,1,448.1,357.008Z" transform="translate(-346.479 -294.816)" fill="#46455b"/>
    <path id="Path_3801" data-name="Path 3801" d="M449.19,267.754a.542.542,0,0,1,.078-.328.739.739,0,0,1,.319-.2,1.681,1.681,0,0,0,.937-1.8l.775-.162.024-2.7c1.151-.638,2.721-.155,3.8-.906a5.149,5.149,0,0,0,1.293-1.789,2.339,2.339,0,0,1,1.665-1.342,4.743,4.743,0,0,0,.255,4.015,4.573,4.573,0,0,0,1.867-1.745l.385,2.214a.549.549,0,0,0,.164.361c.2.148.474-.038.651-.221l1-.985a13.808,13.808,0,0,1,.861,3.3A6.509,6.509,0,0,0,464.8,259.1a8.958,8.958,0,0,0-4.289-5.159,14.5,14.5,0,0,0-6.605-1.685,9.393,9.393,0,0,0-2.3.148,10.911,10.911,0,0,0-2.343.886,9.813,9.813,0,0,0-3.155,2.059c-1.488,1.621-1.822,4-1.659,6.2a28.086,28.086,0,0,0,2.243,8.332,10.278,10.278,0,0,0,1.342,2.538c.9,1.136,3.1.193,2.819-2.053C450.656,268.761,449.19,269.379,449.19,267.754Z" transform="translate(-359.068 -215.759)" fill="#3f3d56"/>
    <path id="Path_3802" data-name="Path 3802" d="M371.672,421.24A34.742,34.742,0,0,1,359.393,435.1a13.859,13.859,0,0,1-5.184,2.248c-.255.042-.509.071-.768.089a5.734,5.734,0,0,1-2.806-.476,7.086,7.086,0,0,1-1.6-1.107,15.568,15.568,0,0,1-4.01-5.476,30.834,30.834,0,0,1-1.34-4.048q-.815-2.892-1.625-5.786a27.153,27.153,0,0,1-1.174-5.757,19.6,19.6,0,0,1,2.121-9.236,7.619,7.619,0,0,0,.551-1.4.6.6,0,0,1,.022-.1c.159-.764.077-1.563.221-2.334a5.62,5.62,0,0,1,2.755-3.651,16.523,16.523,0,0,1,4.4-1.643l2.376-.64,1.475-.4,6-1.614c.83-.221,1.67-.516,2.513-.664.941-.177.934-.084,1.008.837a38.107,38.107,0,0,0,.443,4.964c.334,1.579.923,3.1,1.366,4.65,1.118,3.913,1.3,8.031,2.186,12.006A4.068,4.068,0,0,0,369.533,418c.835.664,2.241.828,2.462,1.869A2.388,2.388,0,0,1,371.672,421.24Z" transform="translate(-278.449 -325.382)" fill="#2860b5"/>
    <path id="Path_3803" data-name="Path 3803" d="M354.21,476.075c-.255.042-.509.071-.768.089a5.734,5.734,0,0,1-2.806-.467,7.085,7.085,0,0,1-1.6-1.107,15.569,15.569,0,0,1-4.01-5.476,30.837,30.837,0,0,1-1.34-4.048q-.815-2.892-1.625-5.786a27.151,27.151,0,0,1-1.174-5.757,19.6,19.6,0,0,1,2.121-9.236,7.618,7.618,0,0,0,.551-1.395.6.6,0,0,1,.022-.1c3.614.635,7.949,7.549,10.186,16.607C355.412,466.171,355.483,472.409,354.21,476.075Z" transform="translate(-278.449 -364.117)" opacity="0.1"/>
    <path id="Path_3804" data-name="Path 3804" d="M404.519,421.8l-.6.1c-.622-1.634-1.242-3.271-1.971-4.86-.379-.83-.788-1.65-1.107-2.507-1.2-3.29-.992-7.194-3.208-9.9a3.39,3.39,0,0,0-.538-.545l1.475-.4a20,20,0,0,1,2.688,6.667,26.614,26.614,0,0,0,.764,3.45,23.849,23.849,0,0,0,1.136,2.467A11.337,11.337,0,0,1,404.519,421.8Z" transform="translate(-322.227 -333.675)" opacity="0.1"/>
    <path id="Path_3805" data-name="Path 3805" d="M447.11,366.283a7.322,7.322,0,0,1,5.826-1.771,11.144,11.144,0,0,1,3.428,1.329,18.42,18.42,0,0,1,5.735,4.269,17.114,17.114,0,0,1,2.263,3.809,9.233,9.233,0,0,1,.664,1.862c.54,2.5-.786,4.989-2.064,7.208l-2.458,4.265a36.843,36.843,0,0,1-3.738,5.653c-.678.793-1.422,1.526-2.163,2.259l-3.257,3.215a.366.366,0,0,1-.6,0l-1.076-.857a18.307,18.307,0,0,0,2.75-2.332,36.969,36.969,0,0,0,3.718-4.8l3.583-5.195c1.047-1.521,2.141-3.2,2.024-5.038A7.747,7.747,0,0,0,461,377.62q-.923-2.168-2.006-4.267a21.676,21.676,0,0,0-2.863-4.446,9.314,9.314,0,0,0-4.34-2.916,3.613,3.613,0,0,0-1.572-.151,4.878,4.878,0,0,0-2.73,2.124l-2.245,2.879c-.511.653-.981,1.41-1.012.17C444.183,369.244,445.972,367.421,447.11,366.283Z" transform="translate(-358.932 -303.109)" fill="#2860b5"/>
    <path id="Path_3806" data-name="Path 3806" d="M454.5,393.961c.443,1.705,1.1,3.64,2.737,4.287a3.76,3.76,0,0,0,3.53-.664,9.9,9.9,0,0,0,2.374-2.879,27.976,27.976,0,0,1,1.831-2.777c1.313-1.647,3.1-2.954,3.986-4.871.261-.571.443-1.182.74-1.732a10.817,10.817,0,0,1,1.072-1.433,15.529,15.529,0,0,0,2.416-4.194,3.374,3.374,0,0,0,.3-1.656c-.157-1.078-1.178-1.787-2.128-2.316a4.588,4.588,0,0,0-1.84-.682,2.978,2.978,0,0,0-2.5,1.2,4.8,4.8,0,0,0-.912,2.695,12.946,12.946,0,0,1-.221,3.523,5.537,5.537,0,0,1-.835,1.444,16.927,16.927,0,0,1-4.542,4.192,7.879,7.879,0,0,0-.538-2.442c-.168-.43-3.468,0-3.9.071-.85.124-2.5.221-3.034,1.032s.128,2.172.345,2.989Z" transform="translate(-365.631 -311.367)" fill="#a1616a"/>
    <path id="Path_3807" data-name="Path 3807" d="M449.493,372.776a11.649,11.649,0,0,0-1.364,1.329,7.6,7.6,0,0,0-1.588,4.26,18.312,18.312,0,0,0,.35,4.592q.359,2.042.848,4.054a2.8,2.8,0,0,1,1.86-2.214,5.944,5.944,0,0,1,3-.177,14.691,14.691,0,0,1,3.778,1.092l.467-6.548a11.41,11.41,0,0,0-.016-2.657,5.857,5.857,0,0,0-2.732-3.975C452.325,371.452,451.087,371.384,449.493,372.776Z" transform="translate(-360.7 -308.789)" fill="#46455b"/>
    <path id="Path_3808" data-name="Path 3808" d="M641.752,308.655a15.463,15.463,0,0,0-1.528-5.1,18.361,18.361,0,0,1-1.393-2.949c-.25-.848-.3-1.74-.5-2.6s-.551-1.685-.835-2.526c-2-5.979-.5-12.52-1.145-18.786-.241-2.312-.95-4.847-2.954-6.052a8.382,8.382,0,0,0-4.023-.886l-.64-.029-1.027-.051a17.012,17.012,0,0,0-4.429.184c-1.771.387-3.871,1.634-4.429,3.443-.306-.157-.613-.3-.9-.427a16.088,16.088,0,0,0-3.563-1.107,13.314,13.314,0,0,0,3.025-1.169c2.214-1.289,2.728-5.053,3.18-7.571a16.218,16.218,0,0,0-.711-7.566,13.007,13.007,0,0,0-1.008-2.507,8.744,8.744,0,0,0-12.436-3.078,26.534,26.534,0,0,0-5.562,5.224c-.221.261-1.147,1.187-.839,1.577.173.221.742.044,1.34-.221a8.124,8.124,0,0,0-.7,3.3,8.22,8.22,0,0,0,4.037,7.068l.221,2.037v.016c.024.68.035,1.36.044,2.037,0,.476,0,.963-.013,1.45a10,10,0,0,1-3.3,2.458,5.293,5.293,0,0,0,3-.487,4.276,4.276,0,0,1-.775,1.492c.266-.093.531-.177.8-.266a5.8,5.8,0,0,0-.37.7,5.378,5.378,0,0,0-.357,1.182,16.611,16.611,0,0,0-1.459,2.608h0c-.186.414-.352.835-.5,1.262v.029q-.221.638-.392,1.293h0q-.08.314-.146.631v.047q-.133.641-.221,1.291v.089c-.024.2-.047.405-.062.609v.031c-.018.221-.031.432-.038.649v.764c0,.416.027.835.066,1.253a.527.527,0,0,0,.016.155c.018.171.038.341.062.514a.3.3,0,0,0,.016.117c.029.206.062.41.1.613a.741.741,0,0,0,.029.135c.031.164.064.326.1.489l.04.168c.049.2.1.405.157.609.033.115.066.221.1.343a8.629,8.629,0,0,1,.221,1.278l-1.211.04q-3.888.111-7.77.352a3.05,3.05,0,0,0-2.814-2.137,5.555,5.555,0,0,0-.664-.04h0a3.688,3.688,0,0,0,.633-.689,3.052,3.052,0,0,0,.5-1.107,3.031,3.031,0,0,0-.917.8c-.082.111-.155.221-.221.323v-.664a.1.1,0,0,0-.106-.106h-.221a.1.1,0,0,0-.106.106v1.353h-.12c-.146.013-.288.031-.427.058A2.87,2.87,0,0,0,586,293.583a3.543,3.543,0,0,0,1.249,2.7,7.767,7.767,0,0,0,.343,1.492,1.993,1.993,0,0,0,.8,1.242,1.827,1.827,0,0,0,.872.159c2.462,0,4.792-1.136,7.243-1.329,1.515-.122,3.036.113,4.555.066.221,0,.443-.022.664-.04-2.077,10.285-4.59,20.7-3.277,31.091a2.994,2.994,0,0,0,.737,1.909,3.434,3.434,0,0,0,2.657.443,22.211,22.211,0,0,1,7.518.6,2.282,2.282,0,0,0,1.058.038,1.969,1.969,0,0,0,.221-.064l.062-.024c.047-.018.091-.035.133-.055l.064-.033.108-.066c.018-.013.038-.024.053-.038a.849.849,0,0,0,.108-.089l.031-.027a1.585,1.585,0,0,0,.117-.128l.027-.04a1.091,1.091,0,0,0,.071-.1c.011-.018.022-.035.031-.053s.035-.066.051-.1a.415.415,0,0,0,.024-.06c.007-.02.029-.073.042-.111s0-.035.018-.055a.634.634,0,0,0,.042-.166V330.7a1.042,1.042,0,0,1,.024-.142.258.258,0,0,0,0-.073v-.562h0a5.68,5.68,0,0,0-.042-.587,3.509,3.509,0,0,0,.483.1h0a2.707,2.707,0,0,0,.461.033h.022a.942.942,0,0,0,.221-.018h0a1.8,1.8,0,0,0,.19-.04h.029a1.021,1.021,0,0,0,.168-.066l.027-.015a.893.893,0,0,0,.131-.089l.02-.016a.774.774,0,0,0,.111-.128l.02-.033a.756.756,0,0,0,.078-.171c.126-.427-.162-.91.3-1.3a17.553,17.553,0,0,1,.959,4.309,2.81,2.81,0,0,0,.314,1.55,6.5,6.5,0,0,0,.664.678,3.82,3.82,0,0,1,.647,2.83c-.02.4-.042.8-.071,1.2a59.456,59.456,0,0,1-3.233,15.68,8.448,8.448,0,0,1-.678,1.55,7.5,7.5,0,0,1-1.663,1.829,21.1,21.1,0,0,1-2.956,2.1,9.038,9.038,0,0,0-1.5,1c-.018-.051-.038-.1-.051-.153-.024-.1-.058-.221-.157-.259a.3.3,0,0,0-.221.035c-1.039.456-2.077.912-3.076,1.446a3.589,3.589,0,0,0-1.3,1,1.361,1.361,0,0,0-.084,1.55,1.979,1.979,0,0,0,1.291.6c.616.108,1.233.186,1.851.244a2.8,2.8,0,0,0-.817.726,1.361,1.361,0,0,0-.084,1.55,1.979,1.979,0,0,0,1.291.6c3.926.693,7.952.221,11.937.1a13.1,13.1,0,0,0,3.846-.472,1.937,1.937,0,0,0,.664-.348,2.314,2.314,0,0,0,.405-2.088l-.405-2.994a.788.788,0,0,0-.175.033,44.246,44.246,0,0,1,1.818-8.281c1.351-4.2,3.361-8.33,3.335-12.721v-.319c-.038-1.375-.283-2.735-.443-4.1a59.783,59.783,0,0,1-.206-6.9,14.838,14.838,0,0,1,.188-2.695.448.448,0,0,1,.02-.091l3.678-.1a2.593,2.593,0,0,0,1.187-.221.78.78,0,0,0,.43-.95,3.133,3.133,0,0,0,4.127-1.9,3.318,3.318,0,0,0,.078-.352.114.114,0,0,1,0-.027c.016-.111.027-.221.031-.33v-.055h0a6.174,6.174,0,0,0-.348-2.236,37.6,37.6,0,0,0-3.073-6.038c-.58-1.016-1.143-2.046-1.69-3.08l.48.618a2.094,2.094,0,0,0,.649.622c.9.463,1.836-.469,2.748-.9,1.211-.571,2.628-.235,3.966-.139s2.949-.25,3.428-1.49A3.269,3.269,0,0,0,641.752,308.655Zm-23.057-33.279c0,.474.031.954.069,1.437a13.426,13.426,0,0,0-1.55-2.059Z" transform="translate(-469.306 -212.806)" fill="url(#linear-gradient-2)"/>
    <path id="Path_3809" data-name="Path 3809" d="M601.152,433.449a.62.62,0,1,1,.407.308c-.385.525-.791.886-.9.8S600.762,433.974,601.152,433.449Z" transform="translate(-480.694 -356.223)" fill="#99d55c"/>
    <path id="Path_3810" data-name="Path 3810" d="M601.854,434.346a2.235,2.235,0,0,1,.664-.6,2.27,2.27,0,0,1-.37.819c-.288.39-.589.664-.664.6S601.566,434.735,601.854,434.346Z" transform="translate(-481.347 -357.079)" opacity="0.1"/>
    <path id="Path_3811" data-name="Path 3811" d="M541.243,346.77h.221a.106.106,0,0,1,.106.106v2.509h-.421v-2.509a.106.106,0,0,1,.093-.106Z" transform="translate(-421.323 -269.984)" fill="#f6987e"/>
    <path id="Path_3812" data-name="Path 3812" d="M593.086,443.7a3.543,3.543,0,1,1-7.086,0,2.849,2.849,0,0,1,2.582-2.865,5.208,5.208,0,0,1,.961-.086,5.442,5.442,0,0,1,.664.04A2.917,2.917,0,0,1,593.086,443.7Z" transform="translate(-469.306 -362.529)" fill="#fc4a4a"/>
    <path id="Path_3813" data-name="Path 3813" d="M599.285,440.819c-.064.122-.412.221-.833.221a1.469,1.469,0,0,1-.793-.166,5.213,5.213,0,0,1,.961-.086A5.432,5.432,0,0,1,599.285,440.819Z" transform="translate(-478.384 -362.558)" opacity="0.1"/>
    <path id="Path_3814" data-name="Path 3814" d="M590.134,447.231a3.543,3.543,0,0,1-3.543-3.543,2.828,2.828,0,0,1,2.5-2.848,4.773,4.773,0,0,0-.509.066A2.849,2.849,0,0,0,586,443.772a3.543,3.543,0,0,0,3.543,3.543,3.473,3.473,0,0,0,.795-.091C590.269,447.228,590.207,447.231,590.134,447.231Z" transform="translate(-469.306 -362.599)" opacity="0.1"/>
    <path id="Path_3815" data-name="Path 3815" d="M673.789,615.3a2.525,2.525,0,0,0,1.9.383l3.027-.221c2.4-.177,4.891-.376,7.013-1.521a1.668,1.668,0,0,0,.582-.443,1.874,1.874,0,0,0,.255-.954,44.2,44.2,0,0,1,1.944-9.652c1.329-4.174,3.321-8.288,3.295-12.657v-.317c-.038-1.369-.279-2.721-.427-4.083a59.651,59.651,0,0,1-.2-6.864,14.89,14.89,0,0,1,.186-2.682c.139-.72.664-1.442.343-2.075-.622-1.229-2.879-1.681-4.092-1.725a16.483,16.483,0,0,0-4.821.795,3.1,3.1,0,0,0-1.346.609,2.562,2.562,0,0,0-.644,1.838c-.084,2.956,1.619,5.706,1.754,8.658a2.855,2.855,0,0,0,.31,1.55,6.42,6.42,0,0,0,.664.675,3.838,3.838,0,0,1,.638,2.814c-.02.4-.042.8-.069,1.2a59.535,59.535,0,0,1-3.2,15.6,8.5,8.5,0,0,1-.664,1.55,7.513,7.513,0,0,1-1.643,1.82,21.014,21.014,0,0,1-2.921,2.09,5.941,5.941,0,0,0-1.9,1.444A1.685,1.685,0,0,0,673.789,615.3Z" transform="translate(-537.344 -465.095)" fill="#fda8a8"/>
    <path id="Path_3816" data-name="Path 3816" d="M673.789,615.3a2.525,2.525,0,0,0,1.9.383l3.027-.221c2.4-.177,4.891-.376,7.013-1.521a1.668,1.668,0,0,0,.582-.443,1.874,1.874,0,0,0,.255-.954,44.2,44.2,0,0,1,1.944-9.652c1.329-4.174,3.321-8.288,3.295-12.657v-.317c-.038-1.369-.279-2.721-.427-4.083a59.651,59.651,0,0,1-.2-6.864,14.89,14.89,0,0,1,.186-2.682c.139-.72.664-1.442.343-2.075-.622-1.229-2.879-1.681-4.092-1.725a16.483,16.483,0,0,0-4.821.795,3.1,3.1,0,0,0-1.346.609,2.562,2.562,0,0,0-.644,1.838c-.084,2.956,1.619,5.706,1.754,8.658a2.855,2.855,0,0,0,.31,1.55,6.42,6.42,0,0,0,.664.675,3.838,3.838,0,0,1,.638,2.814c-.02.4-.042.8-.069,1.2a59.535,59.535,0,0,1-3.2,15.6,8.5,8.5,0,0,1-.664,1.55,7.513,7.513,0,0,1-1.643,1.82,21.014,21.014,0,0,1-2.921,2.09,5.941,5.941,0,0,0-1.9,1.444A1.685,1.685,0,0,0,673.789,615.3Z" transform="translate(-537.344 -465.095)" opacity="0.1"/>
    <path id="Path_3817" data-name="Path 3817" d="M673.789,677.716a2.525,2.525,0,0,0,1.9.383l3.027-.221c2.4-.177,4.891-.376,7.013-1.521a1.669,1.669,0,0,0,.582-.443,1.874,1.874,0,0,0,.255-.954,44.2,44.2,0,0,1,1.944-9.652c1.329-4.174,3.321-8.288,3.295-12.657a63.548,63.548,0,0,1-7.708.381,59.532,59.532,0,0,1-3.2,15.6,8.5,8.5,0,0,1-.664,1.55A7.51,7.51,0,0,1,678.6,672a21,21,0,0,1-2.921,2.09,5.943,5.943,0,0,0-1.9,1.444A1.7,1.7,0,0,0,673.789,677.716Z" transform="translate(-537.344 -527.508)" fill="#eeeff3"/>
    <path id="Path_3818" data-name="Path 3818" d="M673.789,677.716a2.525,2.525,0,0,0,1.9.383l3.027-.221c2.4-.177,4.891-.376,7.013-1.521a1.669,1.669,0,0,0,.582-.443,1.874,1.874,0,0,0,.255-.954,44.2,44.2,0,0,1,1.944-9.652c1.329-4.174,3.321-8.288,3.295-12.657a63.548,63.548,0,0,1-7.708.381,59.532,59.532,0,0,1-3.2,15.6,8.5,8.5,0,0,1-.664,1.55A7.51,7.51,0,0,1,678.6,672a21,21,0,0,1-2.921,2.09,5.943,5.943,0,0,0-1.9,1.444A1.7,1.7,0,0,0,673.789,677.716Z" transform="translate(-537.344 -527.508)" opacity="0.1"/>
    <path id="Path_3819" data-name="Path 3819" d="M665.593,750.1a11.4,11.4,0,0,0,2.086-1l3.337-1.882a2.828,2.828,0,0,1,.99-.4l.4,2.978a2.307,2.307,0,0,1-.4,2.079,1.942,1.942,0,0,1-.664.345,12.782,12.782,0,0,1-3.8.467c-3.937.126-7.914.587-11.793-.1a1.977,1.977,0,0,1-1.273-.6,1.352,1.352,0,0,1,.082-1.534,3.561,3.561,0,0,1,1.282-1c.988-.531,2.013-.983,3.038-1.437a.3.3,0,0,1,.21-.035c.1.033.131.155.157.257a2.672,2.672,0,0,0,1.43,1.643C660.684,749.882,664.118,750.569,665.593,750.1Z" transform="translate(-522.46 -600.826)" fill="#bbbdc8"/>
    <path id="Path_3820" data-name="Path 3820" d="M665.593,750.1a11.4,11.4,0,0,0,2.086-1l3.337-1.882a2.828,2.828,0,0,1,.99-.4l.4,2.978a2.307,2.307,0,0,1-.4,2.079,1.942,1.942,0,0,1-.664.345,12.782,12.782,0,0,1-3.8.467c-3.937.126-7.914.587-11.793-.1a1.977,1.977,0,0,1-1.273-.6,1.352,1.352,0,0,1,.082-1.534,3.561,3.561,0,0,1,1.282-1c.988-.531,2.013-.983,3.038-1.437a.3.3,0,0,1,.21-.035c.1.033.131.155.157.257a2.672,2.672,0,0,0,1.43,1.643C660.684,749.882,664.118,750.569,665.593,750.1Z" transform="translate(-522.46 -600.826)" opacity="0.1"/>
    <path id="Path_3821" data-name="Path 3821" d="M683.789,629.3a2.525,2.525,0,0,0,1.9.383l3.027-.221c2.4-.177,4.891-.376,7.013-1.521a1.667,1.667,0,0,0,.582-.443,1.875,1.875,0,0,0,.255-.954,44.2,44.2,0,0,1,1.944-9.652c1.329-4.174,3.321-8.288,3.295-12.657v-.317c-.038-1.368-.279-2.721-.427-4.083a59.664,59.664,0,0,1-.2-6.864,14.9,14.9,0,0,1,.186-2.682c.139-.72.664-1.442.343-2.075-.622-1.229-2.879-1.681-4.092-1.725a16.484,16.484,0,0,0-4.821.795,3.1,3.1,0,0,0-1.346.609,2.562,2.562,0,0,0-.644,1.838c-.084,2.956,1.619,5.706,1.754,8.658a2.855,2.855,0,0,0,.31,1.55,6.421,6.421,0,0,0,.664.675,3.838,3.838,0,0,1,.638,2.814c-.02.4-.042.8-.069,1.2a59.536,59.536,0,0,1-3.2,15.6,8.511,8.511,0,0,1-.664,1.55,7.512,7.512,0,0,1-1.643,1.82,20.993,20.993,0,0,1-2.921,2.09,5.943,5.943,0,0,0-1.9,1.444A1.686,1.686,0,0,0,683.789,629.3Z" transform="translate(-545.129 -475.995)" fill="#fda8a8"/>
    <path id="Path_3822" data-name="Path 3822" d="M683.789,691.716a2.525,2.525,0,0,0,1.9.383l3.027-.221c2.4-.177,4.891-.376,7.013-1.521a1.667,1.667,0,0,0,.582-.443,1.875,1.875,0,0,0,.255-.954,44.2,44.2,0,0,1,1.944-9.652c1.329-4.174,3.321-8.288,3.295-12.657a63.547,63.547,0,0,1-7.708.381,59.536,59.536,0,0,1-3.2,15.6,8.508,8.508,0,0,1-.664,1.55A7.511,7.511,0,0,1,688.6,686a20.986,20.986,0,0,1-2.921,2.09,5.944,5.944,0,0,0-1.9,1.444A1.7,1.7,0,0,0,683.789,691.716Z" transform="translate(-545.129 -538.408)" fill="#eeeff3"/>
    <path id="Path_3823" data-name="Path 3823" d="M675.593,764.1a11.4,11.4,0,0,0,2.086-1l3.337-1.882a2.83,2.83,0,0,1,.99-.4l.4,2.978a2.307,2.307,0,0,1-.4,2.079,1.941,1.941,0,0,1-.664.345,12.778,12.778,0,0,1-3.8.467c-3.937.126-7.914.587-11.793-.1a1.977,1.977,0,0,1-1.273-.6,1.352,1.352,0,0,1,.082-1.535,3.559,3.559,0,0,1,1.282-1c.988-.531,2.013-.983,3.038-1.437a.3.3,0,0,1,.21-.036c.1.033.131.155.157.257a2.671,2.671,0,0,0,1.43,1.643C670.684,763.882,674.118,764.569,675.593,764.1Z" transform="translate(-530.246 -611.726)" fill="#bbbdc8"/>
    <path id="Path_3824" data-name="Path 3824" d="M665.81,329.238c1.078-1.329,1.107-3.184,1.081-4.889,0-.664-.02-1.351-.044-2.026v-.015a22.851,22.851,0,0,0-.392-3.7h0a13.446,13.446,0,0,0-.465-1.727c.146-.033.292-.064.443-.091a18.144,18.144,0,0,1,7.03,0,14.344,14.344,0,0,1,1.993.259.664.664,0,0,1,.4.281,3.783,3.783,0,0,1-.288,1.532h0a2.993,2.993,0,0,0-.155.85,5.848,5.848,0,0,0,.124.808c.1.489.241.974.306,1.47.113.846.013,1.707.069,2.56a3.255,3.255,0,0,0,.95,2.305A44.757,44.757,0,0,0,665.81,329.238Z" transform="translate(-531.444 -265.751)" fill="#fda8a8"/>
    <path id="Path_3825" data-name="Path 3825" d="M678.616,320.441c-.294.024-.587.053-.886.086a44.615,44.615,0,0,0-8.689,1.816v-.016l-.392-3.7h0v-.675c0-.379-.011-.762-.02-1.143a18.144,18.144,0,0,1,7.03,0,14.333,14.333,0,0,1,1.993.259c0,.361,0,.722.013,1.083a4.831,4.831,0,0,0,.1.731h0A2.781,2.781,0,0,0,678.616,320.441Z" transform="translate(-533.639 -265.767)" opacity="0.1"/>
    <circle id="Ellipse_82" data-name="Ellipse 82" cx="8.193" cy="8.193" r="8.193" transform="translate(131.197 39.305)" fill="#fda8a8"/>
    <path id="Path_3826" data-name="Path 3826" d="M643.479,378.929a16.044,16.044,0,0,1,3.348-14.743,9.552,9.552,0,0,1,2.564-2.378,8.609,8.609,0,0,1,4-.678,8.887,8.887,0,0,1,3.561.48,8.194,8.194,0,0,1,3.406,3.41,10.862,10.862,0,0,1,1.913,4.8c.075,1.03-.106,2.075.047,3.1.195,1.3.919,2.465,1.216,3.744.162.691.195,1.406.3,2.11a19.766,19.766,0,0,0,.682,2.843,102.025,102.025,0,0,0,8.981,20.974,38.024,38.024,0,0,1,3.036,6.007,5.013,5.013,0,0,1,.306,2.98,3.09,3.09,0,0,1-4.077,1.9.777.777,0,0,1-.425.943,2.537,2.537,0,0,1-1.174.221L657.487,415a4.931,4.931,0,0,0-1.065.144c-1.608.412-1,1.107-1.176,1.687-.21.709-1.227.651-1.935.443.108,1.034.133,2.3-1.2,2.6a2.256,2.256,0,0,1-1.045-.035,21.793,21.793,0,0,0-7.427-.6,3.331,3.331,0,0,1-2.631-.443,3,3,0,0,1-.729-1.9c-1.362-10.85,1.439-21.716,3.543-32.435a12.875,12.875,0,0,0-.243-5.2Z" transform="translate(-511.285 -300.539)" fill="#f75842"/>
    <path id="Path_3827" data-name="Path 3827" d="M733.183,359.923a13.19,13.19,0,0,1,.83,2.81c.086.779-.018,1.568.029,2.349a12.047,12.047,0,0,0,.534,2.553,40.39,40.39,0,0,0,1.574,4.745,3.2,3.2,0,0,1,.4,2.186c-.239.72-.981,1.165-1.193,1.88a2.228,2.228,0,0,0,.786,2.1c.565.551,1.271.943,1.794,1.53a10.731,10.731,0,0,1,1.286,2.214,20.5,20.5,0,0,0,1.951,2.845l2.677,3.474a2.09,2.09,0,0,0,.642.62c.886.461,1.813-.467,2.715-.886,1.2-.569,2.6-.235,3.917-.14s2.914-.248,3.386-1.484a3.259,3.259,0,0,0,.1-1.55,15.441,15.441,0,0,0-1.51-5.077,18.321,18.321,0,0,1-1.375-2.936c-.248-.844-.3-1.732-.494-2.589s-.545-1.676-.824-2.513c-1.98-5.948-.492-12.455-1.132-18.691-.237-2.3-.939-4.823-2.919-6.021a8.306,8.306,0,0,0-3.986-.886l-.631-.029-1.016-.051a16.628,16.628,0,0,0-4.378.184c-2.015.443-4.44,2.008-4.519,4.258A26.231,26.231,0,0,0,733.183,359.923Z" transform="translate(-582.832 -289.011)" fill="#2860b5"/>
    <path id="Path_3828" data-name="Path 3828" d="M772.09,346.54a25.525,25.525,0,0,1,.405,4.566c.04,4.371.511,8.724.985,13.064l.312,2.879a3.046,3.046,0,0,0,.443,1.517,1.045,1.045,0,0,0,1.4.321,10.663,10.663,0,0,0,.155-3.131q-.166-3.341-.33-6.685c-.106-2.17-.221-4.342-.485-6.5a43.021,43.021,0,0,0-.912-4.962,5.856,5.856,0,0,0-.317-.99l-.631-.029Z" transform="translate(-614.19 -289.18)" opacity="0.1"/>
    <path id="Path_3829" data-name="Path 3829" d="M674.721,354.43a8.386,8.386,0,0,0-4.068.177,10.37,10.37,0,0,0-4.579,4.513,8.751,8.751,0,0,0,0,5.576c1.255,5.062,3.749,9.944,7.75,13.286a28.864,28.864,0,0,0,3.877,2.657,26.4,26.4,0,0,0,5.56,2.593,3.4,3.4,0,0,0,1.69.19,1.332,1.332,0,0,0,1.107-1.147,65.119,65.119,0,0,1-8.948-6.457,18.486,18.486,0,0,1-2.194-1.993c-1.014-1.14-1.729-2.518-2.713-3.685a21.147,21.147,0,0,1-2.657-3.129,8.343,8.343,0,0,1-.826-2.608,9.869,9.869,0,0,1,.345-5.556,4.879,4.879,0,0,1,4.3-3.127,7.628,7.628,0,0,1,2.775.773l5.6,2.365c-.069-.031.321-1,.3-1.138-.053-.423-.128-.43-.443-.751a7.189,7.189,0,0,0-2.048-1.225A17.525,17.525,0,0,0,674.721,354.43Z" transform="translate(-531.29 -295.196)" fill="#2860b5"/>
    <path id="Path_3830" data-name="Path 3830" d="M650.134,260.873a9.485,9.485,0,0,0,4.293-2.214l-1.171,6.147a30.2,30.2,0,0,0,3.388-1.825,19.589,19.589,0,0,1-1.107,8.306,11.121,11.121,0,0,1-5.511,6.122c2.276.381,4.32-1.253,6.346-2.358,1.413-.768,3.826.022,5.372-.443a17.009,17.009,0,0,0,3.84-1.411c2.2-1.282,2.695-5.026,3.14-7.529a16.3,16.3,0,0,0-.7-7.529,13.248,13.248,0,0,0-.994-2.493,8.6,8.6,0,0,0-12.287-3.06,26.691,26.691,0,0,0-5.494,5.2c-.221.259-1.136,1.18-.833,1.568.37.469,2.54-.868,2.907-1.05C651.217,258.7,650.557,260.768,650.134,260.873Z" transform="translate(-517.853 -214.925)" fill="#ffd566"/>
    <g id="Group_466" data-name="Group 466" transform="translate(128.638 67.681)" opacity="0.1">
      <path id="Path_3831" data-name="Path 3831" d="M652.8,443.034a2.257,2.257,0,0,1-1.045-.035,21.793,21.793,0,0,0-7.427-.6,3.331,3.331,0,0,1-2.631-.443,3,3,0,0,1-.729-1.9c-1.362-10.85,1.439-21.716,3.543-32.435a12.873,12.873,0,0,0-.244-5.2l-.1-.343a15.688,15.688,0,0,1,.139-8.93,15.808,15.808,0,0,0-.808,10.708l.1.343a12.882,12.882,0,0,1,.244,5.2c-2.1,10.719-4.9,21.592-3.543,32.435a3.009,3.009,0,0,0,.728,1.9,3.378,3.378,0,0,0,2.631.443,21.792,21.792,0,0,1,7.427.6,2.256,2.256,0,0,0,1.045.035c1.089-.246,1.273-1.134,1.247-2.013A1.735,1.735,0,0,1,652.8,443.034Z" transform="translate(-639.941 -393.15)"/>
      <path id="Path_3832" data-name="Path 3832" d="M722.216,586.406a.777.777,0,0,1-.425.943,2.538,2.538,0,0,1-1.173.221l-13.676.363a4.934,4.934,0,0,0-1.065.144c-1.608.412-1,1.107-1.176,1.687-.21.709-1.227.651-1.935.443a3.36,3.36,0,0,1-.186,1.878c.622.093,1.291.011,1.457-.549s-.432-1.275,1.176-1.687a4.93,4.93,0,0,1,1.065-.144l13.667-.363a2.538,2.538,0,0,0,1.174-.221.777.777,0,0,0,.425-.943,3.09,3.09,0,0,0,4.077-1.9,3.182,3.182,0,0,0,.115-.762A3.069,3.069,0,0,1,722.216,586.406Z" transform="translate(-688.71 -542.924)"/>
    </g>
    <path id="Path_3833" data-name="Path 3833" d="M617.345,380.56a76.574,76.574,0,0,1,3.115,7.677,15.247,15.247,0,0,1,1.125,6.532,5.975,5.975,0,0,1-3.676,5.148,9.713,9.713,0,0,1-2.821.321,59.755,59.755,0,0,0-6.8.549,29.95,29.95,0,0,1-3.169.352c-1.5.049-3-.186-4.5-.064-2.422.2-4.723,1.329-7.154,1.329a1.815,1.815,0,0,1-.864-.159,1.982,1.982,0,0,1-.79-1.236,4.145,4.145,0,0,1-.031-3.3c.706-1.2,2.312-1.444,3.7-1.55q4.7-.332,9.417-.465c2.682-.075,5.587-.177,7.666-1.873a1.1,1.1,0,0,0,.334-.385,1.229,1.229,0,0,0-.027-.791,34.435,34.435,0,0,1-1.049-9.865,1.461,1.461,0,0,1,.221-.846,1.389,1.389,0,0,1,.7-.407,10.277,10.277,0,0,1,5.731-.159" transform="translate(-473.546 -315.667)" fill="#fda8a8"/>
    <path id="Path_3834" data-name="Path 3834" d="M680.368,369.138a1.663,1.663,0,0,0-.8.591c.089-.923-.031-1.856-.013-2.786a4.235,4.235,0,0,1,.777-2.622,4.189,4.189,0,0,1,3.2-1.282,6.734,6.734,0,0,1,4.767,1.628,4.871,4.871,0,0,1,1.495,2.879c.04.3.173,1.441-.144,1.636-.277.173-1.329-.423-1.667-.518a11.187,11.187,0,0,0-7.615.474Z" transform="translate(-542.143 -302.024)" fill="#f75842"/>
    <circle id="Ellipse_83" data-name="Ellipse 83" cx="1.5" cy="1.5" r="1.5" transform="translate(103.5 11.373)" fill="#2860b5" opacity="0.1"/>
    <circle id="Ellipse_84" data-name="Ellipse 84" cx="1.5" cy="1.5" r="1.5" transform="translate(113.5 41.373)" fill="#2860b5" opacity="0.1"/>
    <ellipse id="Ellipse_85" data-name="Ellipse 85" cx="1.5" cy="1" rx="1.5" ry="1" transform="translate(84.5 13.373)" fill="#2860b5" opacity="0.1"/>
    <ellipse id="Ellipse_86" data-name="Ellipse 86" cx="4.5" cy="4" rx="4.5" ry="4" transform="translate(33.5 81.373)" fill="#2860b5" opacity="0.1"/>
    <circle id="Ellipse_87" data-name="Ellipse 87" cx="1" cy="1" r="1" transform="translate(197.5 21.373)" fill="#2860b5" opacity="0.1"/>
    <ellipse id="Ellipse_88" data-name="Ellipse 88" cx="5" cy="4.5" rx="5" ry="4.5" transform="translate(195.5 39.373)" fill="#2860b5" opacity="0.1"/>
    <circle id="Ellipse_89" data-name="Ellipse 89" cx="2" cy="2" r="2" transform="translate(206.5 26.373)" fill="#2860b5" opacity="0.1"/>
    <circle id="Ellipse_90" data-name="Ellipse 90" cx="1.5" cy="1.5" r="1.5" transform="translate(193.5 55.373)" fill="#2860b5" opacity="0.1"/>
    <ellipse id="Ellipse_91" data-name="Ellipse 91" cx="2" cy="1" rx="2" ry="1" transform="translate(99.5 24.373)" fill="#2860b5" opacity="0.1"/>
    <ellipse id="Ellipse_92" data-name="Ellipse 92" cx="1" cy="1.5" rx="1" ry="1.5" transform="translate(42.5 102.373)" fill="#2860b5" opacity="0.1"/>
    <circle id="Ellipse_93" data-name="Ellipse 93" cx="1.5" cy="1.5" r="1.5" transform="translate(39.5 67.373)" fill="#2860b5" opacity="0.1"/>
    <circle id="Ellipse_94" data-name="Ellipse 94" cx="1.5" cy="1.5" r="1.5" transform="translate(125.5 10.373)" fill="#2860b5" opacity="0.1"/>
    <ellipse id="Ellipse_95" data-name="Ellipse 95" cx="1.5" cy="1" rx="1.5" ry="1" transform="translate(129.5 24.373)" fill="#2860b5" opacity="0.1"/>
  </g>
</svg>
